<svg width="100%" height="100%" viewBox="0 0 50 50" fill="none" xmlns="http://www.w3.org/2000/svg">
<path fill-rule="evenodd" clip-rule="evenodd" d="M40.6144 21.774C41.5391 20.8101 41.5391 19.2475 40.6144 18.2836C39.69 17.3198 38.1911 17.3198 37.2667 18.2836L28.8973 27.0096L20.5278 18.2836C19.6034 17.3198 18.1045 17.3198 17.18 18.2836C16.2556 19.2475 16.2556 20.8101 17.18 21.774L25.5496 30.5L17.18 39.2259C16.2556 40.1899 16.2556 41.7525 17.18 42.7163C18.1045 43.6803 19.6034 43.6803 20.5278 42.7163L28.8973 33.9904L37.2667 42.7163C38.1911 43.6803 39.69 43.6803 40.6144 42.7163C41.5391 41.7525 41.5391 40.1899 40.6144 39.2259L32.2451 30.5L40.6144 21.774Z" fill="white" stroke="#A43D3D" stroke-width="0.00064"/>
</svg>
