<svg width="31" height="25" viewBox="0 0 31 25" fill="none" xmlns="http://www.w3.org/2000/svg">
<path d="M31 1.5625V7.8125L15.5 14.0625L0 7.8125V1.5625C0 1.1481 0.163303 0.750672 0.453984 0.457646C0.744666 0.16462 1.13891 0 1.55 0H29.45C29.8611 0 30.2553 0.16462 30.546 0.457646C30.8367 0.750672 31 1.1481 31 1.5625ZM0 11.1781V23.4375C0 23.8519 0.163303 24.2493 0.453984 24.5424C0.744666 24.8354 1.13891 25 1.55 25H29.45C29.8611 25 30.2553 24.8354 30.546 24.5424C30.8367 24.2493 31 23.8519 31 23.4375V11.1781L15.5 17.4281L0 11.1781Z" fill="#9DAFC6"/>
</svg>
