<svg width="32" height="32" viewBox="0 0 32 32" fill="none" xmlns="http://www.w3.org/2000/svg">
<path d="M24.9325 13.4283H28.216C28.6566 13.4283 29 13.7519 29 14.1156V28.3529C29 28.7165 28.6566 29 28.216 29H2.78402C2.3434 29 2 28.7165 2 28.3529V14.1156C2 13.7519 2.3434 13.4283 2.78402 13.4283H5.9687V6.79505C5.9687 3.07395 8.86015 0 13.3196 0H17.5345C22.0426 0 24.9341 3.07395 24.9341 6.79505V13.4283H24.9325ZM10.135 13.4283H20.818V7.11863C20.818 5.05552 18.7592 3.31599 16.2111 3.31599H14.6917C12.1922 3.31599 10.135 5.05552 10.135 7.11863V13.4283ZM13.2209 24.8751H17.7776L16.6502 20.7903C17.4342 20.4667 17.9736 19.7794 17.9736 19.0106C17.9736 17.838 16.8462 16.9475 15.4741 16.9475C14.1021 16.9475 13.0233 17.838 13.0233 19.0106C13.0233 19.7794 13.5627 20.4667 14.3467 20.7903L13.2209 24.8751Z" fill="#9DAFC6"/>
</svg>
