<svg width="583" height="540" viewBox="0 0 583 540" fill="none" xmlns="http://www.w3.org/2000/svg">
<path d="M268.859 91.7128C268.859 91.7128 190.185 95.0945 148.551 174.903C106.917 254.712 63.8898 229.823 38.5472 301.921C13.2046 374.02 64.3075 455.858 98.7011 464.786C133.095 473.713 525.209 464.786 525.209 464.786C525.209 464.786 577.008 430.427 581.046 341.014C585.084 251.601 507.943 221.842 475.916 209.127C443.751 196.276 394.458 89.6838 268.859 91.7128Z" fill="#F3F5F4"/>
<path d="M381.508 310.173C472.017 250.925 489.702 220.624 534.399 214.943C643.289 201.146 563.502 474.66 314.113 533.097C195.616 560.827 48.8514 485.076 27.9646 426.369C7.63482 369.556 62.3582 348.183 142.981 378.619C223.465 408.919 335.279 340.338 381.508 310.173Z" stroke="#BBBFBD" stroke-miterlimit="10"/>
<path d="M487.797 251.688C492.936 246.231 492.548 237.761 486.931 232.769C481.314 227.776 472.594 228.153 467.455 233.61C462.316 239.066 462.704 247.537 468.321 252.529C473.938 257.522 482.658 257.145 487.797 251.688Z" fill="#D9D9D9"/>
<path d="M481.808 515.375C487.191 510.145 487.191 501.666 481.808 496.436C476.424 491.207 467.696 491.207 462.312 496.436C456.929 501.666 456.929 510.145 462.312 515.375C467.696 520.604 476.424 520.605 481.808 515.375Z" stroke="#BBBFBD" stroke-miterlimit="10"/>
<path d="M292.391 214.537C300.005 214.537 306.177 208.542 306.177 201.146C306.177 193.75 300.005 187.754 292.391 187.754C284.778 187.754 278.606 193.75 278.606 201.146C278.606 208.542 284.778 214.537 292.391 214.537Z" stroke="#BBBFBD" stroke-miterlimit="10"/>
<path d="M253.403 254.577L239.478 273.515H265.935L253.403 254.577Z" stroke="#BBBFBD" stroke-miterlimit="10" stroke-linecap="round" stroke-linejoin="round"/>
<path d="M187.679 494.951L178.906 511.318H205.502L187.679 494.951Z" fill="#D9D9D9"/>
<path d="M57.2718 292.648C60.6119 278.907 51.8526 265.137 37.7075 261.892C23.5623 258.648 9.38779 267.157 6.04772 280.898C2.70766 294.639 11.4669 308.409 25.612 311.654C39.7572 314.899 53.9318 306.389 57.2718 292.648Z" stroke="#BBBFBD" stroke-miterlimit="10" stroke-linecap="round" stroke-linejoin="round"/>
<path d="M25.8843 284.615C25.718 283.748 25.6349 282.976 25.6349 282.299C25.6349 281.266 25.7774 280.405 26.0624 279.717C26.3473 279.016 26.6976 278.458 27.1132 278.043C27.5287 277.615 28.069 277.158 28.7339 276.671C29.3038 276.256 29.755 275.894 30.0875 275.585C30.42 275.264 30.699 274.872 30.9246 274.409C31.1502 273.934 31.263 273.37 31.263 272.717C31.263 271.732 30.9661 270.972 30.3725 270.438C29.7788 269.891 28.9951 269.618 28.0215 269.618C27.0004 269.618 26.1099 269.891 25.35 270.438C24.59 270.972 24.032 271.589 23.6758 272.29L21.1467 268.835C21.8473 267.968 22.809 267.226 24.032 266.608C25.255 265.979 26.6204 265.664 28.1284 265.664C30.7168 265.664 32.6581 266.234 33.9523 267.374C35.2465 268.502 35.8937 270.129 35.8937 272.254C35.8937 273.109 35.763 273.845 35.5018 274.463C35.2406 275.068 34.9141 275.579 34.5223 275.994C34.1304 276.398 33.6021 276.873 32.9371 277.419C32.2129 278.001 31.6251 278.529 31.1739 279.004C30.7346 279.479 30.3606 280.091 30.0519 280.839C29.7432 281.587 29.5888 282.489 29.5888 283.546V284.615H25.8843ZM25.8486 288.034H29.8738V293.342H25.8486V288.034Z" fill="#99C6AB"/>
<path d="M321.182 118.075C331.459 108.091 331.459 91.9039 321.182 81.9199C310.904 71.9359 294.241 71.9359 283.964 81.9199C273.686 91.9039 273.686 108.091 283.964 118.075C294.241 128.059 310.904 128.059 321.182 118.075Z" fill="#99C6AB"/>
<path d="M296.804 97.7777C296.638 96.9109 296.555 96.1392 296.555 95.4624C296.555 94.4294 296.697 93.5685 296.982 92.8799C297.267 92.1793 297.617 91.6213 298.033 91.2057C298.448 90.7783 298.989 90.3211 299.654 89.8343C300.224 89.4187 300.675 89.0566 301.007 88.7479C301.34 88.4273 301.619 88.0355 301.844 87.5724C302.07 87.0975 302.183 86.5335 302.183 85.8804C302.183 84.8949 301.886 84.135 301.292 83.6007C300.698 83.0545 299.915 82.7814 298.941 82.7814C297.92 82.7814 297.03 83.0545 296.27 83.6007C295.51 84.135 294.952 84.7524 294.595 85.453L292.066 81.9978C292.767 81.131 293.729 80.3889 294.952 79.7715C296.175 79.1422 297.54 78.8276 299.048 78.8276C301.636 78.8276 303.578 79.3975 304.872 80.5373C306.166 81.6653 306.813 83.292 306.813 85.4174C306.813 86.2723 306.683 87.0084 306.422 87.6258C306.16 88.2314 305.834 88.742 305.442 89.1575C305.05 89.5612 304.522 90.0362 303.857 90.5824C303.133 91.1642 302.545 91.6925 302.094 92.1675C301.654 92.6424 301.28 93.2539 300.972 94.0019C300.663 94.75 300.508 95.6524 300.508 96.7091V97.7777H296.804ZM296.768 101.197H300.793V106.505H296.768V101.197Z" fill="white"/>
<path d="M112.951 300.404C114.622 293.495 110.212 286.578 103.099 284.954C95.9873 283.33 88.8667 287.615 87.1951 294.524C85.5235 301.433 89.934 308.35 97.0462 309.974C104.158 311.598 111.279 307.314 112.951 300.404Z" fill="#D9D9D9"/>
<path d="M569.489 67.4994H450.852C444.029 67.4994 438.599 72.7749 438.599 79.4031V148.796C438.599 155.424 444.029 160.7 450.852 160.7H474.942L470.207 172.739C468.815 176.256 472.992 179.367 476.056 177.068L499.031 160.7H569.489C576.312 160.7 581.743 155.424 581.743 148.796V79.4031C581.743 72.7749 576.312 67.4994 569.489 67.4994Z" fill="#AED6BE"/>
<path d="M452.662 86.843H566.008" stroke="white" stroke-miterlimit="10" stroke-linecap="round" stroke-linejoin="round"/>
<path d="M452.662 96.8529H566.008" stroke="white" stroke-miterlimit="10" stroke-linecap="round" stroke-linejoin="round"/>
<path d="M452.662 106.863H566.008" stroke="white" stroke-miterlimit="10" stroke-linecap="round" stroke-linejoin="round"/>
<path d="M452.662 116.873H566.008" stroke="white" stroke-miterlimit="10" stroke-linecap="round" stroke-linejoin="round"/>
<path d="M452.662 126.883H566.008" stroke="white" stroke-miterlimit="10" stroke-linecap="round" stroke-linejoin="round"/>
<path d="M452.662 136.893H566.008" stroke="white" stroke-miterlimit="10" stroke-linecap="round" stroke-linejoin="round"/>
<path d="M198.679 287.853C198.679 287.853 197.426 277.978 195.894 273.379C194.363 268.645 187.679 259.717 187.679 259.717C187.679 259.717 185.033 265.263 188.932 269.862C188.932 269.862 188.653 277.167 189.071 279.737C189.071 279.737 176.539 269.321 174.172 268.239C172.64 267.022 170.83 265.669 168.463 263.775C160.108 257.282 154.538 259.311 155.374 259.852C155.931 260.123 165.4 267.698 171.248 272.297L170.412 273.379C168.602 272.027 165.817 269.727 161.501 266.481C153.146 259.988 147.576 262.017 148.412 262.558C148.969 262.964 162.893 273.92 167.488 277.437L166.096 279.331C164.286 277.978 161.361 275.679 156.906 272.162C148.551 265.669 142.981 267.698 143.817 268.239C144.373 268.645 158.994 280.143 163.172 283.389L161.779 285.418C160.247 284.066 155.931 280.278 151.753 277.573C146.601 274.056 142.842 275.679 142.842 275.679C142.842 275.679 142.842 275.679 145.07 277.708C147.298 279.737 159.273 288.8 159.273 288.8C159.273 288.8 177.514 304.627 182.109 306.114L186.565 310.308L202.996 292.993L198.679 287.853Z" fill="#FF996A"/>
<path d="M329.987 397.151C320.24 410.813 306.455 419.335 288.353 415.683C239.617 406.079 181.97 314.095 181.97 314.095L184.894 310.984L206.338 288.394L281.112 354.406L304.506 321.535L327.342 289.476L338.621 273.65C338.621 273.65 345.165 283.795 349.343 315.989C351.988 336.28 346.558 374.155 329.987 397.151Z" fill="#D3AA7D"/>
<path d="M329.987 397.151C320.24 410.813 306.455 419.335 288.353 415.683C239.617 406.079 181.97 314.095 181.97 314.095L184.894 310.984L186.704 310.037C186.704 310.037 255.352 401.75 284.176 388.088C301.999 379.701 304.923 346.019 304.506 321.535L327.342 289.476L329.987 397.151Z" fill="#C1966B"/>
<path d="M513.234 388.223L508.778 464.244H491.512L498.335 388.223H513.234Z" fill="#649176"/>
<path d="M407.686 388.223L403.23 464.244H386.103L392.787 388.223H407.686Z" fill="#649176"/>
<path d="M514.905 401.344H378.445C364.938 401.344 353.938 390.658 353.938 377.537V303.274C353.938 290.153 364.938 279.467 378.445 279.467H514.905C528.412 279.467 539.412 290.153 539.412 303.274V377.402C539.551 390.658 528.551 401.344 514.905 401.344Z" fill="#649176"/>
<path d="M503.487 401.344H367.027C353.52 401.344 342.52 390.658 342.52 377.537V303.274C342.52 290.153 353.52 279.467 367.027 279.467H503.487C516.994 279.467 527.994 290.153 527.994 303.274V377.402C527.994 390.658 516.994 401.344 503.487 401.344Z" fill="#7EAF92"/>
<path d="M400.585 245.243C400.585 245.243 427.459 241.05 463.663 277.438L472.017 464.244H320.658C320.658 464.244 304.088 338.173 323.443 293.399C342.659 248.49 377.331 243.214 400.585 245.243Z" fill="#FFD294"/>
<path d="M347.671 143.927L354.355 135.134L411.028 153.531L410.471 174.227H414.231C421.889 174.227 428.016 180.179 428.016 187.619C428.016 195.058 421.889 201.01 414.231 201.01H409.914L409.218 229.011V253.63L368.14 259.176L367.166 242.673L366.609 234.016L360.621 231.311C343.633 223.465 332.772 206.692 332.772 188.295C332.911 172.333 338.064 156.777 347.671 143.927Z" fill="#FF996A"/>
<path d="M366.748 233.881L367.305 242.538C368.837 242.403 370.369 242.132 372.039 241.862C397.382 237.398 407.269 215.078 406.294 203.716C406.155 203.716 397.661 231.311 366.748 233.881Z" fill="#D37A57"/>
<path d="M414.648 183.696C413.534 184.507 412.56 185.454 412.281 186.807C412.281 186.807 414.37 187.483 414.648 189.783C414.788 192.083 412.281 193.029 412.281 193.029C412.281 193.029 414.231 196.141 417.433 194.517C420.636 192.894 420.079 186.942 416.876 185.725C416.876 185.725 421.889 185.184 423.839 186.942C423.839 186.942 424.256 185.184 422.168 183.561C419.94 181.937 416.876 182.073 414.648 183.696Z" fill="#D37A57"/>
<path d="M347.671 143.927C347.671 143.927 355.33 156.777 365.216 160.971C375.103 165.164 385.685 159.077 395.711 164.623C405.597 170.169 399.331 180.449 401.559 185.454C403.787 190.459 406.294 191.136 406.294 191.136C406.294 191.136 407.686 177.068 410.61 174.362C410.61 174.362 419.522 174.227 422.307 176.797C422.307 176.797 427.32 167.058 428.155 159.347C428.991 151.772 420.357 149.202 420.357 149.202C420.357 149.202 418.269 130.941 395.293 124.177C372.179 117.414 354.634 128.1 345.444 124.177C336.253 120.255 327.899 126.206 327.342 135.269C326.785 144.332 333.19 147.579 333.19 147.579C333.19 147.579 328.873 151.096 330.684 156.507C332.355 161.917 337.785 163.135 337.785 163.135C337.785 163.135 343.633 149.337 347.671 143.927Z" fill="#3F2D1F"/>
<path d="M352.267 209.532L375.799 208.45C375.799 208.45 370.368 216.702 362.571 216.566C355.469 216.566 352.267 209.532 352.267 209.532Z" fill="white"/>
<path d="M379.28 172.333C379.002 172.333 378.723 172.198 378.445 172.063C373.432 168.14 368.558 171.522 368.558 171.522C368.001 171.927 367.166 171.792 366.748 171.251C366.331 170.71 366.47 169.898 367.027 169.493C369.255 167.869 374.964 165.976 380.116 170.169C380.673 170.575 380.812 171.386 380.255 171.927C380.116 172.198 379.698 172.333 379.28 172.333Z" fill="#3F2D1F"/>
<path d="M350.178 172.333C349.899 172.333 349.621 172.198 349.342 172.063C344.33 168.14 339.456 171.522 339.456 171.522C338.899 171.927 338.064 171.792 337.646 171.251C337.228 170.71 337.367 169.898 337.924 169.493C340.152 167.869 345.861 165.976 351.013 170.169C351.57 170.575 351.71 171.386 351.153 171.927C350.874 172.198 350.456 172.333 350.178 172.333Z" fill="#3F2D1F"/>
<path d="M416.737 247.137L409.357 237.803L379.837 247.949L375.103 256.065L371.9 248.76L367.444 244.026L362.849 252.683C362.849 252.683 362.988 261.476 374.407 263.775C385.546 266.075 410.471 257.012 416.737 247.137Z" fill="#9C897A"/>
<path d="M422.168 176.662C422.168 176.662 417.573 174.903 413.256 178.826C408.939 182.749 410.332 186.536 410.332 186.536C410.332 186.536 412.281 181.937 416.598 182.478C420.914 183.019 424.117 194.247 418.269 196.411C412.56 198.575 405.18 195.329 405.458 186.536C405.737 177.744 409.079 172.874 414.509 172.063C419.94 171.386 422.168 175.85 422.168 176.662Z" fill="#77A58A"/>
<path d="M381.508 220.489C380.951 220.489 380.394 220.083 380.394 219.542C380.255 218.866 380.672 218.325 381.369 218.189C403.648 213.996 411.306 193.57 411.306 193.435C411.585 192.894 412.142 192.488 412.838 192.759C413.395 193.029 413.813 193.57 413.534 194.247C413.395 194.517 405.458 216.16 381.786 220.624C381.647 220.489 381.508 220.489 381.508 220.489Z" fill="#77A58A"/>
<path d="M376.495 219.677C376.495 222.383 378.723 224.547 381.508 224.547C384.293 224.547 386.521 222.383 386.521 219.677C386.521 216.972 384.293 214.808 381.508 214.808C378.723 214.808 376.495 217.107 376.495 219.677Z" fill="#649176"/>
<path d="M416.18 184.507C416.18 184.507 415.484 189.918 416.737 192.759C417.99 195.599 419.8 194.112 420.218 190.595C420.636 187.213 417.016 182.208 416.18 184.507Z" fill="#649176"/>
<path d="M368.698 182.749C368.698 182.749 368.698 187.754 375.521 188.566C382.204 189.377 383.458 182.749 383.458 182.749C383.458 182.749 379.559 179.232 374.685 179.097C369.672 178.962 368.698 182.749 368.698 182.749Z" fill="white"/>
<path d="M337.785 182.749C337.785 182.749 337.785 187.754 344.33 188.566C350.874 189.377 351.849 182.749 351.849 182.749C351.849 182.749 348.368 179.232 343.633 179.097C338.76 178.962 337.785 182.749 337.785 182.749Z" fill="white"/>
<path d="M351.849 182.749C351.849 182.749 348.368 178.961 344.469 178.285C340.709 177.609 338.063 179.367 337.646 182.749C337.646 182.749 338.342 180.044 342.241 179.638C346.14 179.232 351.849 182.749 351.849 182.749Z" fill="#3F2D1F"/>
<path d="M383.318 182.749C383.318 182.749 379.559 178.826 375.66 178.15C371.761 177.473 368.976 179.367 368.558 182.749C368.558 182.749 369.394 179.908 373.293 179.502C377.331 179.097 383.318 182.749 383.318 182.749Z" fill="#3F2D1F"/>
<path d="M358.393 182.884L355.33 201.146C355.33 201.146 352.824 201.281 349.482 199.928C349.342 199.928 357.558 184.913 358.393 182.884Z" fill="#D37A57"/>
<path d="M265.795 464.244C265.795 464.244 265.238 449.635 282.226 445.171C299.075 440.572 319.683 453.964 323.025 464.244H265.795Z" fill="#649176"/>
<path d="M375.103 189.107C377.41 189.107 379.28 186.805 379.28 183.966C379.28 181.127 377.41 178.826 375.103 178.826C372.796 178.826 370.926 181.127 370.926 183.966C370.926 186.805 372.796 189.107 375.103 189.107Z" fill="#3F2D1F"/>
<path d="M349.621 184.102C349.621 186.942 347.811 189.107 345.443 189.107C343.216 189.107 341.266 186.807 341.266 184.102C341.266 181.261 343.076 179.097 345.443 179.097C347.811 179.097 349.621 181.396 349.621 184.102Z" fill="#3F2D1F"/>
<path d="M393.762 196.952C393.762 199.252 390.977 201.01 387.635 201.01C384.293 201.01 381.508 199.117 381.508 196.952C381.508 194.653 384.293 192.894 387.635 192.894C391.116 192.894 393.762 194.788 393.762 196.952Z" fill="#D37A57"/>
<path d="M343.355 195.058C343.355 197.358 340.57 199.117 337.228 199.117C333.886 199.117 331.101 197.223 331.101 195.058C331.101 192.759 333.886 191 337.228 191C340.57 190.865 343.355 192.759 343.355 195.058Z" fill="#D37A57"/>
<path d="M505.297 417.847C500.981 430.292 493.183 439.761 483.993 446.524C477.727 451.123 470.764 454.37 463.802 456.399C434.7 464.921 327.063 464.244 327.063 464.244L331.101 432.727L451.549 406.349C451.549 406.349 435.953 358.329 436.649 319.506C437.206 283.389 448.346 268.51 460.878 275.544C461.853 276.085 462.688 276.761 463.663 277.437C463.663 277.437 482.739 305.032 502.373 361.575C510.31 384.706 510.171 403.238 505.297 417.847Z" fill="#E5BC89"/>
<path d="M318.848 436.785L293.227 432.321C293.227 432.321 288.492 431.509 283.897 433.538C279.163 435.567 273.871 445.171 273.871 445.171C273.871 445.171 278.188 445.171 281.112 442.736C284.036 440.166 284.454 438.002 284.454 438.002L293.784 438.678L293.923 440.843C290.859 441.519 281.808 443.548 277.492 445.307C272.201 447.471 269.416 454.37 269.416 454.37C269.416 454.37 276.378 453.423 279.998 449.229L294.48 447.606L294.619 448.959C291.695 449.094 286.264 449.77 281.251 451.935C273.732 455.181 271.504 459.51 271.504 459.51C271.504 459.51 279.024 459.51 284.315 455.587L287.796 455.317C284.315 457.481 281.251 462.756 281.251 462.756C281.251 462.756 282.783 463.162 286.264 461.674C289.745 460.186 290.581 458.563 290.581 458.563L300.607 459.239C305.759 459.916 313.696 460.727 318.151 459.239L327.759 460.727L330.823 437.326H318.848V436.785Z" fill="#FF996A"/>
<path d="M531.614 479.53H50.9401C46.6235 479.53 43.1423 476.148 43.1423 471.955C43.1423 467.762 46.6235 464.38 50.9401 464.38H531.754C536.07 464.38 539.551 467.762 539.551 471.955C539.551 476.013 535.931 479.53 531.614 479.53Z" fill="#649176"/>
<path d="M347.393 479.53H47.7375C45.0919 479.53 43.0032 476.148 43.0032 471.955C43.0032 467.762 45.0919 464.38 47.7375 464.38H197.565H347.393C350.039 464.38 352.127 467.762 352.127 471.955C352.127 476.013 349.9 479.53 347.393 479.53Z" fill="#7EAF92"/>
<path d="M256.744 434.756H91.182C85.6122 434.756 80.7386 430.968 79.6246 425.693L58.1809 331.275C57.0669 326.676 60.8265 322.212 65.7001 322.212H233.073C238.086 322.212 242.263 325.593 243.377 330.193L264.821 424.881C265.935 430.021 262.036 434.756 256.744 434.756Z" fill="#7EAF92"/>
<path d="M118.335 418.794C116.942 425.557 108.866 429.751 100.233 427.992C91.5996 426.369 85.7513 419.47 87.1437 412.707C88.5362 405.943 96.6124 401.75 105.246 403.508C113.879 405.132 119.727 412.03 118.335 418.794Z" fill="#99C6AB"/>
<path d="M264.821 425.016L243.377 330.328C242.263 325.593 238.086 322.347 233.073 322.347H223.465C228.478 322.347 232.655 325.729 233.769 330.328L255.213 425.016C256.327 430.021 252.428 434.756 247.137 434.756H256.744C262.036 434.756 265.935 430.021 264.821 425.016Z" fill="#649176"/>
<path d="M236.136 460.322C236.136 462.351 234.326 464.109 232.237 464.109H94.8024C92.5745 464.109 90.6251 463.297 89.0934 461.81C87.7009 460.457 86.7262 458.428 86.7262 456.263C86.7262 454.776 87.1439 453.288 88.1186 451.935L122.094 402.426C123.069 401.074 124.74 400.127 126.411 400.127H185.869C187.957 400.127 189.35 402.426 188.236 404.185L159.551 452.341C158.437 454.099 159.83 456.399 161.919 456.399H232.098C233.212 456.399 234.187 456.805 234.883 457.481C235.719 458.428 236.136 459.375 236.136 460.322Z" fill="#649176"/>
<path d="M195.337 377.807H110.955C109.98 377.807 109.145 376.996 109.145 376.049C109.145 375.102 109.98 374.29 110.955 374.29H195.337C196.312 374.29 197.147 375.102 197.147 376.049C197.147 376.996 196.312 377.807 195.337 377.807Z" fill="#649176"/>
<path d="M199.375 388.223H114.993C114.018 388.223 113.183 387.411 113.183 386.465C113.183 385.518 114.018 384.706 114.993 384.706H199.375C200.35 384.706 201.186 385.518 201.186 386.465C201.186 387.411 200.489 388.223 199.375 388.223Z" fill="#649176"/>
<path d="M59.991 327.758H238.503C239.896 327.758 241.288 328.028 242.681 328.434C241.01 324.647 237.25 322.076 232.934 322.076H65.4216C61.662 322.076 58.7378 324.647 57.9023 327.893C58.5986 327.893 59.2948 327.758 59.991 327.758Z" fill="#99C6AB"/>
<path d="M243.389 418.781C244.767 412.04 238.851 405.218 230.176 403.545C221.501 401.873 213.352 405.982 211.975 412.724C210.597 419.466 216.513 426.287 225.188 427.96C233.863 429.632 242.012 425.523 243.389 418.781Z" fill="#99C6AB"/>
<path d="M236.136 460.727C235.997 462.756 234.187 464.244 232.098 464.244H153.842C150.64 464.244 148.133 461.809 148.133 458.698C148.133 457.616 148.412 456.669 148.969 455.722L184.894 400.397H185.869C187.957 400.397 189.35 402.697 188.236 404.455L159.551 452.611C158.437 454.37 159.83 456.669 161.918 456.669H232.098C233.212 456.669 234.187 457.075 234.883 457.751C235.858 458.428 236.275 459.51 236.136 460.727Z" fill="#527A62"/>
<path d="M463.663 456.263C434.561 464.785 326.924 464.109 326.924 464.109L466.03 428.127C480.511 424.34 489.841 410.542 487.474 396.069C481.347 358.734 469.511 291.776 460.878 275.273C461.853 275.814 462.688 276.49 463.663 277.167C463.663 277.167 482.739 304.762 502.373 361.304C522.007 418.117 492.765 447.741 463.663 456.263Z" fill="#D3AA7D"/>
<path d="M455.447 407.567C455.447 407.567 475.359 407.296 491.512 421.635" stroke="#9C897A" stroke-miterlimit="10" stroke-linecap="round" stroke-linejoin="round"/>
<path d="M413.813 250.519C413.813 250.519 439.991 259.176 452.802 273.921" stroke="#E5BC89" stroke-miterlimit="10" stroke-linecap="round" stroke-linejoin="round"/>
<path d="M283.619 358.87C283.619 358.87 298.1 376.996 299.911 397.962" stroke="#9C897A" stroke-miterlimit="10" stroke-linecap="round" stroke-linejoin="round"/>
<path d="M358.394 252.818C358.394 252.818 352.963 267.833 375.799 269.592C398.775 271.486 423.839 249.572 423.839 249.572" stroke="#E5BC89" stroke-miterlimit="10" stroke-linecap="round" stroke-linejoin="round"/>
<path d="M327.063 436.785L321.633 459.239L327.481 460.186L330.544 436.785H327.063Z" fill="#D37A57"/>
<path d="M374.128 263.775C374.128 263.775 367.305 282.578 362.571 331.275" stroke="#E5BC89" stroke-miterlimit="10" stroke-linecap="round" stroke-linejoin="round"/>
<path d="M418.13 149.337C418.13 149.337 407.408 146.902 397.661 150.555" stroke="#543E2F" stroke-miterlimit="10" stroke-linecap="round" stroke-linejoin="round"/>
<path d="M347.671 143.927C347.671 143.927 346.557 159.212 366.47 161.376" stroke="#543E2F" stroke-miterlimit="10" stroke-linecap="round" stroke-linejoin="round"/>
<path d="M419.94 139.192C419.94 139.192 422.307 145.279 420.218 149.067" stroke="#543E2F" stroke-miterlimit="10" stroke-linecap="round" stroke-linejoin="round"/>
<path d="M329.987 133.105C329.987 133.105 329.152 142.439 338.899 146.091" stroke="#543E2F" stroke-miterlimit="10" stroke-linecap="round" stroke-linejoin="round"/>
<path d="M333.608 150.419C333.608 150.419 331.797 157.453 338.62 160.429" stroke="#543E2F" stroke-miterlimit="10" stroke-linecap="round" stroke-linejoin="round"/>
<path d="M365.356 126.612C365.356 126.612 378.027 121.201 396.129 129.047C412.421 136.216 413.952 145.009 413.952 145.009" stroke="#543E2F" stroke-miterlimit="10" stroke-linecap="round" stroke-linejoin="round"/>
<path d="M419.94 153.125C419.94 153.125 423.56 154.748 423.56 159.753C423.56 164.623 421.054 169.763 421.054 169.763" stroke="#543E2F" stroke-miterlimit="10" stroke-linecap="round" stroke-linejoin="round"/>
<path d="M360.204 151.366C360.204 151.366 362.71 157.859 377.47 158.671C392.23 159.347 396.964 159.347 401.003 164.082C405.041 168.681 403.648 173.821 403.648 173.821" stroke="#543E2F" stroke-miterlimit="10" stroke-linecap="round" stroke-linejoin="round"/>
<path d="M354.773 0H220.401C212.604 0 206.338 6.08712 206.338 13.6622V35.9816C206.338 43.5567 212.604 49.6438 220.401 49.6438H238.225L234.047 63.5766C233.212 66.1467 236.275 68.311 238.503 66.823L266.352 49.6438H354.773C362.571 49.6438 368.837 43.5567 368.837 35.9816V13.7975C368.837 6.22239 362.571 0 354.773 0Z" fill="#D9D9D9"/>
<path d="M224.44 13.3917H351.292" stroke="white" stroke-miterlimit="10" stroke-linecap="round" stroke-linejoin="round"/>
<path d="M224.44 23.9427H351.292" stroke="white" stroke-miterlimit="10" stroke-linecap="round" stroke-linejoin="round"/>
<path d="M224.44 34.3584H351.292" stroke="white" stroke-miterlimit="10" stroke-linecap="round" stroke-linejoin="round"/>
<path d="M135.74 246.866C198.955 246.866 250.2 197.084 250.2 135.675C250.2 74.2657 198.955 24.4836 135.74 24.4836C72.5262 24.4836 21.2809 74.2657 21.2809 135.675C21.2809 197.084 72.5262 246.866 135.74 246.866Z" stroke="#BBBFBD" stroke-miterlimit="10"/>
<path d="M242.959 135.675C242.959 174.497 221.098 208.45 188.514 226.306C184.894 228.335 181.134 230.093 177.235 231.716C164.425 236.992 150.5 239.833 135.74 239.833C134.766 239.833 133.791 239.833 132.816 239.833C132.259 239.833 131.563 239.833 131.006 239.697C130.588 239.697 130.171 239.697 129.753 239.697C129.057 239.697 128.5 239.697 127.803 239.562C127.525 239.562 127.246 239.562 126.968 239.562C126.272 239.562 125.436 239.427 124.74 239.427C123.905 239.291 123.069 239.291 122.234 239.156L148.69 201.957L78.2321 127.83L32.2812 163.946C31.8635 162.323 31.3065 160.565 31.028 158.941C30.8887 158.265 30.7495 157.589 30.6102 157.048C30.471 156.236 30.1925 155.289 30.0533 154.478C29.914 153.937 29.7748 153.395 29.7748 152.719C29.6355 151.907 29.4963 151.096 29.357 150.284C29.357 149.878 29.2178 149.337 29.2178 148.932C29.0785 148.255 29.0786 147.444 28.9393 146.767V146.361C28.8001 145.55 28.8001 144.873 28.6608 144.062C28.6608 143.25 28.5216 142.303 28.5216 141.492C28.5216 140.545 28.3823 139.733 28.3823 138.786C28.3823 137.839 28.3823 137.028 28.3823 136.081C28.3823 118.766 32.6989 102.534 40.3574 88.1956C56.3706 58.4364 86.726 36.9285 122.512 32.7352C126.829 32.1941 131.145 31.9236 135.601 31.9236C153.564 31.9236 170.552 36.2522 185.451 43.8273L138.943 80.0795L170.134 171.927L230.566 86.9782C238.364 101.452 242.959 118.09 242.959 135.675Z" fill="#99C6AB"/>
<path d="M40.2182 87.5192L78.0929 127.424L32.142 163.541C31.7243 161.917 31.1673 160.159 30.8888 158.536C30.7496 157.859 30.6103 157.183 30.4711 156.642C30.3318 155.83 30.0533 154.883 29.9141 154.072C29.7749 153.531 29.6356 152.99 29.6356 152.313C29.4964 151.502 29.3571 150.69 29.2179 149.878C29.2179 149.473 29.0786 148.931 29.0786 148.526C28.9394 147.849 28.9394 147.038 28.8001 146.361V145.956C28.6609 145.144 28.6609 144.468 28.5217 143.656C28.5217 142.844 28.3824 141.897 28.3824 141.086C28.3824 140.139 28.2432 139.327 28.2432 138.38C28.2432 137.434 28.2432 136.622 28.2432 135.675C28.2432 118.225 32.5598 101.993 40.2182 87.5192Z" fill="#7EAF92"/>
<path d="M176.957 231.581C164.146 236.857 150.222 239.697 135.462 239.697C134.487 239.697 133.512 239.697 132.538 239.697C131.981 239.697 131.285 239.697 130.728 239.562C130.31 239.562 129.892 239.562 129.474 239.562C128.778 239.562 128.221 239.562 127.525 239.427C127.246 239.427 126.968 239.427 126.689 239.427C125.993 239.427 125.158 239.291 124.461 239.291C123.626 239.156 122.791 239.156 121.955 239.021L148.412 201.822L176.957 231.581Z" fill="#7EAF92"/>
<path d="M185.312 43.2862L138.665 79.9441L122.373 32.1941C126.69 31.653 131.006 31.3824 135.462 31.3824C153.425 31.3824 170.413 35.7111 185.312 43.2862Z" fill="#7EAF92"/>
<path d="M242.681 135.54C242.681 174.362 220.819 208.315 188.236 226.17L169.716 171.792L230.149 86.8429C238.086 101.317 242.681 117.955 242.681 135.54Z" fill="#7EAF92"/>
<path d="M148.551 201.551L122.094 238.75C121.398 238.615 120.702 238.615 120.006 238.48C119.449 238.344 118.892 238.344 118.335 238.209C117.778 238.074 117.082 238.074 116.525 237.939C115.689 237.803 114.854 237.668 114.018 237.533C113.322 237.398 112.626 237.262 111.929 237.127C111.512 236.992 111.094 236.992 110.676 236.856C110.119 236.721 109.562 236.586 109.005 236.451C107.056 236.045 105.246 235.504 103.435 234.963C102.739 234.692 102.043 234.557 101.486 234.286C100.651 234.016 99.6759 233.745 98.8404 233.339C98.0049 233.069 97.1695 232.798 96.334 232.393C95.4985 232.122 94.663 231.716 93.9668 231.446C93.1313 231.175 92.4351 230.769 91.5996 230.499C90.7642 230.093 90.0679 229.822 89.2325 229.417C86.8653 228.334 84.4981 227.117 82.2702 225.9C81.574 225.494 80.8778 225.088 80.1815 224.682C78.6498 223.871 77.2574 222.924 75.8649 221.977C75.1687 221.571 74.4725 221.03 73.7763 220.489C73.08 219.948 72.3838 219.542 71.6876 219.001C71.6876 219.001 71.6876 219.001 71.5483 219.001C70.8521 218.46 70.2951 218.054 69.5989 217.513C69.0419 217.107 68.485 216.701 67.928 216.16C67.0925 215.484 66.257 214.808 65.5608 214.131C65.0038 213.59 64.3076 213.049 63.7506 212.643C63.1936 212.102 62.4974 211.561 61.9404 211.02L61.8012 210.885C61.2442 210.344 60.6872 209.803 59.991 209.262C59.434 208.72 59.0163 208.315 58.4593 207.774C57.7631 207.097 57.0668 206.421 56.3706 205.609C55.8136 204.933 55.2567 204.392 54.6997 203.715C54.2819 203.174 53.8642 202.769 53.4465 202.228C53.168 201.957 52.8895 201.686 52.7502 201.416C52.3325 200.875 51.9148 200.469 51.497 199.928C51.0793 199.387 50.5223 198.846 50.1046 198.169C49.5476 197.358 48.9906 196.681 48.4336 195.87C47.8767 195.194 47.4589 194.517 46.9019 193.841C46.6235 193.3 46.2057 192.894 45.9272 192.353C45.6487 192.082 45.5095 191.812 45.3702 191.406C44.5348 190.053 43.5601 188.701 42.7246 187.213C42.3069 186.536 41.8891 185.86 41.6106 185.184C40.7752 183.696 39.9397 182.072 39.1042 180.449C38.8257 179.773 38.408 179.096 38.1295 178.42C37.851 177.744 37.4333 176.932 37.1548 176.256V176.121C36.8763 175.309 36.4586 174.633 36.1801 173.821C36.1801 173.821 36.1801 173.821 36.1801 173.686C35.9016 172.874 35.6231 172.198 35.2054 171.386C34.9269 170.574 34.6484 169.898 34.3699 169.087C34.0914 168.41 33.9521 167.734 33.6737 167.057C33.5344 166.516 33.3952 165.975 33.1167 165.57C33.1167 165.57 33.1167 165.57 33.1167 165.434C32.9774 164.893 32.6989 164.217 32.5597 163.676L78.5106 127.559L148.551 201.551Z" fill="#649176"/>
<path d="M230.149 86.8428L169.716 171.792L138.525 79.9441L185.172 43.2861C204.388 53.1608 220.123 68.311 230.149 86.8428Z" fill="#649176"/>
<path d="M169.716 171.792L148.551 201.551L78.0928 127.424L138.664 79.9442L169.716 171.792Z" fill="#7EAF92"/>
<path d="M155.235 121.066L155.513 115.52L159.273 113.761C169.995 108.756 176.957 98.2055 176.957 86.5723C176.957 76.4271 173.615 66.6877 167.488 58.5716L163.311 53.0255L127.525 64.6587L127.803 77.7798H125.436C120.563 77.7798 116.664 81.5673 116.664 86.3018C116.664 91.0362 120.563 94.8237 125.436 94.8237H128.221L128.639 112.544V118.766C128.639 118.766 122.094 124.854 109.841 129.994C109.841 129.994 123.487 146.767 146.184 147.849C168.881 148.931 169.716 135.675 169.716 135.675C169.716 135.675 160.387 130.264 154.956 125.665L155.235 121.066Z" fill="#FF996A"/>
<path d="M155.652 115.52L155.374 121.066C154.399 120.931 153.424 120.796 152.45 120.66C136.437 117.82 130.171 103.752 130.728 96.447C130.588 96.447 136.019 113.897 155.652 115.52Z" fill="#D37A57"/>
<path d="M125.158 83.7317C125.854 84.2728 126.411 84.8139 126.689 85.7607C126.689 85.7607 125.297 86.1666 125.297 87.6545C125.158 89.1425 126.689 89.6836 126.689 89.6836C126.689 89.6836 125.436 91.7126 123.487 90.6304C121.398 89.5483 121.816 85.896 123.765 85.0844C123.765 85.0844 120.563 84.6786 119.449 85.896C119.449 85.896 119.17 84.8139 120.563 83.7317C121.816 82.6495 123.765 82.7848 125.158 83.7317Z" fill="#D37A57"/>
<path d="M154.817 73.4512C154.678 73.4512 154.399 73.5864 154.26 73.5864C151.197 76.1566 147.994 74.1275 147.994 74.1275C147.576 73.857 147.158 73.9923 146.88 74.3981C146.602 74.8039 146.741 75.2097 147.158 75.4802C148.551 76.4271 152.171 77.5093 155.513 74.8039C155.931 74.5333 155.931 73.9923 155.652 73.7217C155.374 73.5864 155.095 73.4512 154.817 73.4512Z" fill="#3F2D1F"/>
<path d="M173.615 75.4804C173.476 75.3451 173.197 75.3451 173.058 75.3451C169.02 76.0215 167.488 72.775 167.349 72.775C167.21 72.3692 166.653 72.2339 166.235 72.3692C165.817 72.5045 165.678 73.0455 165.817 73.4514C166.514 75.0746 169.02 77.78 173.337 76.9684C173.754 76.8331 174.033 76.4273 174.033 76.0215C174.033 75.7509 173.894 75.6157 173.615 75.4804Z" fill="#3F2D1F"/>
<path d="M154.399 83.1905C154.399 83.1905 154.399 86.3017 150.083 86.8428C145.766 87.3839 145.07 83.1905 145.07 83.1905C145.07 83.1905 147.437 81.0262 150.64 80.8909C153.703 80.7557 154.399 83.1905 154.399 83.1905Z" fill="white"/>
<path d="M173.894 83.1905C173.894 83.1905 173.894 86.3017 169.716 86.8428C165.539 87.3839 164.982 83.1905 164.982 83.1905C164.982 83.1905 167.21 81.0262 170.273 80.8909C173.197 80.7557 173.894 83.1905 173.894 83.1905Z" fill="white"/>
<path d="M164.982 83.1905C164.982 83.1905 167.21 80.7556 169.577 80.3498C171.944 79.944 173.615 81.0262 173.894 83.1905C173.894 83.1905 173.476 81.432 170.969 81.2967C168.602 81.0262 164.982 83.1905 164.982 83.1905Z" fill="#3F2D1F"/>
<path d="M145.07 83.1905C145.07 83.1905 147.437 80.7556 149.943 80.2146C152.45 79.8088 154.121 80.8909 154.399 83.1905C154.399 83.1905 153.842 81.432 151.336 81.1615C148.829 80.8909 145.07 83.1905 145.07 83.1905Z" fill="#3F2D1F"/>
<path d="M160.805 83.1907L162.754 94.6886C162.754 94.6886 164.286 94.8238 166.514 94.0122C166.514 94.0122 161.362 84.5434 160.805 83.1907Z" fill="#D37A57"/>
<path d="M147.576 84.0022C147.576 85.7607 148.829 87.2487 150.222 87.2487C151.754 87.2487 152.867 85.7607 152.867 84.0022C152.867 82.2437 151.614 80.7557 150.222 80.7557C148.829 80.6205 147.576 82.1084 147.576 84.0022Z" fill="#3F2D1F"/>
<path d="M166.375 84.0022C166.375 85.7607 167.488 87.2487 169.02 87.2487C170.413 87.2487 171.666 85.7607 171.666 84.0022C171.666 82.2437 170.552 80.7557 169.02 80.7557C167.488 80.891 166.375 82.2437 166.375 84.0022Z" fill="#3F2D1F"/>
<path d="M142.285 94.6885C144.438 94.6885 146.184 93.5378 146.184 92.1183C146.184 90.6989 144.438 89.5482 142.285 89.5482C140.132 89.5482 138.386 90.6989 138.386 92.1183C138.386 93.5378 140.132 94.6885 142.285 94.6885Z" fill="#D37A57"/>
<path d="M174.311 93.471C176.465 93.471 178.21 92.3204 178.21 90.9009C178.21 89.4815 176.465 88.3308 174.311 88.3308C172.158 88.3308 170.412 89.4815 170.412 90.9009C170.412 92.3204 172.158 93.471 174.311 93.471Z" fill="#D37A57"/>
<path d="M162.336 99.1525C162.336 99.1525 156.07 99.423 153.425 101.587C150.779 103.752 160.248 104.563 162.336 103.616C164.286 102.805 165.121 98.882 162.336 99.1525Z" fill="white"/>
<path d="M146.88 81.8379C146.88 81.8379 145.627 82.379 144.234 81.5674C144.234 81.5674 144.374 82.7848 145.07 83.0553L146.88 81.8379Z" fill="#3F2D1F"/>
<path d="M172.501 81.0262C172.501 81.0262 174.033 82.2437 175.147 81.8379C175.565 81.7026 174.033 83.0553 174.033 83.0553C173.476 81.8379 172.501 81.0262 172.501 81.0262Z" fill="#3F2D1F"/>
<path d="M180.995 142.168C180.995 142.168 201.046 177.879 208.705 207.638L187.957 219.407C187.957 219.407 179.742 203.445 176.957 178.961C174.172 154.477 180.995 142.168 180.995 142.168Z" fill="#847062"/>
<path d="M169.716 61.6828C169.716 61.6828 149.665 80.0794 131.284 78.0504C131.284 78.0504 129.335 91.0363 132.677 95.9059C132.677 95.9059 131.284 97.2586 129.335 92.1184C127.386 86.9782 128.917 79.8089 127.943 77.6446C127.943 77.6446 121.816 76.2919 117.778 82.2437C113.74 88.3309 122.512 95.6354 128.36 94.5533L128.639 105.645C128.639 105.645 122.094 108.08 116.524 103.481C110.955 98.8819 113.74 94.1474 113.74 94.1474C113.74 94.1474 105.385 86.0313 104.967 74.9392C104.549 63.8471 114.157 56.6778 114.157 56.6778C114.157 56.6778 117.36 40.0397 138.386 39.9044C159.412 39.7692 165.539 45.8563 165.539 45.8563C165.539 45.8563 179.185 48.1559 182.944 62.0886C186.843 76.1566 177.096 83.5964 177.096 83.5964C177.096 83.5964 174.172 65.8762 169.716 61.6828Z" fill="#3F2D1F"/>
<path d="M117.499 54.9193C117.499 54.9193 116.524 42.8803 104.689 43.4214C92.9921 43.9625 90.6249 56.9483 95.777 63.0354C100.929 69.1226 107.613 67.7699 112.486 63.0354C117.499 58.301 117.499 54.9193 117.499 54.9193Z" fill="#3F2D1F"/>
<path d="M132.816 102.264L125.436 117.278C125.158 117.819 124.461 117.955 124.044 117.549L123.765 117.278L99.5365 99.017C99.1188 98.7465 98.9796 98.2054 99.258 97.7996L107.613 82.92L107.752 82.5142C108.03 81.9731 108.727 81.8378 109.144 82.2436L132.538 100.911C132.955 101.317 132.955 101.858 132.816 102.264Z" fill="white"/>
<path d="M183.919 228.605C169.438 235.775 153.007 239.697 135.74 239.697C121.398 239.697 107.891 236.992 95.3592 231.987L87.4222 143.791C87.4222 143.791 89.0932 137.704 98.7011 134.187C109.701 130.264 109.841 129.723 109.841 129.723C151.893 150.284 169.716 135.405 169.716 135.405L179.046 140.004C180.02 140.41 180.716 141.221 181.134 142.168C183.362 147.308 190.603 164.893 191.299 176.932C191.717 186.672 187.122 212.643 183.919 228.605Z" fill="#9C897A"/>
<path d="M92.0173 137.839C92.0173 137.839 81.7131 141.762 78.0928 167.869C74.3331 193.976 78.3713 207.774 78.3713 207.774L98.7011 184.237C98.7011 184.237 105.803 148.12 92.0173 137.839Z" fill="#9C897A"/>
<path d="M122.512 99.6934C120.563 100.776 115.411 104.293 114.575 105.781C114.157 106.457 114.018 107.268 113.879 107.945L112.626 107.268C113.322 104.563 114.436 101.858 114.436 101.858C114.436 101.858 116.525 100.776 117.639 99.2876C118.753 97.6644 118.335 96.4469 118.335 96.4469C117.499 96.8527 116.246 97.6644 114.993 98.6112C114.993 98.6112 114.993 98.6112 114.993 98.476C116.107 96.8527 115.689 95.6353 115.689 95.6353C113.6 96.7175 108.309 100.37 107.474 101.858C106.917 102.669 106.777 103.616 106.777 104.293L106.36 104.157C106.917 101.317 108.309 98.3407 108.309 98.3407C108.309 98.3407 110.398 97.2585 111.512 95.7706C112.626 94.1474 112.208 92.9299 112.208 92.9299C110.119 94.0121 104.828 97.6644 103.993 99.1523C103.018 100.64 103.296 102.669 103.296 102.669L103.993 115.655L104.689 129.858C104.689 129.858 77.8145 189.783 78.093 204.392C78.3715 219.001 87.4224 224.818 87.4224 224.818C87.4224 224.818 97.0303 223.735 103.157 214.537C109.284 205.339 114.993 134.999 114.993 134.999C114.993 134.999 118.196 130.264 118.753 125.665C119.31 121.066 117.221 109.568 117.221 109.568C117.917 107.268 118.892 104.969 118.892 104.969C118.892 104.969 120.841 103.887 121.955 102.399C122.93 100.911 122.512 99.6934 122.512 99.6934Z" fill="#FF996A"/>
<path d="M132.816 102.264L125.436 117.278C125.158 117.819 124.461 117.955 124.044 117.549L123.765 117.278L131.284 101.587L107.613 82.92L107.752 82.5142C108.031 81.9731 108.727 81.8378 109.144 82.2436L132.538 100.911C132.955 101.317 132.955 101.858 132.816 102.264Z" fill="#D9D9D9"/>
<path d="M107.474 86.0312L106.499 87.925L111.512 91.9831L112.765 90.0893L107.474 86.0312Z" fill="#D9D9D9"/>
<path d="M255.073 145.144L249.364 146.226L249.225 145.685C250.896 145.144 254.795 143.656 256.327 141.356C258.415 138.38 259.111 135.54 259.111 135.54C259.111 135.54 255.63 137.298 254.238 140.68L251.592 141.221C252.706 140.545 253.681 139.733 254.377 138.921C256.466 135.946 257.162 133.105 257.162 133.105C257.162 133.105 253.681 134.863 252.288 138.245L248.807 138.921C250.2 137.839 251.732 136.487 252.288 134.863C253.681 131.617 253.681 128.641 253.681 128.641C253.681 128.641 250.618 131.076 250.061 134.728L246.301 136.216L229.87 141.221L230.009 138.921C230.009 138.921 230.566 138.516 232.376 137.298C234.187 136.081 236.275 130.535 236.275 130.535C236.275 130.535 227.642 134.458 225.553 138.786C223.465 143.115 221.515 153.801 221.515 153.801C221.515 153.801 201.742 199.928 198.261 212.779C198.261 212.779 191.438 215.349 188.236 219.677C188.236 219.677 195.198 231.987 200.629 233.204C200.629 233.204 216.502 230.228 224.022 212.237C231.541 194.247 234.604 157.859 234.604 157.859L250.478 149.472C250.478 149.472 255.213 148.12 256.884 145.685C258.555 143.25 259.111 140.951 259.111 140.951C259.111 140.951 256.187 142.303 255.073 145.144Z" fill="#FF996A"/>
<path d="M184.337 197.493C184.337 197.493 175.008 195.735 159.134 195.735C143.26 195.735 127.246 198.575 127.246 198.575" stroke="#847062" stroke-miterlimit="10" stroke-linecap="round" stroke-linejoin="round"/>
<path d="M167.628 50.8612C167.628 50.8612 170.134 55.4604 169.995 58.5716" stroke="#543E2F" stroke-miterlimit="10" stroke-linecap="round" stroke-linejoin="round"/>
<path d="M163.729 47.3444C163.729 47.3444 153.285 50.5908 147.576 58.5717" stroke="#543E2F" stroke-miterlimit="10" stroke-linecap="round" stroke-linejoin="round"/>
<path d="M115.55 52.4844C115.55 52.4844 113.879 56.1367 113.74 57.4893C113.74 57.4893 108.17 62.4943 107.474 65.4702" stroke="#543E2F" stroke-miterlimit="10" stroke-linecap="round" stroke-linejoin="round"/>
<path d="M94.6631 66.1467C95.0808 66.4173 100.511 70.4754 106.22 67.0936" stroke="#543E2F" stroke-miterlimit="10" stroke-linecap="round" stroke-linejoin="round"/>
<path d="M122.373 50.8612C122.373 50.8612 135.323 39.3634 156.627 45.4505" stroke="#543E2F" stroke-miterlimit="10" stroke-linecap="round" stroke-linejoin="round"/>
<path d="M125.018 74.6688C125.018 74.6688 130.588 76.8331 142.424 74.6688C154.26 72.5045 164.982 60.7361 164.982 60.7361" stroke="#543E2F" stroke-miterlimit="10" stroke-linecap="round" stroke-linejoin="round"/>
<path d="M120.145 137.839C120.145 137.839 136.297 144.332 152.868 143.386C169.438 142.439 171.526 139.463 171.526 139.463" stroke="#847062" stroke-miterlimit="10" stroke-linecap="round" stroke-linejoin="round"/>
</svg>
