<svg width="19" height="19" viewBox="0 0 19 19" fill="none" xmlns="http://www.w3.org/2000/svg">
<g clip-path="url(#clip0_223_607)">
<path d="M17.1482 1.79688H1.50631C0.855166 1.79688 0.327271 2.32477 0.327271 2.97591V12.8798C0.327271 13.531 0.855166 14.0589 1.50631 14.0589H6.69801L8.42499 16.1121C8.64901 16.3784 8.97926 16.5322 9.32731 16.5322C9.67536 16.5322 10.0056 16.3785 10.2296 16.1121L11.9566 14.0589H17.1482C17.7994 14.0589 18.3273 13.531 18.3273 12.8799V2.97595C18.3273 2.32473 17.7994 1.79688 17.1482 1.79688ZM3.68368 5.1558H9.06796C9.39353 5.1558 9.65748 5.41975 9.65748 5.74532C9.65748 6.07089 9.39353 6.33484 9.06796 6.33484H3.68368C3.35811 6.33484 3.09416 6.07089 3.09416 5.74532C3.09416 5.41975 3.35811 5.1558 3.68368 5.1558ZM14.9474 9.95056H3.70718C3.38161 9.95056 3.11766 9.68661 3.11766 9.36104C3.11766 9.03547 3.38161 8.77152 3.70718 8.77152H14.9474C15.2729 8.77152 15.5369 9.03547 15.5369 9.36104C15.5369 9.68661 15.2729 9.95056 14.9474 9.95056Z" fill="white"/>
</g>
<defs>
<clipPath id="clip0_223_607">
<rect width="18" height="18" fill="white" transform="translate(0.327271 0.164062)"/>
</clipPath>
</defs>
</svg>
