<svg width="36" height="36" viewBox="0 0 36 36" fill="none" xmlns="http://www.w3.org/2000/svg">
<path fill-rule="evenodd" clip-rule="evenodd" d="M9 12C9 7.02944 13.0294 3 18 3C22.9705 3 27 7.02944 27 12C27 16.9705 22.9705 21 18 21C13.0294 21 9 16.9705 9 12Z" fill="#9DAFC6"/>
<path fill-rule="evenodd" clip-rule="evenodd" d="M8.1464 25.3538C10.5838 24.332 13.8349 24 18 24C22.1565 24 25.4026 24.3306 27.8379 25.3471C30.4518 26.4382 32.0562 28.292 32.9115 30.9881C33.2292 31.9901 32.4777 33 31.4388 33H4.55188C3.51722 33 2.77018 31.9945 3.08534 30.9981C3.93805 28.3021 5.53678 26.4477 8.1464 25.3538Z" fill="#9DAFC6"/>
</svg>
