<svg width="400" height="572" viewBox="0 0 400 572" fill="none" xmlns="http://www.w3.org/2000/svg">
<path d="M144.681 25.3191C144.681 25.3191 144.602 25.3191 144.455 25.229L143.8 24.8941L141.334 23.6063L132.293 18.4549L102.537 1.39088L101.509 0.798468H101.724L72.5653 17.2057L63.7588 22.0738L61.3517 23.3616C61.0774 23.5273 60.7926 23.6609 60.5004 23.7608C60.7614 23.56 61.0328 23.3836 61.3126 23.2328L63.6708 21.8162L72.4772 16.6648L101.568 0.0643915L101.676 0L101.783 0.0643915L102.811 0.656804L132.498 17.914L141.481 23.2199L143.907 24.6881L144.534 25.0873C144.587 25.1601 144.636 25.2376 144.681 25.3191Z" fill="#E0E0E0"/>
<path d="M191.091 19.7041H0V208.026H191.091V19.7041Z" fill="#E0E0E0"/>
<path d="M185.132 28.4619H6.68304V200.287H185.132V28.4619Z" fill="#FAFAFA"/>
<path d="M46.097 103.568C46.097 103.568 46.2829 132.416 47.3984 141.212L74.8844 139.499C74.8844 139.499 72.4675 111.167 73.397 103.568H46.097Z" fill="#E0E0E0"/>
<path d="M59.6297 107.613C59.6297 107.613 59.6297 107.613 59.7373 107.613H60.0309C60.4135 107.594 60.7966 107.62 61.1757 107.69C61.7808 107.809 62.3704 108.039 62.9272 108.373C63.6579 108.853 64.3044 109.528 64.8255 110.356C65.4584 111.375 65.9098 112.567 66.1465 113.846C66.3573 115.343 66.2559 116.888 65.8529 118.315C65.6462 119.086 65.3875 119.832 65.0799 120.543C64.7766 121.277 64.4635 121.998 64.1993 122.797C63.65 124.438 63.2778 126.171 63.0936 127.948V128.064H63.0055L60.2951 128.128H57.4476H57.3498V128.038C57.2311 126.272 56.7805 124.573 56.0386 123.093C55.7059 122.359 55.3439 121.663 55.0014 120.955C54.6589 120.247 54.3067 119.667 54.0229 118.882C53.5154 117.516 53.3641 115.968 53.5924 114.477C53.7488 113.191 54.1089 111.962 54.6491 110.871C55.119 109.997 55.7306 109.271 56.4398 108.746C56.9692 108.364 57.5353 108.079 58.1228 107.896C58.4924 107.776 58.8687 107.694 59.2481 107.652H59.5416C59.6101 107.652 59.6395 107.652 59.6395 107.652H59.5416H59.2481C58.8748 107.711 58.5053 107.806 58.1424 107.935C57.5638 108.134 57.0077 108.432 56.4887 108.823C55.8017 109.343 55.213 110.061 54.7666 110.923C54.2574 112.001 53.9241 113.207 53.7881 114.464C53.5746 115.909 53.7257 117.406 54.2186 118.727C54.5185 119.431 54.8451 120.114 55.1971 120.775C55.5298 121.457 55.9016 122.166 56.2343 122.913C56.9994 124.429 57.4636 126.173 57.5846 127.987L57.4868 127.845H60.3342H63.0446L62.9468 127.974C63.1391 126.174 63.5211 124.419 64.0819 122.758C64.346 121.96 64.6689 121.2 64.9723 120.479C65.2838 119.786 65.5396 119.052 65.7355 118.289C66.1343 116.878 66.2258 115.348 65.9997 113.872C65.7785 112.624 65.3471 111.458 64.7374 110.459C64.2339 109.643 63.6076 108.972 62.8979 108.489C62.3553 108.147 61.7788 107.909 61.1855 107.78C60.8097 107.705 60.4305 107.662 60.0504 107.652H59.6493L59.6297 107.613Z" fill="white"/>
<path d="M61.0484 127.704C61.0464 127.665 61.0464 127.626 61.0484 127.588V127.253C61.0484 126.957 60.9603 126.519 60.8918 125.965C60.7744 124.845 60.5885 123.209 60.4613 121.187C60.4613 120.685 60.4613 120.157 60.3928 119.603C60.3243 119.049 60.3928 118.47 60.3928 117.864C60.4067 117.242 60.5131 116.63 60.7059 116.061C60.9103 115.445 61.2843 114.952 61.7529 114.683C62.0027 114.545 62.2779 114.507 62.5442 114.573C62.8104 114.64 63.0559 114.808 63.25 115.057C63.3509 115.186 63.4313 115.34 63.4867 115.51C63.5422 115.68 63.5714 115.863 63.5729 116.049C63.5638 116.423 63.4644 116.784 63.2892 117.079C63.1165 117.385 62.8875 117.629 62.6238 117.787C62.3657 117.949 62.0927 118.066 61.8116 118.135C61.242 118.296 60.6622 118.387 60.0797 118.405C59.4944 118.432 58.9085 118.393 58.3282 118.289C58.0442 118.24 57.7673 118.136 57.5062 117.98C57.2448 117.828 57.0088 117.609 56.8115 117.336C56.6149 117.067 56.4764 116.734 56.4103 116.37C56.3533 116.005 56.3877 115.626 56.5082 115.289C56.6239 114.957 56.83 114.695 57.0855 114.555C57.3362 114.419 57.6176 114.419 57.8683 114.555C58.1055 114.7 58.3083 114.927 58.4554 115.211C58.5927 115.485 58.6891 115.791 58.7391 116.113C58.8305 116.72 58.8796 117.336 58.8859 117.955C58.8859 119.139 58.974 120.247 59.0131 121.264C59.0914 123.286 59.1501 124.922 59.199 126.068C59.199 126.622 59.199 127.06 59.199 127.356V127.691C59.2012 127.729 59.2012 127.768 59.199 127.807C59.1948 127.768 59.1948 127.729 59.199 127.691C59.199 127.613 59.199 127.498 59.199 127.356C59.199 127.214 59.199 126.622 59.1305 126.068C59.1305 124.935 59.0131 123.286 58.9251 121.264C58.9251 120.26 58.837 119.152 58.7783 117.955C58.7705 117.341 58.7247 116.729 58.6413 116.126C58.5857 115.819 58.4897 115.527 58.3575 115.263C58.2159 115.001 58.0278 114.789 57.8096 114.645C57.5771 114.523 57.318 114.523 57.0855 114.645C56.8482 114.772 56.6585 115.017 56.5571 115.327C56.4366 115.637 56.402 115.992 56.4592 116.332C56.5231 116.676 56.6547 116.991 56.8409 117.246C57.2419 117.762 57.7615 118.088 58.3184 118.173C59.4655 118.362 60.6281 118.31 61.7627 118.019C62.0402 117.948 62.3098 117.831 62.5651 117.671C62.8102 117.514 63.0245 117.285 63.1913 117.002C63.3571 116.726 63.4499 116.387 63.4555 116.036C63.4584 115.865 63.4338 115.695 63.3832 115.537C63.3326 115.379 63.2572 115.238 63.1619 115.121C62.9785 114.889 62.7479 114.731 62.4979 114.667C62.2479 114.603 61.9892 114.636 61.7529 114.761C61.322 115.025 60.9756 115.481 60.7744 116.049C60.5852 116.609 60.4789 117.213 60.4613 117.826C60.4613 118.418 60.4613 118.998 60.4613 119.539C60.4613 120.079 60.4613 120.62 60.52 121.136C60.6374 123.157 60.8136 124.78 60.931 125.901C60.931 126.467 61.0288 126.892 61.0582 127.188V127.523C61.0445 127.582 61.0411 127.643 61.0484 127.704Z" fill="white"/>
<path d="M57.428 127.896C57.428 127.896 57.428 128.347 57.4965 129.094C57.565 129.841 57.5748 131.013 57.6237 132.224V132.146L59.473 134.954H59.385L61.5181 134.799H61.43L62.4966 133.086L63.025 132.224V132.339C63.025 130.691 62.9663 129.12 62.9369 127.703L63.0543 127.845H59.0621H57.4769C57.6038 127.828 57.7316 127.828 57.8585 127.845L58.9838 127.768L63.0543 127.562H63.162V127.716C63.162 129.146 63.2305 130.704 63.2598 132.352L62.7314 133.202L61.6649 134.915L59.522 135.057H59.4633L57.653 132.211C57.653 130.923 57.653 129.893 57.653 128.991C57.5559 128.635 57.4806 128.269 57.428 127.896Z" fill="white"/>
<path d="M62.9467 131.966L62.7412 131.85C62.5598 131.74 62.3736 131.646 62.1834 131.566C61.5554 131.277 60.8914 131.145 60.2264 131.18C59.5707 131.205 58.924 131.389 58.3184 131.721C58.134 131.818 57.9543 131.93 57.7802 132.056L57.5747 132.185C57.6277 132.113 57.6909 132.056 57.7606 132.017C57.9305 131.878 58.107 131.753 58.289 131.644C58.9069 131.287 59.5714 131.09 60.246 131.064C60.9127 131.046 61.5762 131.19 62.203 131.489C62.3908 131.58 62.5739 131.688 62.751 131.811C62.8197 131.854 62.8852 131.906 62.9467 131.966Z" fill="white"/>
<path d="M62.9467 130.845L62.7412 130.729C62.614 130.652 62.4281 130.549 62.1834 130.433C60.9336 129.865 59.5688 129.92 58.3477 130.588C58.1129 130.716 57.927 130.832 57.7998 130.923C57.6726 131.013 57.6138 131.064 57.6041 131.051L57.79 130.884C57.9593 130.747 58.1359 130.627 58.3184 130.523C58.9348 130.16 59.6002 129.963 60.2754 129.944C60.9429 129.908 61.6089 130.053 62.2324 130.369C62.424 130.458 62.6104 130.566 62.7901 130.691C62.8461 130.735 62.8985 130.787 62.9467 130.845Z" fill="white"/>
<path d="M62.8977 129.764C62.8977 129.764 62.8195 129.764 62.6923 129.661C62.5651 129.558 62.3791 129.48 62.1345 129.365C61.505 129.082 60.8422 128.952 60.1775 128.978C59.5051 128.994 58.841 129.178 58.2205 129.519C57.9857 129.648 57.7998 129.764 57.6726 129.854C57.6128 129.91 57.5468 129.953 57.4769 129.983L57.6628 129.815C57.8299 129.673 58.0068 129.553 58.1912 129.455C58.8079 129.091 59.4727 128.89 60.1482 128.862C60.8149 128.842 61.4787 128.986 62.1052 129.287C62.2934 129.382 62.4765 129.494 62.6531 129.622L62.8977 129.764Z" fill="white"/>
<path d="M15.4798 56.3696C15.4798 56.3696 15.6657 85.2175 16.7812 94.0135L44.2672 92.3135C44.2672 92.3135 41.8503 63.9808 42.7799 56.3696H15.4798Z" fill="#EBEBEB"/>
<path d="M38.6016 68.4877C35.551 69.0838 32.4766 69.445 29.394 69.5695C26.3233 69.9346 23.2391 70.0636 20.157 69.9558C23.207 69.3512 26.2816 68.9857 29.3646 68.8612C32.4356 68.5037 35.5197 68.379 38.6016 68.4877Z" fill="white"/>
<path d="M38.6506 74.6057C35.5992 75.1933 32.5251 75.5545 29.4429 75.6875C26.3719 76.0449 23.2878 76.1696 20.2059 76.0609C23.2565 75.4649 26.331 75.1037 29.4136 74.9792C32.4842 74.6139 35.5687 74.4892 38.6506 74.6057Z" fill="white"/>
<path d="M33.9733 80.5938C32.2535 81.0903 30.499 81.3492 28.7384 81.3665C26.9849 81.6011 25.2178 81.6011 23.4643 81.3665C25.1883 80.8771 26.9455 80.6182 28.709 80.5938C30.4593 80.3594 32.2231 80.3594 33.9733 80.5938Z" fill="white"/>
<path d="M14.1393 141.238C14.1393 141.238 14.3252 170.073 15.4407 178.882L42.9267 177.169C42.9267 177.169 40.5098 148.837 41.4393 141.238H14.1393Z" fill="#EBEBEB"/>
<path d="M37.3395 153.357C34.2882 153.946 31.2141 154.307 28.1318 154.439C25.0608 154.796 21.9767 154.921 18.8948 154.812C21.9454 154.216 25.0199 153.855 28.1025 153.731C31.1728 153.357 34.2576 153.233 37.3395 153.357Z" fill="white"/>
<path d="M37.3491 159.462C34.2985 160.057 31.224 160.418 28.1415 160.544C25.0708 160.909 21.9864 161.034 18.9045 160.917C21.9551 160.321 25.0295 159.96 28.1121 159.835C31.1831 159.478 34.2672 159.353 37.3491 159.462Z" fill="white"/>
<path d="M32.672 165.463C30.9512 165.952 29.1973 166.211 27.437 166.236C25.6834 166.467 23.9166 166.467 22.1629 166.236C23.8868 165.748 25.6443 165.493 27.4076 165.476C29.1576 165.238 30.9214 165.233 32.672 165.463Z" fill="white"/>
<path d="M89.2976 64.019L92.0178 147.214L170.934 148.463L167.391 65.1137L89.2976 64.019Z" fill="#EBEBEB"/>
<path d="M166.775 63.4263H88.3876V141.328H166.775V63.4263Z" fill="#F5F5F5"/>
<path d="M166.785 141.329C166.785 141.329 166.785 140.827 166.785 139.874C166.785 138.921 166.785 137.53 166.785 135.727C166.785 132.07 166.785 126.712 166.736 119.964C166.736 106.377 166.667 86.9435 166.618 63.4274L166.834 63.7107H88.4561L88.7203 63.363C88.7203 91.3737 88.7203 117.903 88.7203 141.265L88.4756 140.943L145.013 141.098L161.09 141.188H165.366H166.472H166.853H166.501H165.425H161.198L145.17 141.265L88.4756 141.42H88.231V141.098C88.231 117.736 88.231 91.2063 88.231 63.1956V62.835H88.505H166.883H167.108V63.1312C167.059 86.7246 167.02 106.223 166.99 119.797C166.99 126.558 166.99 131.851 166.932 135.495C166.932 137.273 166.932 138.638 166.932 139.591C166.932 140.544 166.785 141.329 166.785 141.329Z" fill="#E0E0E0"/>
<path d="M129.612 79.9233H97.8398V132.558H129.612V79.9233Z" fill="#F5F5F5"/>
<path d="M129.602 132.558C129.598 132.468 129.598 132.378 129.602 132.288V131.541C129.602 130.845 129.602 129.892 129.602 128.669C129.602 126.093 129.602 122.474 129.533 117.864C129.533 108.604 129.465 95.4938 129.416 79.9237L129.651 80.2457H97.879C97.8203 80.3229 98.3878 79.576 98.153 79.898V83.5039C98.153 84.7145 98.153 85.9122 98.153 87.1099V94.206C98.153 98.8809 98.153 103.44 98.153 107.857C98.153 116.705 98.153 124.986 98.153 132.507L97.9279 132.21L120.932 132.365L127.39 132.442H129.103C129.494 132.442 129.7 132.442 129.7 132.442C129.517 132.461 129.334 132.461 129.152 132.442H127.479L121.079 132.52L97.9279 132.674H97.7029V132.378C97.7029 124.857 97.7029 116.576 97.7029 107.728C97.7029 103.311 97.7029 98.7134 97.7029 94.0772V79.9495L97.9769 79.5889H129.749H129.993V79.898C129.993 95.5582 129.905 108.733 129.876 118.044C129.876 122.629 129.876 126.248 129.807 128.772C129.807 129.974 129.807 130.914 129.807 131.592C129.807 131.876 129.807 132.12 129.807 132.301C129.807 132.481 129.602 132.571 129.602 132.558Z" fill="#E0E0E0"/>
<path d="M159.945 67.8823H99.0532V75.4678H159.945V67.8823Z" fill="#F5F5F5"/>
<path d="M159.935 75.4684C159.921 75.2972 159.921 75.1245 159.935 74.9533C159.935 74.5798 159.935 74.0904 159.935 73.4723C159.935 72.1844 159.935 70.2913 159.877 67.883L159.984 68.0247C149.71 68.1534 126.304 68.2436 99.0923 68.2436L99.3663 67.883V75.4427L99.0923 75.0821L142.224 75.2366L155.18 75.3397H158.702H159.622H159.955H159.661H158.771H155.307L142.42 75.4427L99.0531 75.5843H98.7889V67.9088L99.0531 67.561C126.265 67.561 149.671 67.6383 159.945 67.7671H160.053V67.9088C160.053 70.3557 160.033 72.2488 159.994 73.5882C159.994 74.1935 159.994 74.6571 159.994 75.0306C159.994 75.404 159.935 75.4813 159.935 75.4684Z" fill="#E0E0E0"/>
<path d="M159.955 79.9233H133.506V111.643H159.955V79.9233Z" fill="#F5F5F5"/>
<path d="M159.935 111.644C159.924 111.442 159.924 111.24 159.935 111.038V109.313C159.935 107.767 159.935 105.591 159.877 102.873C159.877 97.297 159.808 89.4153 159.759 79.9496L159.994 80.2587H133.575L133.839 79.911V96.6531C133.839 101.972 133.839 106.956 133.839 111.669L133.516 111.296L152.597 111.45L158.008 111.541H159.446H159.965C159.812 111.559 159.658 111.559 159.505 111.541H158.105L152.743 111.618L133.516 111.785H133.281V111.463C133.281 106.814 133.281 101.766 133.281 96.447V88.4495C133.281 87.0586 133.281 85.6419 133.281 84.2253V79.9368L133.555 79.5762H159.974H160.199V79.8724C160.151 89.4153 160.111 97.3614 160.082 103.054C160.082 105.758 160.082 107.909 160.023 109.493C160.023 110.18 160.023 110.734 160.023 111.154C160.008 111.321 159.978 111.485 159.935 111.644Z" fill="#E0E0E0"/>
<path d="M159.955 116.615H133.506V132.558H159.955V116.615Z" fill="#F5F5F5"/>
<path d="M159.935 132.559C159.913 132.173 159.913 131.785 159.935 131.4V128.206C159.935 125.385 159.867 121.457 159.828 116.615L160.023 116.873L133.604 116.976C133.359 117.298 133.927 116.538 133.868 116.628V124.806C133.868 127.472 133.868 130.06 133.868 132.533L133.614 132.198L152.528 132.353L158.037 132.456H159.524H160.062C159.903 132.474 159.743 132.474 159.583 132.456H158.154L152.694 132.546L133.614 132.7H133.359V132.366C133.359 129.893 133.359 127.304 133.359 124.638C133.359 123.351 133.359 121.96 133.359 120.582V116.461C133.301 116.461 133.878 115.778 133.633 116.1L160.053 116.19H160.248V116.435C160.199 121.342 160.17 125.334 160.141 128.18C160.141 129.468 160.141 130.537 160.092 131.322C160.065 131.739 160.012 132.153 159.935 132.559Z" fill="#E0E0E0"/>
<path d="M128.829 80.0142C118.995 97.9024 107.674 114.683 97.8398 132.558L128.829 80.0142Z" fill="white"/>
<path d="M97.8398 132.559C97.9049 132.349 97.994 132.153 98.104 131.979L98.926 130.369C99.6598 128.978 100.746 127.008 102.106 124.6C104.846 119.757 108.75 113.215 113.124 106.068C117.498 98.92 121.451 92.4292 124.259 87.677L127.567 82.0491L128.477 80.5166C128.692 80.1817 128.809 80.0014 128.829 80.0143C128.763 80.2276 128.674 80.4272 128.565 80.6067C128.34 81.0446 128.075 81.5726 127.743 82.2037C127.009 83.5945 125.923 85.565 124.563 87.9861C121.833 92.8156 117.919 99.3578 113.545 106.518C109.171 113.679 105.218 120.144 102.409 124.896L99.1021 130.537C98.7303 131.142 98.4367 131.644 98.1921 132.056C97.9475 132.468 97.8594 132.571 97.8398 132.559Z" fill="#E0E0E0"/>
<path d="M129.602 132.558C129.484 132.687 122.283 120.968 113.506 106.466C104.729 91.9653 97.7127 80.0527 97.8497 79.9239C97.9867 79.7951 105.169 91.5146 113.946 106.029C122.723 120.543 129.729 132.442 129.602 132.558Z" fill="#E0E0E0"/>
<path d="M92.0178 80.0398C92.0178 81.3338 91.7263 82.5987 91.1801 83.6745C90.6339 84.7504 89.8576 85.5889 88.9493 86.0841C88.041 86.5793 87.0415 86.7088 86.0773 86.4564C85.1131 86.204 84.2274 85.5809 83.5322 84.6659C82.837 83.751 82.3636 82.5853 82.1718 81.3162C81.98 80.0471 82.0784 78.7317 82.4547 77.5362C82.8309 76.3408 83.468 75.319 84.2854 74.6001C85.1029 73.8813 86.0639 73.4976 87.0471 73.4976C88.3654 73.4976 89.6297 74.1868 90.5619 75.4138C91.4941 76.6407 92.0178 78.3047 92.0178 80.0398Z" fill="#E0E0E0"/>
<path d="M173.321 64.1604C173.321 65.4544 173.03 66.7193 172.483 67.7951C171.937 68.871 171.161 69.7095 170.253 70.2047C169.344 70.6999 168.345 70.8295 167.381 70.577C166.416 70.3246 165.531 69.7015 164.835 68.7865C164.14 67.8716 163.667 66.7059 163.475 65.4368C163.283 64.1677 163.382 62.8523 163.758 61.6568C164.134 60.4614 164.771 59.4396 165.589 58.7207C166.406 58.0019 167.367 57.6182 168.35 57.6182C169.669 57.6182 170.933 58.3074 171.865 59.5344C172.797 60.7613 173.321 62.4253 173.321 64.1604Z" fill="#E0E0E0"/>
<path d="M317.571 517.819V547.143H313.853V550.337H317.571V569.964H387.113V552.101H381.966V548.238H387.113V542.404H389.403V539.751H386.682V517.857L317.571 517.819Z" fill="#F5F5F5"/>
<path d="M368.649 517.909V569.629H387.113V551.767H381.966V548.212L387.113 548.328V542.494H389.452L389.403 539.48L386.682 539.39V517.819L368.649 517.909Z" fill="#E0E0E0"/>
<path d="M369.96 549.912C369.96 550.092 357.376 550.234 341.857 550.234C326.338 550.234 313.755 550.092 313.755 549.912C313.755 549.732 326.338 549.59 341.857 549.59C357.376 549.59 369.96 549.732 369.96 549.912Z" fill="#E0E0E0"/>
<path d="M373.571 538.862C373.571 539.042 360.987 539.184 345.468 539.184C329.949 539.184 317.366 539.042 317.366 538.862C317.366 538.682 329.949 538.54 345.468 538.54C360.987 538.54 373.571 538.733 373.571 538.862Z" fill="#E0E0E0"/>
<path d="M373.923 560.756C373.923 560.936 361.339 561.09 345.82 561.09C330.301 561.09 317.708 560.936 317.708 560.756C317.708 560.575 330.292 560.434 345.82 560.434C361.349 560.434 373.923 560.588 373.923 560.756Z" fill="#E0E0E0"/>
<path d="M107.605 424.772H160.659C162.45 424.772 164.167 423.835 165.434 422.169C166.7 420.503 167.411 418.242 167.411 415.886V394.366C167.411 392.397 167.116 390.448 166.544 388.629C165.972 386.81 165.133 385.158 164.075 383.766C163.017 382.374 161.762 381.269 160.38 380.516C158.998 379.763 157.517 379.375 156.021 379.375H107.204L107.605 424.772Z" fill="#EBEBEB"/>
<path d="M159.769 438.307H55.4514C54.0948 438.294 52.7972 437.576 51.8407 436.31C50.8842 435.044 50.3462 433.332 50.3436 431.546C50.3462 429.751 50.8893 428.029 51.854 426.76C52.8186 425.49 54.1263 424.775 55.4905 424.772H159.769C161.132 424.775 162.439 425.491 163.402 426.761C164.365 428.031 164.906 429.752 164.906 431.546C164.906 433.339 164.365 435.059 163.401 436.327C162.438 437.595 161.131 438.307 159.769 438.307Z" fill="#EBEBEB"/>
<path d="M34.1887 244.511L91.5776 243.223L128.007 424.437L50.3437 425.402L20.9888 266.559C20.5017 263.931 20.4755 261.192 20.912 258.549C21.3485 255.906 22.2364 253.428 23.5084 251.303C24.7803 249.179 26.403 247.463 28.2535 246.286C30.1039 245.109 32.1336 244.502 34.1887 244.511Z" fill="#E0E0E0"/>
<path d="M62.7803 438.307L45.6077 569.642H50.3143L72.8882 438.307H62.7803Z" fill="#EBEBEB"/>
<path d="M103.261 438.307L85.0118 569.642H89.7184L113.369 438.307H103.261Z" fill="#E0E0E0"/>
<path d="M148.037 438.307L168.389 569.642H163.683L137.919 438.307H148.037Z" fill="#EBEBEB"/>
<path d="M85.0118 243.172L113.388 424.578H135.17L112.42 264.293C111.585 258.362 109.2 253.002 105.677 249.144C102.154 245.286 97.7162 243.173 93.1334 243.172H85.0118Z" fill="#EBEBEB"/>
<path d="M148.712 570.738H73.8961L79.5518 499.056L148.712 498.463V570.738Z" fill="#FF725E"/>
<g opacity="0.4">
<path d="M148.712 570.738H73.8961L79.5518 499.056L148.712 498.463V570.738Z" fill="black"/>
</g>
<path d="M159.622 498.463H84.8063V570.725H159.622V498.463Z" fill="#FF725E"/>
<g opacity="0.2">
<path d="M159.622 498.463H84.8063V570.725H159.622V498.463Z" fill="black"/>
</g>
<path d="M160.248 533.454C160.248 533.634 143.418 533.789 122.664 533.789C101.911 533.789 85.0608 533.634 85.0608 533.454C85.0608 533.274 101.891 533.106 122.664 533.106C143.438 533.106 160.248 533.261 160.248 533.454Z" fill="#263238"/>
<path d="M98.1335 540.408C97.7943 536.812 97.7943 533.174 98.1335 529.577C98.4728 533.174 98.4728 536.812 98.1335 540.408Z" fill="#263238"/>
<path d="M150.15 540.021C149.811 536.813 149.811 533.558 150.15 530.35C150.49 533.558 150.49 536.813 150.15 540.021Z" fill="#263238"/>
<path d="M133.672 498.836C133.672 498.836 133.672 498.05 133.496 496.698C133.236 494.782 132.669 492.96 131.833 491.353C130.6 488.969 128.89 487.079 126.891 485.893C124.429 484.466 121.751 483.801 119.064 483.948C116.359 483.977 113.691 484.763 111.236 486.254C109.248 487.476 107.528 489.342 106.235 491.675C105.369 493.252 104.747 495.037 104.406 496.93C104.171 498.282 104.161 499.055 104.112 499.055C104.097 498.866 104.097 498.677 104.112 498.488C104.113 497.948 104.153 497.409 104.23 496.878C104.504 494.912 105.094 493.046 105.961 491.405C107.251 488.953 109.005 486.986 111.05 485.7C113.544 484.143 116.264 483.317 119.024 483.279C121.788 483.128 124.54 483.834 127.058 485.339C129.115 486.598 130.861 488.593 132.097 491.096C132.934 492.768 133.467 494.672 133.653 496.659C133.689 497.195 133.689 497.734 133.653 498.269C133.684 498.455 133.691 498.647 133.672 498.836Z" fill="#263238"/>
<path d="M105.609 219.732C109.184 217.522 113.204 216.881 117.077 217.904C119.161 218.354 121.334 219.192 122.743 221.226C124.152 223.261 124.426 226.906 122.801 228.67C121.753 229.604 120.49 230.028 119.23 229.868C116.197 229.868 112.84 229.121 110.423 231.516C109.044 232.881 108.124 235.161 106.509 235.831C105.683 236.081 104.818 235.971 104.043 235.518C103.269 235.065 102.627 234.294 102.214 233.319C101.43 231.335 101.255 229.03 101.725 226.88C101.91 225.376 102.358 223.948 103.032 222.708C103.705 221.468 104.587 220.45 105.609 219.732Z" fill="#FF725E"/>
<path d="M97.6248 199.423C99.7579 203.441 103.897 202.115 105.825 199.668C107.752 197.221 108.555 193.667 109.298 190.292C110.981 182.565 112.684 174.452 111.431 166.583C111.127 164.2 110.332 161.973 109.132 160.144C108.523 159.244 107.745 158.57 106.876 158.191C106.007 157.811 105.078 157.738 104.181 157.98C102.087 158.702 100.785 161.393 99.846 163.969C97.0807 171.537 95.6332 179.821 95.6091 188.219C95.6091 192.083 95.9418 196.217 97.6248 199.436" fill="#FF725E"/>
<path d="M91.7635 205.179C92.8605 203.297 93.5909 201.09 93.8911 198.751C94.1913 196.412 94.0521 194.012 93.4856 191.76C92.3256 187.236 90.2358 183.224 87.4483 180.169C84.2885 176.486 80.6122 173.651 76.6261 171.824C75.076 170.991 73.4057 170.618 71.7336 170.729C70.9029 170.792 70.0966 171.122 69.3852 171.69C68.6738 172.258 68.0792 173.047 67.6533 173.987C66.5085 176.847 67.6533 180.311 68.7786 183.131C70.8626 188.117 73.2412 192.88 75.8922 197.375C78.0156 200.994 80.4618 204.561 83.7202 206.184C86.9786 207.806 90.3446 207.626 92.0668 204.664" fill="#FF725E"/>
<path d="M97.478 259.913C97.5864 259.313 97.652 258.701 97.6737 258.084C97.7715 256.797 97.8889 255.097 98.0357 253.113C98.2258 250.666 98.5099 248.233 98.887 245.824C99.3796 242.889 100.054 240.012 100.903 237.221C101.729 234.429 102.852 231.806 104.239 229.43C105.37 227.495 106.814 225.915 108.466 224.806C109.575 224.077 110.764 223.582 111.989 223.338C112.455 223.316 112.917 223.229 113.369 223.081C112.9 223.014 112.428 223.014 111.96 223.081C110.679 223.223 109.428 223.659 108.261 224.369C106.52 225.449 104.993 227.044 103.799 229.031C102.353 231.438 101.189 234.116 100.345 236.977C99.5027 239.812 98.8479 242.738 98.388 245.721C98.0301 248.163 97.7851 250.632 97.6541 253.113C97.5367 255.225 97.4878 256.977 97.4682 258.11C97.4231 258.71 97.4264 259.314 97.478 259.913Z" fill="#263238"/>
<path d="M97.7323 256.088C97.7616 255.806 97.7616 255.52 97.7323 255.238V252.817C97.7323 250.731 97.7323 247.666 97.8106 243.944C97.9476 236.435 98.4466 228.374 99.386 216.989C100.286 206.3 101.49 193.808 102.762 185.746C103.036 183.904 103.31 182.256 103.564 180.8C103.819 179.345 104.024 178.096 104.23 177.078C104.435 176.061 104.543 175.353 104.66 174.735C104.721 174.462 104.757 174.181 104.768 173.897C104.667 174.15 104.591 174.418 104.543 174.696L104.014 177.001C103.779 178.006 103.535 179.255 103.261 180.71C102.987 182.165 102.664 183.801 102.37 185.643C100.792 195.215 99.6059 204.892 98.8184 214.632C97.8399 226.03 97.4486 236.41 97.4094 243.931C97.4094 247.691 97.4094 250.731 97.5073 252.83C97.5073 253.809 97.5855 254.607 97.6149 255.251C97.6339 255.534 97.6733 255.814 97.7323 256.088Z" fill="#263238"/>
<path d="M97.7714 236.063C97.8269 235.205 97.8269 234.344 97.7714 233.487C97.7029 231.864 97.5268 229.52 97.1843 226.648C96.7642 223.286 96.199 219.958 95.4915 216.68C94.6662 212.647 93.6063 208.703 92.3212 204.884C90.1277 197.84 86.9777 191.381 83.0255 185.823C82.3411 184.867 81.6089 183.972 80.8337 183.145C80.501 182.771 80.2074 182.398 79.8552 182.102L79.0039 181.329C78.4941 180.841 77.954 180.41 77.3893 180.041C79.2527 181.959 81.0209 184.033 82.683 186.248C86.5056 191.855 89.5732 198.279 91.7537 205.244C93.0103 209.045 94.0727 212.951 94.9338 216.938C95.6619 220.183 96.2629 223.476 96.7342 226.803C97.1354 229.649 97.3605 231.954 97.4975 233.577C97.5423 234.413 97.6339 235.244 97.7714 236.063Z" fill="#263238"/>
<path d="M83.0744 271.389L84.5911 298.871H111.421L112.948 271.389H83.0744Z" fill="#263238"/>
<path d="M116.148 260.544H80.4814V271.375H116.148V260.544Z" fill="#263238"/>
<path d="M80.4814 297.815V300.816H82.1546H115.56V297.815H80.4814Z" fill="#455A64"/>
<path d="M83.7985 306.108L82.1547 300.815H114.279L112.361 306.108H83.7985Z" fill="#455A64"/>
<path d="M112.449 280.364C112.449 280.364 112.449 280.454 112.322 280.622L111.921 281.317L110.365 283.893L110.287 284.022L110.228 283.893L106.382 276.9H106.607L102.821 283.944L102.703 284.176L102.576 283.957C101.177 281.781 99.6405 279.411 98.0945 276.939H98.3489L98.1043 277.351L94.0924 283.957L93.9554 284.176L93.838 283.944L90.0512 276.913H90.2763L85.6186 283.893L85.5306 284.022L85.4719 283.88L84.0139 280.648L83.6421 279.798C83.5926 279.702 83.5531 279.598 83.5247 279.489C83.5833 279.572 83.6358 279.662 83.6812 279.759L84.0922 280.583L85.6284 283.751H85.4817L90.061 276.681L90.1784 276.501L90.2861 276.694C91.4407 278.819 92.7225 281.188 94.1022 283.7H93.838L97.8401 277.067L98.0847 276.668L98.2119 276.449L98.3489 276.655C99.9145 279.128 101.421 281.51 102.821 283.7H102.566L106.382 276.681L106.5 276.475L106.607 276.681L110.365 283.751H110.228C110.913 282.682 111.461 281.82 111.852 281.176L112.292 280.519C112.34 280.459 112.392 280.407 112.449 280.364Z" fill="#E0E0E0"/>
<path d="M113.32 271.208C113.32 271.324 106.597 271.427 98.3096 271.427C90.0217 271.427 83.2897 271.324 83.2897 271.208C83.2897 271.092 90.0119 270.989 98.29 270.989C106.568 270.989 113.32 271.079 113.32 271.208Z" fill="#455A64"/>
<path d="M114.68 301.111C114.68 301.24 107.371 301.33 98.3586 301.33C89.3467 301.33 82.0471 301.24 82.0471 301.111C82.0471 300.982 89.3467 300.892 98.3586 300.892C107.371 300.892 114.68 300.995 114.68 301.111Z" fill="#263238"/>
<path d="M253.479 306.714H332.033V301.691H253.479V306.714Z" fill="#263238"/>
<path d="M344.206 306.714L358.942 234.053H297.6L284.263 306.714H344.206Z" fill="#263238"/>
<path d="M287.942 301.215H342.728L355.488 237.415H300.408L287.942 301.215Z" fill="#455A64"/>
<path d="M343.11 301.898H287.336L300.056 236.797H356.144L343.11 301.898ZM288.569 300.61H342.386L354.881 238.085H300.839L288.569 300.61Z" fill="#263238"/>
<path d="M95.5502 320.829H91.5873V570.105H95.5502V320.829Z" fill="#455A64"/>
<path d="M99.5229 321.538H95.56V570.093H99.5229V321.538Z" fill="#263238"/>
<path d="M339.949 320.829H335.986V570.105H339.949V320.829Z" fill="#455A64"/>
<path d="M343.912 321.538H339.949V570.093H343.912V321.538Z" fill="#263238"/>
<path d="M399.266 306.34H45.6077V326.791H399.266V306.34Z" fill="#455A64"/>
<path d="M337.973 326.792H205.318V360.637H337.973V326.792Z" fill="#455A64"/>
<path d="M277.56 341.37C277.56 342.135 277.388 342.882 277.066 343.517C276.743 344.152 276.285 344.647 275.748 344.94C275.212 345.232 274.622 345.309 274.052 345.16C273.483 345.011 272.96 344.643 272.549 344.102C272.139 343.562 271.859 342.874 271.746 342.124C271.632 341.375 271.691 340.598 271.913 339.892C272.135 339.186 272.511 338.582 272.994 338.158C273.477 337.733 274.044 337.507 274.625 337.507C275.403 337.507 276.15 337.914 276.701 338.638C277.251 339.363 277.56 340.346 277.56 341.37Z" fill="#263238"/>
<path d="M366.868 326.792C366.868 326.972 320.878 327.127 264.223 327.127C207.569 327.127 161.579 326.972 161.579 326.792C161.579 326.612 207.569 326.457 264.223 326.457C320.878 326.457 366.868 326.612 366.868 326.792Z" fill="#263238"/>
<path d="M244.458 86.209C244.986 86.209 252.139 87.7802 252.139 87.7802L261.816 103.827L263.274 106.866L250.221 117.851L244.458 106.621L239.565 102.436C240.294 101.704 241.161 101.25 242.073 101.125C242.984 101 243.905 101.209 244.732 101.728C246.661 102.795 248.736 103.33 250.828 103.299L249.106 96.8595L243.802 95.4686L244.458 86.209Z" fill="#EB996E"/>
<path d="M245.064 74.9788C245.267 74.9088 245.479 74.8958 245.686 74.9407C245.893 74.9855 246.091 75.0871 246.266 75.2388C246.442 75.3906 246.591 75.5892 246.704 75.8218C246.817 76.0543 246.892 76.3155 246.924 76.5886C247.716 83.1695 250.113 102.977 250.838 108.785C250.899 109.247 250.826 109.723 250.634 110.119C250.442 110.514 250.145 110.801 249.8 110.923L238.283 115.16C238.085 115.234 237.876 115.251 237.672 115.209C237.468 115.168 237.273 115.068 237.101 114.917C236.929 114.767 236.783 114.569 236.675 114.337C236.567 114.105 236.498 113.846 236.473 113.576L233.322 80.6968C233.275 80.2157 233.364 79.7285 233.571 79.3274C233.779 78.9264 234.09 78.6392 234.448 78.5204L245.064 74.9788Z" fill="#263238"/>
<path d="M237.334 111.103L249.076 106.789L245.965 79.4347C245.923 79.0663 245.823 78.7135 245.671 78.3996C245.519 78.0858 245.317 77.8178 245.081 77.6135C244.844 77.4092 244.578 77.273 244.298 77.214C244.019 77.155 243.733 77.1745 243.46 77.2711L234.056 80.5551L237.334 111.103Z" fill="#EBEBEB"/>
<path d="M248.832 91.0894L243.557 96.2408C243.557 96.2408 243.998 98.0695 244.8 98.1983C246.509 97.9042 248.198 97.4305 249.849 96.7817L248.832 91.0894Z" fill="#EB996E"/>
<path d="M248.196 86.9297L242.667 90.1236C242.667 90.1236 242.315 92.4932 244.38 92.1584L242.53 93.9098C242.53 93.9098 242.99 94.9659 245.299 95.0947C247.609 95.2234 249.849 90.9993 249.849 90.9993L248.196 86.9297Z" fill="#EB996E"/>
<path d="M253.685 95.0315C253.685 95.1216 253.01 94.9542 252.276 94.0527C251.872 93.5546 251.447 93.0859 251.004 92.6489C250.755 92.4078 250.463 92.2551 250.156 92.2055C249.85 92.1558 249.538 92.211 249.252 92.3656C247.718 93.5289 246.114 94.5281 244.458 95.3534C245.889 93.9226 247.438 92.7087 249.076 91.7346C249.451 91.5336 249.861 91.4713 250.26 91.5543C250.613 91.6636 250.946 91.865 251.239 92.1467C251.697 92.6114 252.117 93.138 252.491 93.7178C252.866 94.1917 253.264 94.6306 253.685 95.0315Z" fill="#D1734A"/>
<path d="M252.599 113.164C251.651 111.658 251.062 109.817 250.906 107.872C250.749 105.927 251.032 103.965 251.718 102.23C251.45 104.063 251.348 105.93 251.415 107.794C251.645 109.64 252.042 111.443 252.599 113.164Z" fill="#D1734A"/>
<path d="M251.914 90.1365C251.846 90.2138 251.552 89.66 250.848 89.3638C249.905 89.0176 248.897 89.1701 248.039 89.7888C247.002 90.4456 246.082 91.2827 245.348 91.682C244.614 92.0812 244.096 92.1713 244.086 92.0941C244.076 92.0168 244.517 91.785 245.182 91.257C245.847 90.729 246.708 89.879 247.834 89.1835C248.365 88.8337 248.944 88.6279 249.536 88.5782C250.03 88.5401 250.524 88.6594 250.975 88.926C251.709 89.4025 251.914 90.1108 251.914 90.1365Z" fill="#D1734A"/>
<path d="M251.454 135.765L280.212 160.067L272.59 188.76C272.59 188.76 252.912 180.763 253.274 179.926C253.636 179.088 251.454 135.765 251.454 135.765Z" fill="#FF725E"/>
<path d="M244.018 524.157L239.487 551.575C239.487 551.575 259.145 566.836 258.685 572L217.98 562.367L223.694 519.263L244.018 524.157Z" fill="#263238"/>
<path d="M217.98 562.367L218.684 558.053L257.452 568.909C257.452 568.909 259.116 570.377 258.685 572L217.98 562.367Z" fill="#455A64"/>
<path d="M197.715 527.17L197.04 555.206C197.04 555.206 218.479 565.509 218.733 570.725L177.372 570.97L177.059 527.183L197.715 527.17Z" fill="#263238"/>
<g opacity="0.6">
<path d="M177.372 570.969L177.47 566.552L217.089 567.981C217.089 567.981 218.939 569.024 218.733 570.724L177.372 570.969Z" fill="#455A64"/>
</g>
<path d="M203.713 67.3283L207.93 131.721L232.393 129.145C232.54 125.385 232.334 110.832 232.334 110.832C232.334 110.832 242.52 108.746 242.648 95.3777C242.706 88.8611 242.002 75.416 241.258 63.2973C240.874 56.828 238.58 50.8142 234.867 46.5457C231.153 42.2771 226.317 40.0937 221.395 40.4637C218.882 40.6565 216.424 41.5099 214.165 42.9735C211.907 44.437 209.895 46.4812 208.247 48.9853C206.599 51.4893 205.348 54.4026 204.57 57.553C203.791 60.7035 203.5 64.0273 203.713 67.3283Z" fill="#EB996E"/>
<path d="M232.344 110.588C227.641 110.701 223.019 108.97 219.066 105.617C219.066 105.617 222.207 115.263 232.364 114.053L232.344 110.588Z" fill="#D1734A"/>
<path d="M237.334 72.6606C237.337 73.1608 237.191 73.6426 236.928 74.0035C236.665 74.3643 236.305 74.5756 235.925 74.5924C235.74 74.6117 235.555 74.582 235.378 74.5052C235.202 74.4283 235.04 74.3059 234.9 74.1451C234.761 73.9842 234.647 73.7883 234.566 73.5687C234.485 73.3491 234.438 73.1105 234.428 72.8667C234.425 72.3687 234.57 71.8887 234.831 71.5282C235.092 71.1677 235.449 70.955 235.828 70.9349C236.013 70.9156 236.199 70.9452 236.376 71.0219C236.553 71.0986 236.716 71.2208 236.856 71.3815C236.996 71.5422 237.111 71.7381 237.193 71.9577C237.275 72.1773 237.323 72.4163 237.334 72.6606Z" fill="#263238"/>
<path d="M239.096 69.9564C238.92 70.2139 237.814 69.1321 236.248 69.145C234.683 69.1579 233.538 70.1753 233.371 69.9306C233.205 69.6859 233.469 69.3639 233.968 68.8874C234.647 68.2713 235.453 67.9433 236.278 67.9473C237.093 67.9435 237.888 68.2818 238.548 68.9132C239.027 69.3897 239.193 69.8533 239.096 69.9564Z" fill="#263238"/>
<path d="M222.305 72.6611C222.31 73.1601 222.166 73.6419 221.905 74.0031C221.643 74.3643 221.284 74.5761 220.905 74.5929C220.72 74.6122 220.534 74.5826 220.357 74.5059C220.18 74.4292 220.017 74.307 219.877 74.1463C219.737 73.9856 219.622 73.7897 219.54 73.5701C219.458 73.3505 219.41 73.1115 219.399 72.8672C219.398 72.368 219.545 71.888 219.808 71.5278C220.07 71.1677 220.429 70.9554 220.808 70.9354C220.992 70.9179 221.178 70.9488 221.353 71.0263C221.529 71.1038 221.691 71.2264 221.83 71.3869C221.969 71.5474 222.083 71.7427 222.164 71.9614C222.246 72.1801 222.294 72.418 222.305 72.6611Z" fill="#263238"/>
<path d="M223.714 70.3421C223.538 70.5868 222.432 69.5178 220.866 69.5307C219.301 69.5436 218.156 70.561 217.989 70.3034C217.823 70.0459 218.087 69.7497 218.586 69.2732C219.261 68.647 220.07 68.3179 220.896 68.333C221.712 68.3246 222.508 68.6634 223.166 69.2989C223.645 69.7754 223.802 70.2262 223.714 70.3421Z" fill="#263238"/>
<path d="M229.408 85.6161C230.234 85.2769 231.089 85.0736 231.953 85.0108C232.344 85.0108 232.726 84.8562 232.794 84.4956C232.826 83.9532 232.734 83.4105 232.53 82.9374C232.148 81.6495 231.757 80.3617 231.346 78.9321C229.702 73.227 228.518 68.5392 228.694 68.4619C228.87 68.3846 230.338 72.9307 231.982 78.623C232.373 80.0397 232.755 81.3791 233.107 82.654C233.36 83.2912 233.436 84.0244 233.322 84.7275C233.264 84.9138 233.174 85.0795 233.058 85.2115C232.943 85.3435 232.805 85.4379 232.657 85.4873C232.437 85.5689 232.21 85.6122 231.982 85.6161C231.128 85.7633 230.263 85.7633 229.408 85.6161Z" fill="#263238"/>
<path d="M224.79 87.0456C225.044 87.0456 225.044 89.2607 226.502 90.9092C227.96 92.5576 229.761 92.197 229.78 92.5705C229.8 92.944 229.379 92.9955 228.606 93.0213C227.609 93.0291 226.642 92.573 225.876 91.7334C225.117 90.9398 224.627 89.7818 224.516 88.5138C224.516 87.5865 224.673 87.0328 224.79 87.0456Z" fill="#263238"/>
<path d="M224.125 62.2667C223.968 62.8334 222.402 62.5629 220.563 62.8591C218.723 63.1553 217.246 63.8121 217.001 63.3099C216.893 63.0652 217.148 62.5372 217.755 62.022C218.552 61.3535 219.456 60.935 220.395 60.7988C221.335 60.6626 222.286 60.8123 223.175 61.2364C223.851 61.5584 224.183 62.0092 224.125 62.2667Z" fill="#263238"/>
<path d="M238.528 63.9938C238.254 64.4703 237.168 63.9938 235.876 63.9938C234.585 63.9938 233.479 64.3158 233.225 63.8264C233.117 63.5817 233.293 63.1181 233.772 62.6673C234.418 62.1394 235.167 61.8748 235.926 61.9069C236.686 61.939 237.421 62.2663 238.039 62.8476C238.499 63.2855 238.645 63.7749 238.528 63.9938Z" fill="#263238"/>
<path d="M214.731 52.6342H214.672C213.064 54.3282 212.012 56.7725 211.737 59.4598V59.7302C211.336 63.5938 211.414 67.4573 210.983 71.3209C210.553 75.1844 209.555 79.048 207.402 81.6237C206.522 82.7055 204.966 83.4524 204.242 82.1904C203.994 81.6655 203.868 81.0567 203.88 80.4389C203.332 71.205 201.414 63.0143 201.433 53.394C201.423 52.1007 201.647 50.8227 202.088 49.6668C202.529 48.5108 203.173 47.5103 203.968 46.7487C205.504 45.3063 207.373 43.7995 209.085 44.8685C210.798 45.9374 212.999 50.1358 214.32 51.913" fill="#263238"/>
<path d="M207.148 73.3949C206.972 73.2919 200.152 70.6647 200.367 79.8342C200.582 89.0037 207.539 86.8143 207.539 86.5567C207.539 86.2992 207.148 73.3949 207.148 73.3949Z" fill="#EB996E"/>
<path d="M205.328 83.1693C205.328 83.1693 205.21 83.2852 205.015 83.414C204.729 83.5903 204.403 83.6134 204.105 83.4784C203.646 83.1229 203.268 82.6136 203.009 82.0027C202.749 81.3918 202.617 80.7011 202.627 80.0012C202.591 79.2146 202.688 78.4274 202.911 77.696C202.967 77.4032 203.076 77.1328 203.23 76.9084C203.383 76.6839 203.576 76.5122 203.791 76.4081C203.93 76.3552 204.078 76.3659 204.212 76.4385C204.345 76.511 204.456 76.6411 204.525 76.8074C204.623 77.0649 204.584 77.2452 204.623 77.2581C204.662 77.271 204.76 77.1036 204.701 76.7301C204.656 76.5022 204.553 76.3019 204.408 76.1634C204.209 75.9886 203.969 75.9153 203.733 75.9574C203.449 76.0486 203.188 76.2321 202.973 76.4908C202.757 76.7496 202.595 77.0754 202.5 77.4384C202.223 78.2456 202.102 79.1304 202.148 80.0141C202.236 81.8686 202.999 83.5557 204.007 83.8777C204.196 83.9407 204.394 83.9468 204.585 83.8955C204.777 83.8442 204.957 83.7369 205.112 83.5815C205.328 83.3883 205.357 83.1822 205.328 83.1693Z" fill="#D1734A"/>
<path d="M208.86 46.2854C207.148 42.615 211.845 37.3477 215.279 35.9826C218.714 34.6175 223.244 36.7553 226.659 38.2492C228.821 39.1893 230.964 40.5029 233.244 40.387C234.762 40.1743 236.248 39.6755 237.657 38.906C239.065 38.1222 240.581 37.7277 242.109 37.7469C242.873 37.7682 243.617 38.0638 244.262 38.6018C244.907 39.1398 245.428 39.8996 245.769 40.7991C246.346 42.6536 245.524 45.2036 244.008 45.474C244.491 45.1282 245.031 44.9412 245.581 44.9292C246.132 44.9171 246.676 45.0803 247.168 45.4047C247.66 45.7292 248.085 46.2054 248.407 46.7927C248.729 47.38 248.939 48.0611 249.018 48.7779C249.097 49.4947 249.043 50.2261 248.861 50.9096C248.679 51.5932 248.374 52.2088 247.973 52.7039C247.571 53.199 247.084 53.559 246.554 53.7532C246.024 53.9474 245.466 53.9701 244.928 53.8193C245.906 52.8277 247.432 54.4632 247.305 56.0859C247.172 56.8872 246.883 57.6292 246.466 58.2389C246.049 58.8485 245.519 59.3049 244.928 59.5631C241.992 61.2373 238.636 60.6964 235.632 59.3699C232.628 58.0435 229.839 55.97 226.825 54.5405C223.812 53.111 218.851 50.5353 215.866 51.9648C213.665 52.9951 212.128 56.4852 210.886 55.7124C210.299 55.3003 209.794 54.7127 209.412 53.9969C209.03 53.2811 208.78 52.4571 208.684 51.5913C208.52 49.8756 208.566 48.1363 208.821 46.4399" fill="#263238"/>
<path d="M244.839 45.1777C244.781 45.1777 244.487 45.8474 243.734 46.9163C242.668 48.4095 241.341 49.537 239.869 50.2003C237.704 51.2247 235.321 51.1 233.225 49.8526C230.857 48.4488 228.831 45.6156 226.473 43.0399C224.311 40.3736 221.578 38.6471 218.645 38.0945C217.434 37.8991 216.205 38.0701 215.052 38.5946C213.899 39.1191 212.852 39.9832 211.991 41.121C211.436 41.9157 211.009 42.8506 210.737 43.8689C210.464 44.8872 210.352 45.9678 210.406 47.0451C210.445 47.6238 210.547 48.1921 210.709 48.7322C210.837 49.0928 210.915 49.2731 210.935 49.2602C210.803 48.5277 210.714 47.7828 210.67 47.0322C210.672 44.9922 211.271 43.0316 212.344 41.5588C213.176 40.5235 214.174 39.7475 215.265 39.2883C216.356 38.8291 217.511 38.6984 218.645 38.9059C221.434 39.4894 224.025 41.1631 226.082 43.7095C228.371 46.2852 230.465 49.1571 233 50.6124C234.868 51.6633 236.944 51.8939 238.92 51.2699C240.896 50.6459 242.666 49.2005 243.969 47.1481C244.247 46.7105 244.49 46.2357 244.693 45.7315C244.8 45.3837 244.859 45.1906 244.839 45.1777Z" fill="#455A64"/>
<path d="M205.367 72.9952C205.367 72.9952 205.67 72.7376 205.934 72.0164C206.278 70.9711 206.4 69.8228 206.287 68.6937C206.13 65.7446 204.144 62.5765 203.889 58.494C203.712 56.6083 203.982 54.6967 204.662 53.0206C205.256 51.6964 206.164 50.665 207.246 50.0843C207.98 49.6766 208.783 49.53 209.574 49.6593C210.132 49.7881 210.436 49.9555 210.465 49.8783C210.232 49.596 209.944 49.4043 209.633 49.3245C208.79 49.0353 207.899 49.0892 207.079 49.479C205.859 50.0452 204.823 51.1453 204.144 52.5956C203.363 54.413 203.044 56.5113 203.234 58.5841C203.415 60.5974 203.869 62.5516 204.574 64.3537C205.133 65.7548 205.545 67.2496 205.797 68.7968C205.99 70.2211 205.839 71.6889 205.367 72.9952Z" fill="#455A64"/>
<path d="M246.239 547.672C246.239 547.672 267.443 410.773 267.462 408.043L229.585 381.745L214.907 542.404L246.239 547.672Z" fill="#263238"/>
<path d="M198.547 552.256L227.833 314.996V263.816L185.425 267.809C184.916 269.805 174.221 552.565 174.221 552.565L178.351 552.256H198.547Z" fill="#263238"/>
<path d="M250.857 260.197L267.462 408.042L230.338 396.194L215.211 265.013L250.857 260.197Z" fill="#263238"/>
<path d="M257.256 323.881C257.256 323.881 263.714 316.579 264.35 311.08C264.987 305.581 256.611 217.067 256.611 217.067L252.335 143.891C252.335 145.179 252.452 134.67 251.16 134.039C247.246 132.095 239.203 128.566 239.203 128.566L234.604 123.131C234.604 123.131 242.863 169.597 244.467 182.295L257.256 323.881Z" fill="#FF725E"/>
<path d="M204.232 118.083L197.284 124.175L171.227 137.658L182.803 195.109L181.247 228.49L179.769 249.676C179.769 249.676 172.01 302.13 165.16 334.004C165.16 334.004 172.802 353.064 179.084 355.717L181.697 357.765L191.012 267.989L199.007 253.822C199.78 252.457 200.494 251.054 201.169 249.611C203.126 245.4 207.608 235.831 211.179 228.452C215.895 218.703 221.943 196.552 220.152 187.099C218.361 177.646 204.232 118.083 204.232 118.083Z" fill="#FF725E"/>
<path d="M186.531 316.143C192.632 309.645 197.699 301.628 201.443 292.549L186.531 316.143Z" fill="#263238"/>
<path d="M204.232 118.083L210.504 171.052C210.334 177.824 209.482 184.536 207.97 191.014L196.776 238.664C196.776 238.664 187.969 264.64 191.012 267.963C194.055 271.285 217.725 267.963 217.725 267.963L249.761 261.845C250.476 261.708 251.123 261.214 251.569 260.466C252.015 259.718 252.226 258.774 252.159 257.827L247.403 193.151C245.798 188.683 245.143 179.539 244.468 176.293L234.604 123.144L232.589 122.796L228.205 126.75L225.896 126.995L206.512 114.644L204.232 118.083Z" fill="#EBEBEB"/>
<path d="M198.39 231.75C203.566 210.513 210.269 175.986 210.269 175.986C212.353 194.016 210.073 212.496 204.975 229.496C200.807 243.353 195.768 253.836 192.304 268.041L192.196 268.621C192.196 268.621 190.239 268.763 190.376 264.963C190.513 261.164 193.312 249.857 195.181 243.598C197.05 237.339 198.39 231.75 198.39 231.75Z" fill="#E0E0E0"/>
<path d="M229.321 131.246H224.966L223.665 139.089L227.471 145.154L231.307 144.652L232.559 139.024L231.532 135.882L229.321 131.246Z" fill="#FF725E"/>
<path d="M254.713 177.042C256.082 177.402 271.21 190.796 276.709 189.353C282.208 187.911 286.66 181.085 287.248 180.171C290.369 175.303 288.412 165.193 287.512 161.381C287.292 160.451 286.994 159.557 286.621 158.715L263.265 105.914L249.497 116.925L263.783 151.22L254.713 177.042Z" fill="#FF725E"/>
<path d="M142.058 240.88C141.153 237.765 140.76 234.432 140.905 231.102C141.05 227.773 141.73 224.521 142.9 221.562C146.07 213.307 151.099 199.978 152.156 195.599C153.722 189.096 168.36 139.191 171.227 137.646L183.948 194.17L169.172 235.123L186.492 278.073L172.059 298.55C172.059 298.55 144.749 248.427 142.498 242.232C142.342 241.786 142.195 241.335 142.058 240.88Z" fill="#FF725E"/>
<path d="M187.177 311.584C189.908 308.22 192.335 304.451 194.408 300.354C194.389 300.299 194.379 300.24 194.379 300.18C194.379 300.12 194.389 300.06 194.408 300.006C194.441 299.942 194.485 299.888 194.535 299.848C194.586 299.808 194.643 299.783 194.701 299.774C195.53 298.083 196.288 296.333 196.972 294.533C194.555 292.459 191.394 289.381 194.829 288.686C199.065 287.887 202.089 285.183 202.52 283.702C202.95 282.221 201.541 280.894 200.426 281.834C199.142 282.701 197.771 283.325 196.355 283.689C195.224 284.04 194.056 284.136 192.901 283.972C191.56 283.779 186.051 280.637 185.073 280.405L174.769 294.674C174.769 294.674 182.685 305.763 187.177 311.584Z" fill="#EB996E"/>
<path d="M254.615 178.612C254.446 178.105 254.324 177.573 254.253 177.028C254.047 175.998 253.793 174.452 253.509 172.611C252.784 167.735 252.252 162.813 251.914 157.865C251.578 152.915 251.44 147.946 251.503 142.977C251.503 141.071 251.581 139.539 251.64 138.47C251.648 137.916 251.694 137.364 251.777 136.821C251.846 137.37 251.866 137.928 251.836 138.483C251.836 139.68 251.836 141.187 251.836 142.977C251.836 146.841 252.002 151.992 252.393 157.813C252.785 163.634 253.372 168.786 253.842 172.533C254.067 174.298 254.262 175.792 254.419 176.976C254.523 177.512 254.589 178.06 254.615 178.612Z" fill="#263238"/>
<path d="M266.591 181.665C266.591 181.665 266.474 181.665 266.259 181.562C265.956 181.417 265.665 181.236 265.388 181.021C264.369 180.192 263.517 179.052 262.902 177.699C262.043 175.696 261.441 173.521 261.121 171.259C260.621 168.529 260.232 165.764 259.957 162.979C259.546 157.029 259.204 151.684 258.979 147.795C258.881 145.953 258.802 144.408 258.734 143.184C258.687 142.619 258.687 142.049 258.734 141.484C258.844 142.033 258.916 142.593 258.949 143.159C259.047 144.446 259.184 145.915 259.341 147.743C259.664 151.607 260.065 157.003 260.466 162.901C260.75 165.838 261.17 168.619 261.591 171.118C261.874 173.363 262.422 175.535 263.215 177.557C263.786 178.878 264.567 180.021 265.505 180.905C266.21 181.408 266.64 181.614 266.591 181.665Z" fill="#263238"/>
<g opacity="0.3">
<path d="M258.705 141.535C257.513 147.469 256.688 153.52 256.239 159.629C255.826 163.275 255.973 166.993 256.669 170.563C257.511 174.066 259.478 177.298 262.178 178.29C260.945 166.339 259.859 154.366 258.92 142.372" fill="black"/>
</g>
<g opacity="0.3">
<path d="M178.585 257.326C178.585 257.326 183.165 269.676 185.699 276.141C190.983 247.409 184.28 217.17 186.462 187.756L182.646 197.891L181.57 221.343L180.748 235.097C180.748 235.097 179.965 249.895 178.585 257.326Z" fill="black"/>
</g>
<path d="M182.284 138.187C182.58 138.685 182.839 139.22 183.057 139.783C183.302 140.311 183.576 140.968 183.869 141.741C184.163 142.514 184.525 143.402 184.848 144.407C185.645 146.754 186.335 149.162 186.912 151.619C188.305 157.656 189.004 163.932 188.987 170.241C188.982 172.826 188.848 175.407 188.586 177.968C188.507 179.063 188.351 180.042 188.233 180.892C188.116 181.742 187.998 182.489 187.891 183.081C187.803 183.707 187.669 184.319 187.49 184.91C187.516 184.276 187.585 183.647 187.695 183.029C187.773 182.424 187.871 181.742 187.959 180.827C188.047 179.913 188.165 178.998 188.233 177.917C188.434 175.38 188.529 172.83 188.517 170.28C188.487 167.164 188.307 164.054 187.979 160.969C187.618 157.887 187.111 154.837 186.462 151.838C185.915 149.391 185.262 146.987 184.505 144.639C184.212 143.621 183.869 142.746 183.605 141.947C183.341 141.149 183.086 140.492 182.871 139.951C182.631 139.39 182.434 138.799 182.284 138.187Z" fill="#263238"/>
<path d="M169.035 235.471C168.967 235.535 168.311 234.183 167.078 232.058C165.434 229.38 163.483 227.056 161.295 225.168C160.124 224.126 158.708 223.669 157.303 223.88C156.163 224.157 155.083 224.764 154.143 225.657C152.489 227.151 151.589 228.323 151.52 228.233C151.679 227.898 151.877 227.598 152.107 227.344C152.679 226.593 153.29 225.896 153.937 225.258C154.898 224.301 156.013 223.645 157.195 223.339C158.708 223.055 160.248 223.513 161.52 224.627C163.763 226.545 165.728 228.974 167.323 231.8C167.806 232.649 168.251 233.535 168.654 234.453C168.82 234.764 168.949 235.107 169.035 235.471Z" fill="#263238"/>
<path d="M165.806 221.936C167.748 225.836 168.863 230.349 169.035 235.007C168.879 235.007 168.497 231.994 167.597 228.401C166.697 224.807 165.699 222.051 165.806 221.936Z" fill="#263238"/>
<path d="M178.282 256.526C178.563 257.046 178.809 257.598 179.016 258.175L180.875 262.798C182.431 266.726 184.554 272.2 186.912 278.343L187 278.561L186.873 278.729L185.895 280.017C182.049 285.284 178.556 290.036 176.002 293.436L172.959 297.454C172.601 297.968 172.212 298.442 171.795 298.871C172.087 298.304 172.414 297.77 172.773 297.274L175.709 293.114C178.194 289.611 181.658 284.82 185.494 279.553L186.472 278.265V278.652C184.124 272.496 182.049 267.061 180.601 263.004L178.889 258.291C178.643 257.73 178.44 257.139 178.282 256.526Z" fill="#263238"/>
<path d="M197.343 230.616C197.318 230.243 197.318 229.869 197.343 229.496C197.343 228.71 197.343 227.654 197.343 226.315C197.392 223.494 197.461 219.502 197.549 214.608C197.637 209.714 197.735 203.79 197.94 197.261C198.065 190.143 198.8 183.066 200.132 176.166C200.872 172.63 201.909 169.213 203.224 165.979L203.41 166.468C202.192 166.194 201.085 165.37 200.279 164.137C199.51 162.983 198.951 161.613 198.645 160.132C198.196 157.392 198.025 154.586 198.136 151.787C198.136 146.545 198.136 141.858 198.136 137.943C198.136 134.027 198.136 130.975 198.136 128.76C198.136 127.73 198.136 126.906 198.136 126.287C198.113 126.005 198.113 125.72 198.136 125.438C198.173 125.718 198.189 126.003 198.185 126.287C198.185 126.906 198.185 127.73 198.234 128.76C198.234 130.975 198.292 134.079 198.341 137.93C198.39 141.78 198.41 146.532 198.449 151.787C198.351 154.532 198.529 157.281 198.977 159.965C199.27 161.346 199.795 162.622 200.513 163.7C201.243 164.818 202.247 165.565 203.351 165.812L203.703 165.889L203.537 166.301C202.241 169.489 201.22 172.859 200.494 176.346C199.177 183.199 198.435 190.221 198.282 197.287C198.057 203.803 197.93 209.689 197.774 214.634C197.617 219.579 197.5 223.494 197.412 226.328L197.294 229.509C197.324 229.877 197.341 230.246 197.343 230.616Z" fill="#263238"/>
<path d="M239.272 129.326C239.369 129.55 239.448 129.787 239.507 130.034C239.644 130.575 239.839 131.322 240.064 132.107L242.09 139.835C242.931 143.144 243.939 147.072 245.025 151.425C245.563 153.653 246.229 155.92 246.728 158.431C246.996 159.737 247.04 161.105 246.855 162.436C246.759 163.146 246.556 163.824 246.257 164.428C245.957 165.032 245.568 165.551 245.113 165.952L245.192 165.476C246.014 167.085 246.884 168.798 247.697 170.627C248.917 173.216 249.841 176.028 250.436 178.972C250.894 181.745 251.042 184.591 250.877 187.421C250.642 192.765 250.378 197.569 250.162 201.587C249.947 205.605 249.761 208.825 249.624 211.156C249.556 212.225 249.497 213.087 249.458 213.731C249.448 214.035 249.415 214.337 249.36 214.633C249.337 214.329 249.337 214.023 249.36 213.719C249.36 213.062 249.409 212.186 249.438 211.143C249.526 208.799 249.654 205.541 249.81 201.561C249.967 197.582 250.192 192.688 250.427 187.395C250.562 184.628 250.407 181.851 249.967 179.14C249.372 176.264 248.463 173.518 247.266 170.988C246.464 169.21 245.603 167.51 244.781 165.836L244.634 165.553L244.859 165.373C245.256 165.021 245.596 164.567 245.856 164.038C246.117 163.509 246.294 162.916 246.376 162.295C246.55 161.055 246.514 159.779 246.268 158.56C245.798 156.139 245.133 153.808 244.604 151.605C243.528 147.188 242.559 143.247 241.737 139.925C240.916 136.602 240.319 134.039 239.869 132.198C239.663 131.335 239.507 130.626 239.379 130.086C239.329 129.836 239.293 129.582 239.272 129.326Z" fill="#263238"/>
<path d="M201.189 289.356C201.081 289.736 200.929 290.092 200.739 290.412C200.426 291.069 199.956 291.996 199.359 293.129C198.155 295.396 196.423 298.474 194.466 301.797C192.51 305.119 190.611 308.03 189.222 310.09C188.527 311.121 187.95 311.945 187.539 312.499C187.128 313.052 186.893 313.349 186.864 313.323C187.498 312.083 188.195 310.9 188.948 309.781C190.269 307.643 192.089 304.63 194.065 301.384C196.042 298.139 197.793 295.048 199.065 292.846C199.714 291.623 200.424 290.457 201.189 289.356Z" fill="#455A64"/>
<path d="M216.522 272.741C216.522 272.741 216.522 272.986 216.522 273.462C216.522 273.939 216.424 274.673 216.346 275.587C216.189 277.468 215.944 280.211 215.641 283.727C215.005 290.797 214.056 301.035 212.803 313.656C210.328 338.911 206.57 373.747 202.529 412.228C200.514 431.482 198.615 449.821 197.089 466.537C196.688 470.71 196.365 474.792 195.915 478.746C195.465 482.699 195.005 486.473 194.574 490.208L192.206 510.813C190.768 523.408 189.633 533.595 188.889 540.653C188.517 544.169 188.243 546.912 188.077 548.779C187.999 549.706 187.94 550.415 187.92 550.891C187.911 551.071 187.911 551.252 187.92 551.432C187.92 551.587 187.989 551.432 187.989 551.432C187.989 551.432 187.911 551.432 187.92 551.368C187.902 551.188 187.902 551.006 187.92 550.827C187.92 550.35 187.969 549.629 188.038 548.702C188.165 546.834 188.41 544.078 188.752 540.55C189.437 533.479 190.513 523.28 191.903 510.684C192.617 504.374 193.39 497.484 194.212 490.079C194.643 486.37 195.073 482.545 195.523 478.604C195.973 474.663 196.286 470.581 196.688 466.408C198.234 449.666 200.073 431.34 202.079 412.087C206.12 373.593 209.907 338.782 212.51 313.54C213.772 300.945 214.79 290.732 215.504 283.649C215.847 280.133 216.121 277.403 216.306 275.51C216.404 274.609 216.473 273.9 216.522 273.398C216.571 272.896 216.522 272.741 216.522 272.741Z" fill="#455A64"/>
<path d="M238.851 546.397C238.865 546.163 238.887 545.931 238.92 545.701C238.978 545.212 239.057 544.529 239.164 543.641C239.409 541.812 239.751 539.172 240.143 535.772C241.053 528.908 242.374 519.03 243.998 506.834L256.953 411.365C257.33 409.1 257.436 406.771 257.266 404.463C257.041 402.17 256.748 399.852 256.493 397.585C255.965 393.026 255.44 388.54 254.918 384.127C253.861 375.319 252.814 366.819 251.797 358.731C249.751 342.556 247.775 328.016 246.014 315.833C244.252 303.65 242.697 293.823 241.522 287.062C240.965 283.675 240.456 281.061 240.143 279.335C239.996 278.472 239.878 277.79 239.79 277.313C239.702 276.837 239.683 276.618 239.683 276.618C239.744 276.841 239.796 277.069 239.839 277.3L240.25 279.309C240.593 281.074 241.131 283.675 241.718 287.036C242.951 293.772 244.556 303.598 246.366 315.768C248.176 327.938 250.182 342.478 252.237 358.654C253.274 366.741 254.321 375.241 255.388 384.05C255.909 388.472 256.438 392.958 256.973 397.508C257.237 399.801 257.521 402.067 257.756 404.411C257.928 406.793 257.819 409.195 257.433 411.533C252.335 448.765 247.726 482.481 244.38 506.911C242.687 519.094 241.317 528.959 240.368 535.81C239.888 539.21 239.507 541.85 239.252 543.666C239.125 544.542 239.017 545.225 238.949 545.701C238.88 546.178 238.851 546.397 238.851 546.397Z" fill="#455A64"/>
<path d="M227.833 313.322C227.98 313.322 226.248 328.673 223.968 347.553C221.688 366.433 219.741 381.746 219.624 381.746C219.506 381.746 221.219 366.395 223.489 347.515C225.759 328.635 227.696 313.297 227.833 313.322Z" fill="#455A64"/>
<path d="M198.899 551.832C198.58 551.955 198.252 552.028 197.921 552.051C197.304 552.142 196.404 552.257 195.288 552.373C193.067 552.605 189.985 552.824 186.58 552.889C183.175 552.953 180.083 552.889 177.852 552.747C176.736 552.747 175.836 552.618 175.219 552.541C174.888 552.548 174.558 552.487 174.241 552.361C175.442 552.239 176.648 552.213 177.852 552.283C180.083 552.283 183.155 552.283 186.56 552.219C189.965 552.154 193.028 552.013 195.259 551.897C196.47 551.768 197.686 551.746 198.899 551.832Z" fill="#455A64"/>
<path d="M246.239 547.673C245.823 547.697 245.407 547.667 244.996 547.583L241.63 547.119C238.792 546.694 234.878 546.05 230.553 545.316C226.228 544.582 222.314 543.874 219.487 543.333L216.14 542.663C215.727 542.598 215.318 542.49 214.917 542.341C215.335 542.289 215.756 542.311 216.169 542.406C216.962 542.496 218.126 542.65 219.535 542.856C222.373 543.281 226.297 543.912 230.622 544.646C234.947 545.38 238.851 546.102 241.679 546.643L245.025 547.325C245.439 547.377 245.846 547.494 246.239 547.673Z" fill="#455A64"/>
<path d="M204.946 126.648C205.326 126.906 205.687 127.212 206.022 127.562L208.899 130.138C211.345 132.34 214.77 135.289 218.684 138.226C220.152 139.333 221.62 140.364 222.911 141.291L222.559 141.497C223.381 137.221 224.105 133.551 224.633 130.962C224.888 129.752 225.103 128.747 225.279 127.923C225.342 127.553 225.437 127.194 225.563 126.854C225.556 127.233 225.513 127.609 225.436 127.974C225.299 128.812 225.132 129.829 224.937 131.052C224.477 133.628 223.821 137.363 222.98 141.651L222.911 142.038L222.637 141.857C221.297 140.943 219.849 139.913 218.381 138.805C215.025 136.284 211.778 133.519 208.655 130.524C207.461 129.378 206.512 128.399 205.866 127.717C205.53 127.406 205.222 127.048 204.946 126.648Z" fill="#263238"/>
<path d="M237.237 136.125C235.874 137.56 234.428 138.852 232.912 139.989L232.696 140.169L232.579 139.86L231.258 136.473C230.279 133.897 229.35 131.45 228.733 129.699C228.349 128.779 228.041 127.807 227.814 126.801C228.298 127.637 228.711 128.539 229.047 129.493C229.751 131.18 230.7 133.537 231.708 136.164L233.029 139.628L232.696 139.499C234.146 138.232 235.663 137.104 237.237 136.125Z" fill="#263238"/>
<path d="M230.857 134.864C230.596 135.201 230.307 135.499 229.996 135.752C229.457 136.28 228.694 137.04 227.843 137.749C226.992 138.457 226.219 139.191 225.651 139.68C225.342 139.962 225.014 140.207 224.673 140.414C224.934 140.074 225.223 139.772 225.534 139.513C226.082 138.998 226.845 138.289 227.686 137.53L229.878 135.598C230.188 135.316 230.515 135.071 230.857 134.864Z" fill="#263238"/>
<path d="M227.921 137.529C227.223 136.808 226.569 136.015 225.964 135.16C225.332 134.36 224.746 133.499 224.213 132.584C224.892 133.307 225.527 134.099 226.111 134.954C226.764 135.75 227.369 136.611 227.921 137.529Z" fill="#263238"/>
<path d="M209.486 251.774C209.775 254.993 210.459 258.129 211.512 261.059C212.707 263.89 214.248 266.444 216.072 268.619C215.401 268.206 214.794 267.634 214.281 266.932C211.623 263.728 209.923 259.38 209.486 254.672C209.356 253.713 209.356 252.732 209.486 251.774Z" fill="#263238"/>
<path d="M215.181 268.749C211.924 268.384 208.873 266.497 206.58 263.43C206.678 263.276 208.361 265.04 210.729 266.495C213.097 267.951 215.211 268.543 215.181 268.749Z" fill="#263238"/>
<path d="M234.301 227.524C234.469 227.96 234.591 228.423 234.663 228.902C234.868 229.804 235.133 231.118 235.426 232.766C236.033 236.024 236.747 240.57 237.315 245.644C237.882 250.719 238.205 255.329 238.352 258.69C238.42 260.365 238.46 261.717 238.46 262.657C238.508 263.14 238.508 263.629 238.46 264.112C238.369 263.64 238.316 263.157 238.303 262.67C238.225 261.588 238.137 260.274 238.029 258.716C237.794 255.393 237.422 250.796 236.855 245.747C236.287 240.699 235.622 236.153 235.113 232.869C234.878 231.336 234.673 230.036 234.506 229.005C234.396 228.523 234.328 228.027 234.301 227.524Z" fill="#263238"/>
<path d="M227.784 146.467C226.512 159.848 225.573 188.966 225.22 202.476C224.927 213.757 224.956 225.052 224.986 236.346C224.986 239.991 224.986 243.751 226.17 247.061C228.215 253.024 233.215 256.076 237.804 258.497L227.784 146.467Z" fill="#E0E0E0"/>
<path d="M239.194 256.567L244.448 239.618L231.307 144.652L227.471 145.155C227.471 145.155 228.009 243.855 227.833 244.744L239.194 256.567Z" fill="#FF725E"/>
<path d="M231.17 144.652C230.577 144.899 229.961 145.034 229.34 145.052C228.729 145.158 228.111 145.158 227.5 145.052C228.105 144.914 228.717 144.836 229.33 144.82C229.94 144.713 230.555 144.657 231.17 144.652Z" fill="#263238"/>
</svg>
