<svg width="62" height="62" viewBox="0 0 62 62" fill="none" xmlns="http://www.w3.org/2000/svg">
<path d="M30.6688 40C23.3188 40 17.3375 34.0188 17.3375 26.6688C17.3375 19.3188 23.3188 13.3375 30.6688 13.3375C38.0188 13.3375 44 19.3188 44 26.6688C44 34.0188 38.0188 40 30.6688 40ZM30.6688 18.6688C26.2563 18.6688 22.6688 22.2563 22.6688 26.6688C22.6688 31.0813 26.2563 34.6688 30.6688 34.6688C35.0813 34.6688 38.6688 31.0813 38.6688 26.6688C38.6688 22.2563 35.0813 18.6688 30.6688 18.6688Z" fill="white"/>
<path d="M50.9812 52.6C50 52.6 49.0562 52.0563 48.5937 51.1188C45.1875 44.2625 38.3187 40 30.6687 40C23.0187 40 16.15 44.2563 12.7437 51.1188C12.0875 52.4375 10.4875 52.975 9.16872 52.3188C7.84997 51.6625 7.31247 50.0625 7.96872 48.7438C12.2812 40.0625 20.9812 34.6688 30.6687 34.6688C40.3562 34.6688 49.0562 40.0625 53.3687 48.7438C54.025 50.0625 53.4875 51.6625 52.1687 52.3188C51.7875 52.5063 51.3812 52.6 50.9812 52.6Z" fill="white"/>
<path d="M30.6688 61.3375C13.7563 61.3375 0 47.5813 0 30.6688C0 13.7563 13.7563 0 30.6688 0C47.5813 0 61.3375 13.7563 61.3375 30.6688C61.3375 47.5813 47.5813 61.3375 30.6688 61.3375ZM30.6688 5.3375C16.7 5.3375 5.3375 16.7 5.3375 30.6688C5.3375 44.6375 16.7 56 30.6688 56C44.6375 56 56 44.6375 56 30.6688C56 16.7 44.6375 5.3375 30.6688 5.3375Z" fill="white"/>
</svg>
