<svg fill="#9DAFC6" version="1.1" id="Capa_1" xmlns="http://www.w3.org/2000/svg" xmlns:xlink="http://www.w3.org/1999/xlink" viewBox="0 0 35.99 35.99" xml:space="preserve"><g id="SVGRepo_bgCarrier" stroke-width="0"></g><g id="SVGRepo_tracerCarrier" stroke-linecap="round" stroke-linejoin="round"></g><g id="SVGRepo_iconCarrier"> <g> <path d="M35.99,12.641L12.64,35.989l-4.137-4.135c0.292-0.15,0.569-0.334,0.813-0.576c1.272-1.273,1.273-3.334,0.001-4.605 c-1.271-1.271-3.333-1.271-4.604,0c-0.244,0.244-0.426,0.523-0.576,0.814L0,23.353L23.35,0.001l4.137,4.137 c-0.291,0.15-0.57,0.334-0.814,0.578c-1.271,1.271-1.271,3.332,0,4.604c1.271,1.271,3.332,1.271,4.604,0 c0.246-0.244,0.43-0.525,0.578-0.816L35.99,12.641z"></path> </g> </g></svg>