<svg width="764" height="624" viewBox="0 0 764 624" fill="none" xmlns="http://www.w3.org/2000/svg">
<g filter="url(#filter0_d_17_149)">
<path d="M674.659 410.28C685.081 303.872 525.47 75.9246 418.49 188.72C362.18 248.114 225.169 317.149 124.577 352.503C26.7648 386.878 228.84 558.099 380.747 574.054C532.654 590.008 664.229 516.688 674.659 410.28Z" fill="#2EC4B6"/>
</g>
<path d="M171.595 489.64C177.454 489.64 177.463 480.21 171.595 480.21C165.726 480.21 165.717 489.64 171.595 489.64Z" fill="#0071F2"/>
<path d="M117.509 273.453C123.368 273.453 123.377 264.023 117.509 264.023C111.64 264.023 111.631 273.453 117.509 273.453Z" fill="#51AF5B"/>
<path d="M209.937 137.284C215.797 137.284 215.806 127.845 209.937 127.845C204.069 127.845 204.069 137.284 209.937 137.284Z" fill="#0071F2"/>
<path d="M209.937 137.284C215.797 137.284 215.806 127.845 209.937 127.845C204.069 127.845 204.069 137.284 209.937 137.284Z" fill="#0071F2"/>
<path d="M93.2588 484.295C99.1183 484.295 99.136 474.865 93.2588 474.865C87.3816 474.865 87.3639 484.295 93.2588 484.295Z" fill="#51AF5B"/>
<path d="M376.387 56.8818C382.247 56.8818 382.256 47.4426 376.387 47.4426C370.519 47.4426 370.51 56.8818 376.387 56.8818Z" fill="#51AF5B"/>
<path d="M318.145 419.079C324.004 419.079 324.013 409.649 318.145 409.649C312.276 409.649 312.268 419.079 318.145 419.079Z" fill="#0071F2"/>
<path d="M162.373 235.751C168.233 235.751 168.242 226.321 162.373 226.321C156.505 226.321 156.522 235.751 162.373 235.751Z" fill="#0071F2"/>
<path d="M202.807 535.465C208.667 535.465 208.676 526.026 202.807 526.026C196.939 526.026 196.93 535.465 202.807 535.465Z" fill="#51AF5B"/>
<path d="M520.882 493.907C526.741 493.907 526.75 484.477 520.882 484.477C515.013 484.477 515.013 493.907 520.882 493.907Z" fill="#51AF5B"/>
<path d="M537.825 125.396C543.693 125.396 543.702 115.966 537.825 115.966C531.948 115.966 531.957 125.396 537.825 125.396Z" fill="#51AF5B"/>
<path d="M657.857 419.079C663.717 419.079 663.726 409.649 657.857 409.649C651.989 409.649 651.989 419.079 657.857 419.079Z" fill="#51AF5B"/>
<path d="M188.617 422.214C191.547 422.214 191.547 417.499 188.617 417.499C185.687 417.499 185.679 422.214 188.617 422.214Z" fill="#0071F2"/>
<path d="M478.797 77.5968C481.727 77.5968 481.736 72.8818 478.797 72.8818C475.859 72.8818 475.868 77.5968 478.797 77.5968Z" fill="#0071F2"/>
<path d="M405.121 234.718C408.05 234.718 408.05 230.003 405.121 230.003C402.191 230.003 402.182 234.718 405.121 234.718Z" fill="#51AF5B"/>
<path d="M442.731 432.393C445.661 432.393 445.669 427.678 442.731 427.678C439.792 427.678 439.792 432.393 442.731 432.393Z" fill="#0071F2"/>
<path d="M357.477 556.318C360.406 556.318 360.415 551.602 357.477 551.602C354.538 551.602 354.547 556.318 357.477 556.318Z" fill="#51AF5B"/>
<path d="M618.156 552.927C621.085 552.927 621.085 548.212 618.156 548.212C615.226 548.212 615.217 552.927 618.156 552.927Z" fill="#0071F2"/>
<path d="M408.306 327.127C411.236 327.127 411.236 322.412 408.306 322.412C405.376 322.412 405.368 327.127 408.306 327.127Z" fill="#51AF5B"/>
<path d="M276.069 68.1942C278.999 68.1942 279.008 63.4792 276.069 63.4792C273.131 63.4792 273.131 68.1942 276.069 68.1942Z" fill="#51AF5B"/>
<path d="M121.903 380.391C124.833 380.391 124.842 375.676 121.903 375.676C118.965 375.676 118.974 380.391 121.903 380.391Z" fill="#51AF5B"/>
<path d="M401.52 121.914C404.45 121.914 404.45 117.199 401.52 117.199C398.59 117.199 398.581 121.914 401.52 121.914Z" fill="#51AF5B"/>
<path d="M662.252 142.456C665.191 142.456 665.191 137.741 662.252 137.741C659.314 137.741 659.323 142.456 662.252 142.456Z" fill="#51AF5B"/>
<path d="M288.097 399.031C291.027 399.031 291.036 394.316 288.097 394.316C285.159 394.316 285.167 399.031 288.097 399.031Z" fill="#51AF5B"/>
<path d="M532.442 364.802C535.372 364.802 535.372 360.087 532.442 360.087C529.512 360.087 529.503 364.802 532.442 364.802Z" fill="#51AF5B"/>
<path d="M576.353 70.6065C579.283 70.6065 579.292 65.8915 576.353 65.8915C573.415 65.8915 573.424 70.6065 576.353 70.6065Z" fill="#0071F2"/>
<path d="M659.066 506.636C661.996 506.636 661.996 501.921 659.066 501.921C656.137 501.921 656.128 506.636 659.066 506.636Z" fill="#51AF5B"/>
<path d="M333.385 121.202V134.268L326.952 137.119C326.952 137.119 329.026 170.161 344.328 161.489C359.63 152.818 363.742 138.252 360.468 137.119L355.879 134.268L355.332 121.832L333.385 121.202Z" fill="#FED4C0"/>
<path d="M505.448 186.061L453.488 194.348C451.138 194.72 448.738 194.542 446.464 193.825C444.19 193.109 442.1 191.873 440.348 190.209C415.331 166.305 398.802 154.344 388.76 148.377C379.759 143.041 360.715 136.297 360.715 136.297L360.909 137.302L360.521 137.138C342.669 175.616 326.987 137.138 326.987 137.138C326.987 137.138 307.944 143.872 298.943 149.218C288.9 155.184 272.372 167.136 247.354 191.05C245.6 192.715 243.507 193.95 241.229 194.665C238.952 195.38 236.548 195.556 234.196 195.18L182.237 186.901L171.859 214.25L231.867 230.853C236.142 232.035 240.614 232.25 244.976 231.482C249.339 230.714 253.491 228.982 257.149 226.403L295.625 199.2L295.792 198.616C296.587 229.099 298.863 262.405 298.863 262.405L299.587 277.492H387.754L387.798 276.651H387.957L388.68 261.565C388.68 261.565 390.957 228.258 391.751 197.775L391.919 198.36L430.535 225.599C434.194 228.178 438.345 229.91 442.708 230.678C447.071 231.446 451.542 231.231 455.818 230.049L515.825 213.446L505.448 186.061Z" fill="#2F2E41"/>
<path d="M366.222 92.5186C366.222 73.8687 356.603 58.755 344.725 58.755C332.847 58.755 323.228 73.8687 323.228 92.5643H323.096C322.041 92.5217 320.989 92.7218 320.018 93.1502C319.046 93.5786 318.178 94.2246 317.476 95.0418C316.775 95.859 316.256 96.8271 315.959 97.8764C315.662 98.9257 315.593 100.03 315.757 101.11C315.921 102.191 316.314 103.22 316.908 104.124C317.502 105.028 318.283 105.785 319.193 106.339C320.103 106.894 321.121 107.233 322.172 107.331C323.224 107.43 324.284 107.286 325.276 106.91C328.717 118.342 336.103 126.273 344.69 126.273C353.276 126.273 360.645 118.36 364.104 106.956C365.084 107.27 366.118 107.36 367.135 107.222C368.152 107.084 369.128 106.721 369.997 106.156C370.866 105.592 371.607 104.84 372.17 103.952C372.733 103.064 373.104 102.061 373.258 101.011C373.412 99.9604 373.345 98.8883 373.063 97.8672C372.78 96.8462 372.288 95.9004 371.62 95.0942C370.952 94.2881 370.124 93.6407 369.192 93.1962C368.261 92.7517 367.248 92.5205 366.222 92.5186Z" fill="#FED4C0"/>
<path d="M325.567 99.1159C325.567 99.1159 324.287 73.1011 333.218 67.4266C333.218 67.4266 336.491 63.0862 345.784 73.2747C355.076 83.4632 364.104 77.9989 364.104 77.9989C364.104 77.9989 366.372 95.534 364.916 99.1159C364.916 99.1159 378.029 75.9155 363.636 64.0366C349.243 52.1576 341.416 56.297 329.935 64.0366C329.935 64.0366 308.438 66.7047 325.567 99.1159Z" fill="#2F2E41"/>
<path d="M334.135 121.914C337.137 123.933 340.589 125.119 344.16 125.359C345.91 125.444 347.66 125.225 349.34 124.71C350.205 124.461 351.054 124.156 351.882 123.797C352.764 123.449 353.505 122.974 354.388 122.618C353.712 123.278 352.992 123.888 352.235 124.445C351.445 124.992 350.606 125.457 349.728 125.834C347.952 126.62 346.028 126.982 344.098 126.894C342.17 126.809 340.281 126.311 338.548 125.432C336.854 124.594 335.351 123.395 334.135 121.914Z" fill="#F9C0AA"/>
<path d="M302.181 277.455V537.001H335.697L340.065 310.652H348.81L365.568 537.001H399.084L384.515 277.455H302.181Z" fill="#FF9F1C"/>
<path d="M372.858 546.056C372.858 546.056 363.751 572.464 371.402 576.21H379.053C379.053 576.21 382.689 565.647 387.789 576.21H434.427C434.427 576.21 437.339 567.913 426.044 564.139C414.748 560.366 395.811 546.029 395.811 546.029L372.858 546.056Z" fill="#51AF5B"/>
<path d="M371.401 537L372.857 546.056H395.81V537H371.401Z" fill="#FED4C0"/>
<path d="M330.04 546.056C330.04 546.056 339.147 572.464 331.497 576.21H323.863C323.863 576.21 320.219 565.647 315.118 576.21H268.489C268.489 576.21 265.577 567.913 276.863 564.139C288.15 560.366 307.096 546.056 307.096 546.056H330.04Z" fill="#51AF5B"/>
<path d="M331.514 537L330.058 546.056H307.105V537H331.514Z" fill="#FED4C0"/>
<g opacity="0.2">
<path d="M351.829 310.013C349.392 310.564 346.902 310.825 344.407 310.789C341.913 310.83 339.422 310.569 336.986 310.013C339.421 309.449 341.912 309.185 344.407 309.227C346.902 309.189 349.393 309.453 351.829 310.013Z" fill="black"/>
</g>
<g opacity="0.2">
<path d="M301.422 232.361C301.758 234.763 302.274 237.133 302.967 239.452C303.276 240.621 303.69 241.754 304.052 242.897L305.376 246.241C307.26 250.629 309.793 254.687 312.886 258.266C315.937 261.875 319.552 264.927 323.581 267.294C325.578 268.534 327.667 269.606 329.829 270.501C331.973 271.479 334.241 272.064 336.465 272.941C335.318 272.694 334.162 272.439 333.014 272.155L331.25 271.744L330.367 271.534L329.529 271.232C327.274 270.452 325.082 269.489 322.972 268.354C318.687 266.12 314.86 263.048 311.703 259.308C308.521 255.609 306.016 251.343 304.308 246.716C302.541 242.143 301.565 237.284 301.422 232.361Z" fill="black"/>
</g>
<g opacity="0.2">
<path d="M311.906 236.564C312.715 238.845 313.694 241.057 314.836 243.18C315.374 244.249 316.01 245.272 316.601 246.314L318.578 249.302C321.284 253.185 324.555 256.61 328.276 259.454C332.011 262.331 336.188 264.537 340.63 265.978C342.834 266.768 345.094 267.379 347.39 267.806C349.676 268.299 352.032 268.382 354.37 268.765C353.188 268.765 352.014 268.765 350.84 268.765H349.076H348.193L347.311 268.646C344.948 268.377 342.611 267.909 340.321 267.248C335.684 265.991 331.325 263.819 327.482 260.852C323.614 257.917 320.29 254.283 317.669 250.125C314.993 245.99 313.043 241.4 311.906 236.564Z" fill="black"/>
</g>
<g opacity="0.2">
<path d="M376.379 173.606H350.628V206.867H376.379V173.606Z" fill="black"/>
</g>
<path d="M598.759 121.165V135.785L604.575 137.101C604.575 137.101 603.118 170.115 587.808 161.435C572.497 152.754 567.767 138.234 571.041 137.101L576.142 135.401L576.795 121.777L598.759 121.165Z" fill="#B86A4B"/>
<path d="M565.958 92.482C565.958 73.8321 575.577 58.7184 587.455 58.7184C599.333 58.7184 608.943 73.8321 608.943 92.482H609.084C610.98 92.482 612.798 93.2618 614.138 94.6499C615.479 96.0379 616.232 97.9205 616.232 99.8835C616.232 101.846 615.479 103.729 614.138 105.117C612.798 106.505 610.98 107.285 609.084 107.285C608.329 107.279 607.581 107.143 606.869 106.883C603.427 118.314 596.032 126.246 587.455 126.246C578.877 126.246 571.491 118.332 568.041 106.929C567.061 107.237 566.028 107.324 565.013 107.182C563.997 107.041 563.024 106.674 562.157 106.108C561.291 105.541 560.553 104.788 559.993 103.9C559.434 103.012 559.065 102.009 558.913 100.96C558.761 99.9107 558.83 98.8401 559.113 97.8209C559.397 96.8016 559.889 95.8576 560.557 95.0531C561.225 94.2486 562.052 93.6026 562.982 93.1589C563.913 92.7152 564.925 92.4843 565.949 92.482H565.958Z" fill="#B86A4B"/>
<path d="M606.577 99.0794C606.577 99.0794 607.857 73.1011 598.927 67.3901C598.927 67.3901 595.653 63.0497 586.36 73.2381C577.068 83.4266 568.04 77.9623 568.04 77.9623C568.04 77.9623 565.772 95.4974 567.229 99.0794C567.229 99.0794 554.115 75.8789 568.508 64C582.901 52.1211 590.728 56.2604 602.209 64C602.209 63.9634 623.697 66.6408 606.577 99.0794Z" fill="#2F2E41"/>
<path d="M598.009 121.878C596.798 123.373 595.294 124.585 593.597 125.432C591.867 126.312 589.98 126.81 588.055 126.894C586.125 126.982 584.201 126.62 582.425 125.834C581.546 125.461 580.706 124.996 579.918 124.445C579.161 123.888 578.441 123.278 577.765 122.618C578.648 122.974 579.433 123.449 580.271 123.797C581.099 124.157 581.948 124.462 582.813 124.71C584.492 125.225 586.243 125.444 587.993 125.359C591.564 125.106 595.013 123.907 598.009 121.878Z" fill="#B2593D"/>
<path d="M662.014 299.87L667.776 334.757C668.086 336.628 668.019 338.545 667.58 340.388C667.141 342.23 666.34 343.959 665.226 345.467L653.666 361.101C653.356 361.523 652.955 361.865 652.496 362.098C652.036 362.331 651.53 362.45 651.018 362.444C650.143 362.444 649.303 362.084 648.685 361.443C648.066 360.802 647.718 359.933 647.718 359.027C647.719 357.239 648.297 355.502 649.359 354.093L658.184 342.305C658.184 342.305 657.01 326.186 656.754 328.599L652.157 336.356C651.943 336.712 651.647 337.007 651.295 337.213C650.942 337.418 650.546 337.529 650.141 337.535C649.737 337.54 649.338 337.44 648.981 337.244C648.623 337.047 648.32 336.761 648.097 336.411C647.819 335.973 647.68 335.455 647.7 334.931C647.816 332.989 648.346 331.098 649.253 329.394L650.533 326.981C650.533 326.981 647.674 308.989 651.309 299.861L662.014 299.87Z" fill="#B86A4B"/>
<path d="M585.443 168.315L589.308 181.775L547.171 239.095C540.631 248.187 528.321 247.749 522.841 236.354C522.841 236.354 522.426 228.021 523.529 225.563C528.454 214.543 533.837 213.163 542.361 205.761L585.443 168.315Z" fill="#8C4D3E"/>
<path d="M586.96 169.887L590.826 183.347L548.688 240.667C542.149 249.759 529.839 249.32 524.359 237.926C524.359 237.926 523.944 229.592 525.047 227.134C529.971 216.114 535.354 214.734 543.879 207.333L586.96 169.887Z" fill="#8C4D3E"/>
<path d="M489.766 205.103C489.766 205.103 489.475 199.054 480.377 189.569C471.278 180.085 463.142 173.652 467.916 181.665L471.649 187.714C471.649 187.714 461.942 183.95 456.338 181.181C454.864 180.424 453.195 180.176 451.575 180.474C449.955 180.772 448.47 181.599 447.337 182.835C445.272 185.202 445.361 187.769 451.194 192.238C459.93 198.926 473.449 209.106 476.07 210.102C476.988 210.458 489.766 205.103 489.766 205.103Z" fill="#B86A4B"/>
<path d="M544.099 277.455H631.895L632.628 262.369L644.982 314.453L667.926 310.68C661.617 233.923 646.968 184.288 639.29 162.577C637.91 158.668 635.76 155.099 632.977 152.096C630.194 149.093 626.839 146.722 623.124 145.133L604.53 137.147C604.53 137.147 588.867 175.625 570.997 137.147L552.403 145.133C544.894 148.35 535.169 154.453 532.38 162.367C528.965 172.162 522.417 193.718 517.52 203.714C517.195 204.368 516.736 204.94 516.175 205.391C515.614 205.841 514.965 206.159 514.273 206.322C513.581 206.484 512.863 206.488 512.169 206.333C511.475 206.178 510.822 205.867 510.257 205.423L482.654 188.372L472.064 209.608L507.248 239.863C511.91 243.189 517.649 244.485 523.226 243.469C528.802 242.454 533.77 239.209 537.057 234.435L543.04 225.773L543.764 277.455H631.569" fill="#2F2E41"/>
<path d="M477.35 190.483C476.318 190.244 475.317 189.879 474.367 189.396C473.413 188.933 472.505 188.373 471.658 187.724C472.196 187.771 472.726 187.884 473.238 188.062C473.739 188.223 474.229 188.422 474.703 188.656C475.671 189.119 476.565 189.735 477.35 190.483Z" fill="#160B07"/>
<path d="M463.972 188.793C462.74 188.376 461.532 187.888 460.354 187.331C459.171 186.792 458.024 186.17 456.895 185.503C455.76 184.849 454.664 184.126 453.612 183.338C452.548 182.563 451.569 181.672 450.691 180.678C452.835 182.186 455.041 183.484 457.283 184.79C459.524 186.097 461.757 187.385 463.972 188.793Z" fill="#160B07"/>
<path d="M458.73 194.248C457.577 193.965 456.447 193.589 455.35 193.124C454.244 192.675 453.165 192.156 452.12 191.571C450.004 190.431 448.089 188.93 446.455 187.13C447.461 187.797 448.441 188.455 449.447 189.067C450.453 189.679 451.467 190.282 452.5 190.894L458.73 194.248Z" fill="#160B07"/>
<path d="M461.607 191.89C460.236 191.518 458.892 191.047 457.583 190.483C456.265 189.933 454.98 189.301 453.735 188.592C452.493 187.886 451.312 187.069 450.206 186.152C449.05 185.266 448.09 184.135 447.391 182.835C448.311 183.926 449.382 184.871 450.567 185.64C451.732 186.435 452.924 187.184 454.159 187.87C456.559 189.295 459.083 190.556 461.607 191.89Z" fill="#160B07"/>
<path d="M494.426 530.76L497.558 549.665L520.105 566.926C520.105 566.926 493.631 576.822 480.218 562.111L482.945 549.099L476.662 532.404L494.426 530.76Z" fill="#8C4D3E"/>
<path d="M410.901 530.76L410.804 549.665L388.283 566.926C388.283 566.926 414.757 576.822 428.17 562.111L425.444 549.099L428.691 532.404L410.901 530.76Z" fill="#8C4D3E"/>
<path d="M451.82 255.004L440.772 275.472C433.14 289.626 428.021 305.082 425.655 321.106L395.096 535.84L507.53 532.404L513.91 328.726C514.665 310.565 511.39 292.466 504.336 275.82C501.207 268.281 497.013 261.266 491.893 255.004H451.82Z" fill="#2F2E41"/>
<path d="M439.872 117.126C440.057 119.785 441.036 119.867 441.637 122.828C442.519 127.114 440.666 128.009 441.539 131.445C442.042 133.391 442.687 133.272 445.952 138.17C449.358 143.187 448.599 143.187 450.408 145.197C453.567 148.733 454.997 147.728 458.58 151.539C460.954 154.061 460.68 154.883 463.301 157.368C464.342 158.364 464.775 158.593 468.834 161.398C475.567 166.04 475.982 166.488 477.562 166.881C480.018 167.312 482.539 167.127 484.912 166.342C487.56 165.638 487.639 165.044 492.113 163.271C496.587 161.499 496.976 161.946 498.661 160.74C501.194 158.913 500.656 157.743 503.7 154.974C506.568 152.361 507.371 153.147 509.057 150.99C511.219 148.249 510.133 146.741 512.357 144.375C514.042 142.547 515.048 143.05 516.875 141.003C518.075 139.641 518.155 138.865 519.355 136.489C521.799 131.655 522.885 132.185 524.35 128.649C525.135 126.748 524.632 127.077 526.194 121.174C527.429 116.487 527.659 116.605 527.782 115.098C528.135 110.529 525.947 110.236 526.741 106.874C527.218 104.854 528.506 102.734 527.791 99.8835C527.076 94.5562 526.547 90.6545 523.723 87.0451C522.188 85.0897 521.958 85.6836 517.272 80.9594C514.334 77.9623 513.742 76.9754 511.713 75.7419C509.065 74.1245 508.624 74.8281 505.341 73.2199C501.088 71.0817 501.194 69.5009 497.779 68.3404C495.52 67.582 495.502 68.2764 491.16 67.6094C485.654 66.7687 485.468 65.6174 482.697 65.9006C479.741 66.2022 479.406 67.5819 475.126 68.8795C471.543 69.9669 470.987 68.8795 468.26 69.9577C465.534 71.036 465.737 72.0685 462.321 73.9326C458.28 76.1439 457.106 75.157 455.218 77.0668C453.329 78.9766 454.282 80.1919 452.217 83.9749C450.523 87.0634 449.702 86.6156 446.922 90.6362C445.339 93.0164 443.954 95.5323 442.784 98.1565C441.284 101.236 440.525 102.817 440.339 104.452C440.039 107.093 440.904 107.376 440.763 110.684C440.657 114.12 439.686 114.449 439.872 117.126Z" fill="#2F2E41"/>
<path d="M459.524 128.905H459.604C460.107 113.809 469.311 101.684 480.968 101.419C492.625 101.154 502.341 112.813 503.506 127.872H503.594C507.124 127.79 510.036 131.015 510.124 135.073C510.213 139.13 507.433 142.492 503.947 142.584C503.258 142.583 502.575 142.46 501.926 142.218C499.5 149.711 494.752 155.587 488.831 158.2L489.007 176.886L488.213 190.593L470.061 189.222L470.431 177.343L471.861 156.564H471.914C467.285 153.306 463.767 148.618 461.863 143.168C461.224 143.446 460.542 143.601 459.851 143.625C456.321 143.708 453.409 140.482 453.32 136.425C453.232 132.368 456.003 128.996 459.524 128.905Z" fill="#8C4D3E"/>
<path d="M416.451 317.25L413.23 341.967C413.064 343.306 413.191 344.667 413.602 345.948C414.013 347.229 414.697 348.398 415.604 349.368L425.126 359.84C425.393 360.127 425.719 360.351 426.078 360.494C426.438 360.638 426.824 360.698 427.208 360.672C427.856 360.667 428.475 360.397 428.932 359.921C429.388 359.445 429.644 358.802 429.644 358.131C429.572 356.858 429.058 355.654 428.197 354.741L420.934 346.855C420.934 346.855 421.261 335.497 421.552 337.188L425.39 342.433C425.585 342.677 425.831 342.871 426.11 343C426.389 343.129 426.693 343.189 426.999 343.176C427.304 343.163 427.602 343.076 427.87 342.923C428.137 342.771 428.367 342.556 428.541 342.296C428.745 341.985 428.836 341.609 428.797 341.236C428.632 339.869 428.154 338.562 427.402 337.425L426.317 335.79C426.317 335.79 427.888 323.052 424.737 316.802L416.451 317.25Z" fill="#8C4D3E"/>
<path d="M421.543 235.65L415.031 328.946L426.07 323.801L440.128 244.066L421.543 235.65Z" fill="#8C4D3E"/>
<path d="M419.99 250.572L423.67 200.79C423.976 196.633 425.233 192.61 427.337 189.054C429.44 185.499 432.33 182.512 435.768 180.34C439.798 177.782 444.169 175.849 448.74 174.602C455.821 172.861 463.075 171.99 470.352 172.007C470.352 172.007 478.003 193.891 488.928 172.007L504.035 177.27C508.37 178.784 512.357 181.205 515.75 184.382C519.143 187.559 521.869 191.424 523.758 195.737L540.066 223.507L527.085 239.954L505.147 224.238L491.91 255.004H451.82L442.996 223.507L439.766 250.572H419.99Z" fill="#FF9F1C"/>
<path d="M251.616 106.28C250.734 121.375 228.566 120.096 229.316 104.991C230.067 89.8869 252.384 91.1753 251.616 106.28Z" fill="#2F2E41"/>
<path d="M201.201 108.637C200.319 123.733 178.151 122.453 178.901 107.349C179.652 92.2444 201.96 93.5328 201.201 108.637Z" fill="#2F2E41"/>
<path d="M239.279 132.578H239.2C239.2 97.1696 199.127 94.8852 195.351 130.056C185.776 129.343 186.923 147.417 196.515 144.439C197.398 153.75 199.666 159.552 208.967 163.746C208.473 171.057 208.208 185.942 208.658 193.252L226.854 192.503L227.516 180.176L226.175 163.472C233.685 161.508 236.35 150.113 236.5 146.732C245.677 150.771 248.792 133.117 239.279 132.578Z" fill="#B86A4B"/>
<path d="M211.208 165.172C215.577 165.172 219.548 165.592 223.739 164.331C220.527 167.657 214.95 167.392 211.208 165.172Z" fill="#B2593D"/>
<path d="M201.44 118.122C208.032 118.223 206.973 113.142 207.811 108.985C207.811 108.985 211.729 118.36 219.521 109.661C221.286 107.678 220.298 122.627 229.396 112.192C231.708 109.898 233.808 123.376 237.832 122.636L237.7 136.005C264.112 85.6014 164.006 81.9098 197.575 137.942C197.575 137.978 194.009 118.013 201.44 118.122Z" fill="#2F2E41"/>
<path d="M214.659 98.2022L211.482 93.6334C211.482 93.6334 203.911 94.474 208.305 91.6048C212.7 88.7356 213.538 91.0565 213.485 91.9063L214.659 98.2022Z" fill="#2F2E41"/>
<path d="M281.02 320.338C280.764 326.177 287.426 348.007 281.902 352.457L272.372 362.929C268.701 365.907 266.247 360.489 269.301 357.821L276.607 349.935C276.607 349.935 276.281 338.586 275.99 340.267L272.151 345.512C271.154 346.947 268.577 346.161 268.745 344.324C268.895 342.342 270.113 340.468 271.224 338.842C271.224 338.842 269.654 326.104 272.804 319.854L281.02 320.338Z" fill="#B86A4B"/>
<path d="M275.937 238.73L282.44 332.025L271.401 326.881L257.343 247.155L275.937 238.73Z" fill="#B86A4B"/>
<path d="M248.532 275.776L247.079 276.23L247.298 276.983L248.751 276.528L248.532 275.776Z" fill="#200100"/>
<path d="M253.761 299.139L253.293 297.558L254.749 297.101L255.208 298.682L253.761 299.139ZM252.834 295.977L252.375 294.396L253.823 293.939L254.29 295.52L252.834 295.977ZM251.908 292.816L251.449 291.235L252.896 290.778L253.364 292.359L251.908 292.816ZM251.025 289.654L250.566 288.073L252.013 287.616L252.481 289.197L251.025 289.654ZM250.099 286.492L249.64 284.911L251.096 284.455L251.502 286.008L250.099 286.492ZM249.172 283.331L248.713 281.75L250.169 281.293L250.628 282.874L249.172 283.331ZM248.289 280.169L247.822 278.588L249.278 278.131L249.737 279.712L248.289 280.169Z" fill="#200100"/>
<path d="M256.236 301.486L254.779 301.942L254.999 302.696L256.456 302.24L256.236 301.486Z" fill="#200100"/>
<path d="M277.481 253.652C272.186 210.102 285.423 175.634 227.093 175.068C227.093 175.068 219.442 196.943 208.561 175.068L193.48 180.322C176.086 185.092 167.006 213.026 157.466 226.559V259.308L192.368 227.326L205.613 258.083H245.677L254.502 226.586L257.732 253.652H277.481Z" fill="#FF9F1C"/>
<g opacity="0.2">
<path d="M184.108 210.166C187.758 215.36 190.536 221.156 192.324 227.308C188.668 222.116 185.89 216.32 184.108 210.166Z" fill="black"/>
</g>
<g opacity="0.2">
<path d="M254.528 226.613C255.671 218.981 257.843 211.553 260.979 204.546C259.836 212.178 257.665 219.606 254.528 226.613Z" fill="black"/>
</g>
<path d="M152.136 168.352L140.761 176.009L136.949 247.931C136.789 250.463 137.336 252.988 138.523 255.207C139.711 257.426 141.489 259.244 143.646 260.446C145.804 261.648 148.249 262.182 150.692 261.985C153.134 261.788 155.47 260.868 157.422 259.335C169.159 238.017 154.272 190.858 152.136 168.352Z" fill="#B86A4B"/>
<path d="M153.275 181.09C153.275 181.09 156.266 176.521 154.713 164.541C153.16 152.562 150.698 143.251 149.895 151.749L149.392 158.246C149.392 158.246 144.362 150.022 141.785 144.822C138.343 138.691 128.16 138.682 132.219 149.894C134.981 159.68 139.349 174.712 140.717 176.923C141.194 177.69 153.275 181.09 153.275 181.09Z" fill="#B86A4B"/>
<path d="M152.039 163.463C150.822 161.93 149.921 160.154 149.392 158.246C150.768 159.665 151.691 161.485 152.039 163.463Z" fill="#B2593D"/>
<path d="M256.796 549.345C259.62 492.491 264.986 361.686 263.856 306.083C267.942 313.393 264.88 295.228 257.723 278.67C254.613 271.124 250.434 264.099 245.324 257.828H205.234C193.886 278.013 181.805 300.464 179.069 323.938L151.086 535.52L148.801 549.345L126.245 566.607C126.245 566.607 152.719 576.512 166.141 561.791L163.414 548.779L222.672 308.761H224.843L242.192 548.779L239.465 561.791C252.852 576.512 279.361 566.607 279.361 566.607L256.796 549.345Z" fill="#B86A4B"/>
<path d="M288.097 576.228C288.097 576.228 258.314 576.804 251.21 569.832V576.228H238.097C238.097 576.228 233.976 553.512 240.956 554.682C247.936 555.851 272.778 575.479 273.334 561.992C278.487 565.08 289.077 568.169 288.097 576.228Z" fill="#2F2E41"/>
<path d="M205.402 257.828L194.353 278.305C171.921 314.545 174.18 365.642 168.488 396.637H265.188C265.78 353.764 276.281 292.651 245.474 257.791L205.402 257.828Z" fill="#2F2E41"/>
<path d="M117.508 576.228C117.508 576.228 147.291 576.804 154.395 569.832V576.228H167.509C167.509 576.228 171.63 553.512 164.649 554.682C157.669 555.851 132.828 575.479 132.272 561.992C127.118 565.08 116.529 568.169 117.508 576.228Z" fill="#2F2E41"/>
<path d="M486.475 159.05C485.504 159.618 484.448 160.013 483.351 160.219C482.259 160.446 481.145 160.532 480.033 160.475C478.907 160.405 477.798 160.162 476.741 159.753C475.682 159.332 474.732 158.659 473.97 157.789C475.056 158.108 476.044 158.383 477.059 158.575C478.074 158.766 479.089 158.849 480.121 158.913C482.186 158.995 484.251 158.995 486.475 159.05Z" fill="#874032"/>
<g opacity="0.2">
<path d="M492.414 80.4843C492.115 80.4864 491.818 80.4433 491.531 80.3564C489.493 79.7716 488.522 77.3135 488.478 77.2039C488.441 77.1086 488.422 77.0065 488.423 76.9038C488.425 76.801 488.446 76.6995 488.485 76.6051C488.524 76.5108 488.581 76.4255 488.653 76.3541C488.724 76.2828 488.809 76.2269 488.901 76.1896C489.087 76.1111 489.296 76.1123 489.481 76.1928C489.667 76.2733 489.813 76.4266 489.89 76.6191C489.89 76.6191 490.631 78.4466 491.946 78.8487C492.347 78.9211 492.758 78.897 493.148 78.7781C493.539 78.6593 493.897 78.4489 494.196 78.1633C494.275 78.1007 494.366 78.055 494.462 78.0289C494.558 78.0028 494.658 77.9968 494.757 78.0112C494.856 78.0257 494.95 78.0603 495.036 78.1131C495.121 78.1659 495.196 78.2358 495.255 78.3187C495.316 78.4013 495.36 78.4955 495.385 78.596C495.411 78.6964 495.417 78.8011 495.403 78.9039C495.389 79.0067 495.355 79.1056 495.304 79.1949C495.253 79.2843 495.185 79.3622 495.105 79.4243C494.344 80.0727 493.398 80.4451 492.414 80.4843Z" fill="black"/>
</g>
<g opacity="0.2">
<path d="M516.24 94.0171C515.008 93.9332 513.831 93.4578 512.869 92.6556C512.713 92.5223 512.615 92.3305 512.596 92.1223C512.577 91.9141 512.639 91.7066 512.767 91.5454C512.896 91.3842 513.081 91.2826 513.283 91.2629C513.484 91.2432 513.684 91.307 513.84 91.4403C513.84 91.4403 515.34 92.7104 516.672 92.3541C517.06 92.225 517.414 92.003 517.703 91.7061C517.993 91.4092 518.211 91.0458 518.34 90.6453C518.426 90.4581 518.58 90.3132 518.768 90.2415C518.956 90.1698 519.163 90.177 519.346 90.2616C519.529 90.349 519.67 90.5077 519.74 90.703C519.809 90.8983 519.801 91.1142 519.717 91.3032C519.497 91.9265 519.136 92.4864 518.665 92.9362C518.194 93.386 517.626 93.7127 517.008 93.8892C516.758 93.9629 516.5 94.0059 516.24 94.0171Z" fill="black"/>
</g>
<g opacity="0.2">
<path d="M501.75 101.72C500.521 101.637 499.346 101.162 498.388 100.359C498.236 100.224 498.14 100.033 498.122 99.8263C498.104 99.6197 498.165 99.414 498.291 99.253C498.42 99.0932 498.605 98.9929 498.805 98.9741C499.005 98.9552 499.204 99.0194 499.359 99.1525C499.359 99.1525 500.868 100.404 502.192 100.066C502.578 99.9333 502.929 99.71 503.218 99.4136C503.507 99.1173 503.727 98.7559 503.859 98.3575C503.949 98.1782 504.102 98.0416 504.287 97.9761C504.472 97.9107 504.674 97.9214 504.851 98.0061C505.028 98.0908 505.167 98.2429 505.239 98.4309C505.31 98.6188 505.309 98.8282 505.236 99.0154C505.014 99.6393 504.652 100.199 504.179 100.649C503.707 101.099 503.137 101.425 502.518 101.601C502.268 101.673 502.01 101.712 501.75 101.72Z" fill="black"/>
</g>
<path d="M481.109 108.738C479.879 108.655 478.705 108.179 477.747 107.376L478.718 106.17C478.718 106.17 480.218 107.431 481.55 107.084C481.937 106.951 482.288 106.728 482.577 106.431C482.866 106.135 483.086 105.774 483.218 105.375L484.595 106.033C484.375 106.658 484.013 107.219 483.54 107.669C483.067 108.119 482.497 108.445 481.877 108.619C481.627 108.69 481.369 108.73 481.109 108.738Z" fill="#560D0D"/>
<g opacity="0.2">
<path d="M510.222 117.117C509.89 117.118 509.56 117.069 509.242 116.971C507.221 116.322 506.312 113.837 506.277 113.727C506.217 113.535 506.232 113.326 506.317 113.144C506.402 112.962 506.552 112.821 506.735 112.75C506.918 112.68 507.12 112.685 507.299 112.765C507.478 112.845 507.621 112.993 507.698 113.179C507.698 113.179 508.395 115.006 509.701 115.463C510.099 115.553 510.512 115.545 510.906 115.438C511.3 115.332 511.664 115.131 511.969 114.851C512.133 114.73 512.336 114.681 512.535 114.715C512.733 114.749 512.911 114.864 513.028 115.034C513.145 115.203 513.192 115.414 513.159 115.62C513.126 115.825 513.015 116.009 512.851 116.13C512.097 116.737 511.177 117.083 510.222 117.117Z" fill="black"/>
</g>
<g opacity="0.2">
<path d="M472.647 75.9246C472.314 75.9281 471.983 75.8756 471.667 75.7693C469.646 75.1296 468.728 72.6442 468.693 72.5345C468.658 72.438 468.642 72.3352 468.646 72.2322C468.649 72.1291 468.673 72.0278 468.715 71.9343C468.757 71.8407 468.816 71.7567 468.89 71.6872C468.963 71.6177 469.049 71.564 469.143 71.5294C469.332 71.4578 469.54 71.4655 469.723 71.5509C469.906 71.6363 470.05 71.7926 470.123 71.9863C470.123 71.9863 470.811 73.8138 472.117 74.2707C472.516 74.3545 472.928 74.3421 473.321 74.2343C473.714 74.1266 474.078 73.9264 474.385 73.6493C474.55 73.5282 474.755 73.4798 474.954 73.515C475.154 73.5501 475.331 73.6658 475.448 73.8367C475.565 74.0075 475.612 74.2195 475.578 74.426C475.544 74.6325 475.432 74.8166 475.267 74.9377C474.516 75.5435 473.599 75.8888 472.647 75.9246Z" fill="black"/>
</g>
<g opacity="0.2">
<path d="M451.15 97.4346C450.818 97.4336 450.487 97.3812 450.17 97.2793C448.149 96.6305 447.24 94.145 447.196 94.0354C447.126 93.8391 447.134 93.622 447.219 93.4317C447.303 93.2415 447.457 93.0938 447.646 93.0211C447.836 92.9484 448.046 92.9567 448.229 93.0441C448.413 93.1315 448.556 93.2908 448.626 93.4871C448.626 93.4871 449.314 95.3147 450.62 95.7807C451.019 95.8645 451.431 95.8521 451.824 95.7443C452.218 95.6366 452.582 95.4364 452.888 95.1593C452.969 95.0993 453.061 95.0565 453.158 95.0332C453.255 95.0099 453.356 95.0066 453.454 95.0236C453.553 95.0406 453.647 95.0774 453.731 95.1321C453.816 95.1867 453.889 95.2581 453.947 95.3421C454.005 95.4261 454.047 95.5211 454.069 95.6216C454.091 95.7222 454.095 95.8264 454.078 95.9282C454.062 96.03 454.026 96.1275 453.974 96.2151C453.921 96.3026 453.852 96.3786 453.771 96.4386C453.019 97.0466 452.103 97.3949 451.15 97.4346Z" fill="black"/>
</g>
<g opacity="0.2">
<path d="M448.943 119.502C448.611 119.504 448.28 119.452 447.964 119.347C445.943 118.707 445.034 116.212 444.999 116.112C444.939 115.919 444.953 115.711 445.039 115.529C445.124 115.347 445.273 115.206 445.456 115.135C445.639 115.065 445.841 115.07 446.021 115.15C446.2 115.229 446.343 115.378 446.419 115.564C446.419 115.564 447.117 117.437 448.423 117.848C448.821 117.933 449.232 117.922 449.626 117.816C450.019 117.71 450.383 117.511 450.691 117.236C450.772 117.176 450.863 117.133 450.961 117.11C451.058 117.086 451.158 117.083 451.257 117.1C451.355 117.117 451.449 117.154 451.534 117.209C451.618 117.263 451.692 117.335 451.75 117.419C451.808 117.503 451.849 117.598 451.871 117.698C451.894 117.799 451.897 117.903 451.881 118.005C451.864 118.107 451.829 118.204 451.776 118.292C451.723 118.379 451.654 118.455 451.573 118.515C450.818 119.122 449.898 119.467 448.943 119.502Z" fill="black"/>
</g>
<g opacity="0.2">
<path d="M468.693 92.0343C467.331 91.9101 466.056 91.2844 465.101 90.2707C464.961 90.1205 464.884 89.9186 464.887 89.7095C464.891 89.5005 464.974 89.3013 465.119 89.1559C465.264 89.0105 465.459 88.9307 465.661 88.9342C465.863 88.9376 466.055 89.0239 466.196 89.1742C466.196 89.1742 467.564 90.5814 468.905 90.4443C469.304 90.357 469.678 90.1755 469.997 89.914C470.317 89.6524 470.575 89.318 470.749 88.9366C470.858 88.7679 471.025 88.6491 471.216 88.605C471.407 88.5609 471.607 88.5948 471.774 88.6997C471.941 88.8047 472.063 88.9725 472.114 89.1681C472.165 89.3638 472.141 89.5722 472.046 89.7499C471.76 90.3438 471.34 90.8584 470.823 91.2509C470.306 91.6434 469.706 91.9026 469.073 92.0069L468.693 92.0343Z" fill="black"/>
</g>
<path d="M501.927 119.621C501.927 119.621 494.62 117.793 492.529 105.421C492.529 105.421 491.893 120.58 461.281 119.045L460.998 132.413L453.938 122.042C453.938 122.042 460.998 94.1542 485.142 96.9869C489.012 97.5607 492.681 99.1317 495.811 101.556C499.662 104.436 502.888 108.12 505.282 112.369C507.675 116.618 509.184 121.338 509.71 126.227L510.028 128.905C510.028 128.905 504.804 120.242 501.071 135.758L501.927 119.621Z" fill="#2F2E41"/>
<g opacity="0.2">
<path d="M462.277 108.071C461.047 107.99 459.872 107.514 458.915 106.709C458.771 106.573 458.683 106.384 458.67 106.182C458.656 105.981 458.719 105.781 458.844 105.626C458.969 105.47 459.147 105.371 459.341 105.348C459.535 105.325 459.73 105.381 459.886 105.503C459.886 105.503 461.386 106.773 462.719 106.417C463.105 106.284 463.456 106.061 463.745 105.764C464.035 105.468 464.254 105.107 464.387 104.708C464.476 104.529 464.63 104.392 464.814 104.327C464.999 104.261 465.201 104.272 465.378 104.357C465.555 104.441 465.694 104.594 465.766 104.782C465.838 104.969 465.837 105.179 465.763 105.366C465.542 105.99 465.179 106.55 464.707 107C464.234 107.45 463.664 107.776 463.045 107.952C462.795 108.023 462.537 108.063 462.277 108.071Z" fill="black"/>
</g>
<g opacity="0.2">
<path d="M483.36 107.577C482.128 107.494 480.95 107.018 479.989 106.216C479.836 106.081 479.741 105.89 479.723 105.684C479.705 105.477 479.765 105.271 479.892 105.11C480.019 104.949 480.203 104.847 480.404 104.826C480.604 104.806 480.804 104.869 480.959 105.001C480.959 105.001 482.477 106.262 483.792 105.914C484.178 105.781 484.53 105.558 484.819 105.262C485.108 104.965 485.327 104.604 485.46 104.206C485.55 104.026 485.703 103.89 485.888 103.824C486.072 103.759 486.274 103.77 486.452 103.854C486.629 103.939 486.768 104.091 486.839 104.279C486.911 104.467 486.91 104.676 486.837 104.864C486.617 105.487 486.256 106.047 485.785 106.496C485.313 106.946 484.745 107.273 484.127 107.449C483.877 107.523 483.62 107.566 483.36 107.577Z" fill="black"/>
</g>
<g opacity="0.2">
<path d="M517.043 132.432C515.81 132.35 514.633 131.875 513.672 131.07C513.528 130.934 513.44 130.745 513.427 130.543C513.413 130.341 513.476 130.142 513.601 129.987C513.726 129.831 513.904 129.732 514.098 129.709C514.292 129.686 514.487 129.742 514.643 129.864C514.643 129.864 516.143 131.116 517.476 130.778C517.862 130.645 518.213 130.422 518.502 130.125C518.791 129.829 519.011 129.467 519.143 129.069C519.228 128.88 519.381 128.734 519.57 128.662C519.758 128.59 519.967 128.598 520.149 128.685C520.24 128.728 520.323 128.788 520.391 128.864C520.459 128.94 520.512 129.028 520.546 129.125C520.581 129.222 520.596 129.326 520.592 129.429C520.587 129.532 520.563 129.634 520.52 129.727C520.3 130.35 519.939 130.91 519.468 131.36C518.997 131.81 518.429 132.136 517.811 132.313C517.559 132.379 517.302 132.419 517.043 132.432Z" fill="black"/>
</g>
<path d="M506.674 128.704C506.321 124.634 505.609 120.605 504.548 116.669C503.553 112.803 502.016 109.108 499.985 105.704C498.043 102.394 495.246 99.71 491.911 97.9554C488.546 96.3233 484.813 95.6755 481.118 96.0822C477.361 96.428 473.715 97.5818 470.413 99.4699C467.111 101.358 464.226 103.939 461.942 107.047C459.623 110.217 457.996 113.871 457.177 117.757C456.355 121.733 456.12 125.815 456.48 129.864C455.492 125.818 455.229 121.618 455.703 117.473C456.225 113.22 457.7 109.152 460.01 105.595C462.359 102.006 465.449 99.0023 469.057 96.8024C472.665 94.6025 476.701 93.261 480.871 92.8749C482.972 92.7122 485.085 92.8103 487.163 93.1673C489.273 93.5108 491.315 94.2083 493.208 95.2324C496.949 97.3191 500.017 100.496 502.033 104.37C503.985 108.075 505.333 112.089 506.021 116.249C506.737 120.356 506.956 124.54 506.674 128.704Z" fill="#51AF5B"/>
<path d="M528.851 576.585C528.851 576.585 499.067 577.17 491.964 570.188V576.585H478.85C478.85 576.585 474.729 553.869 481.709 555.038C488.69 556.208 513.531 575.835 514.087 562.348L523.794 567.548C525.307 568.351 526.577 569.571 527.463 571.073C528.349 572.576 528.817 574.303 528.815 576.064L528.851 576.585Z" fill="#2F2E41"/>
<path d="M379.511 576.585C379.511 576.585 409.294 577.17 416.398 570.188V576.585H429.512C429.512 576.585 433.633 553.869 426.652 555.038C419.672 556.208 394.84 575.835 394.275 562.348L384.568 567.548C383.056 568.352 381.787 569.573 380.901 571.075C380.015 572.578 379.547 574.304 379.547 576.064L379.511 576.585Z" fill="#2F2E41"/>
<g opacity="0.2">
<path d="M494.655 275.957C494.492 275.957 494.334 275.904 494.203 275.803C494.073 275.703 493.977 275.561 493.931 275.399L493.296 273.215C493.258 273.114 493.24 273.006 493.244 272.898C493.248 272.79 493.273 272.683 493.319 272.585C493.364 272.488 493.429 272.401 493.508 272.33C493.588 272.26 493.681 272.207 493.781 272.175C493.881 272.144 493.986 272.134 494.09 272.146C494.194 272.159 494.295 272.194 494.385 272.249C494.476 272.303 494.554 272.377 494.616 272.465C494.677 272.552 494.721 272.652 494.743 272.758L495.405 275.015C495.463 275.215 495.443 275.431 495.349 275.616C495.255 275.8 495.094 275.939 494.902 276.002C494.818 275.998 494.735 275.983 494.655 275.957Z" fill="black"/>
<path d="M499.473 292.551C499.311 292.551 499.152 292.498 499.021 292.397C498.891 292.296 498.795 292.155 498.75 291.993L497.567 287.836C497.529 287.735 497.511 287.627 497.515 287.518C497.519 287.41 497.544 287.303 497.59 287.206C497.635 287.108 497.7 287.021 497.779 286.95C497.859 286.88 497.952 286.827 498.052 286.795C498.152 286.764 498.257 286.754 498.361 286.767C498.465 286.779 498.566 286.814 498.656 286.869C498.747 286.924 498.825 286.997 498.887 287.085C498.948 287.173 498.992 287.273 499.014 287.379L500.232 291.518C500.261 291.617 500.27 291.721 500.26 291.824C500.249 291.926 500.219 292.026 500.172 292.117C500.124 292.208 500.06 292.288 499.983 292.353C499.905 292.418 499.816 292.466 499.72 292.496C499.642 292.531 499.558 292.549 499.473 292.551ZM497.055 284.272C496.892 284.27 496.733 284.216 496.602 284.116C496.471 284.016 496.373 283.875 496.323 283.714L495.14 279.612C495.104 279.512 495.089 279.405 495.094 279.298C495.099 279.192 495.125 279.087 495.171 278.991C495.216 278.896 495.28 278.81 495.358 278.741C495.437 278.671 495.528 278.619 495.626 278.588C495.725 278.556 495.829 278.545 495.931 278.556C496.034 278.568 496.133 278.6 496.223 278.653C496.313 278.705 496.392 278.775 496.454 278.86C496.517 278.945 496.562 279.042 496.588 279.146L497.805 283.294C497.863 283.493 497.843 283.707 497.749 283.89C497.654 284.074 497.494 284.211 497.302 284.272C497.229 284.284 497.155 284.284 497.082 284.272H497.055Z" fill="black"/>
<path d="M501.371 298.947C501.208 298.948 501.05 298.894 500.919 298.793C500.789 298.693 500.693 298.551 500.647 298.389L499.985 296.132C499.927 295.933 499.947 295.717 500.043 295.533C500.138 295.348 500.3 295.211 500.493 295.15C500.686 295.09 500.894 295.111 501.072 295.209C501.25 295.308 501.383 295.476 501.441 295.676L502.103 297.933C502.133 298.032 502.143 298.136 502.133 298.239C502.124 298.342 502.094 298.442 502.046 298.533C501.999 298.624 501.934 298.705 501.856 298.769C501.778 298.834 501.688 298.882 501.591 298.91C501.521 298.936 501.446 298.949 501.371 298.947Z" fill="black"/>
</g>
<g opacity="0.2">
<path d="M513.363 207.095C511.552 213.238 508.776 219.029 505.147 224.238C506.967 218.099 509.743 212.309 513.363 207.095Z" fill="black"/>
</g>
<g opacity="0.2">
<path d="M442.943 223.507C439.832 216.486 437.662 209.059 436.492 201.43C438.079 204.922 439.401 208.536 440.446 212.24C441.555 215.924 442.39 219.69 442.943 223.507Z" fill="black"/>
</g>
<path d="M629.345 277.455V537.001H595.829L591.461 310.652H582.716L565.958 537.001H532.442L547.011 277.455H629.345Z" fill="#FF9F1C"/>
<g opacity="0.2">
<path d="M543.005 183.146C543.314 186.7 543.464 190.246 543.587 193.8C543.711 197.355 543.746 200.909 543.764 204.455C543.782 208 543.764 211.564 543.587 215.118L543.376 220.445C543.252 222.218 543.173 224 543.005 225.773C542.829 224 542.758 222.218 542.634 220.445L542.423 215.118C542.281 211.564 542.264 208.009 542.246 204.455C542.228 200.9 542.246 197.355 542.423 193.8C542.599 190.246 542.714 186.7 543.005 183.146Z" fill="black"/>
</g>
<g opacity="0.2">
<path d="M631.895 185.028C632.275 191.424 632.478 197.912 632.663 204.354C632.848 210.796 632.893 217.247 633.025 223.689C633.157 230.131 633.087 236.583 633.025 243.025L632.91 252.692C632.813 255.918 632.769 259.143 632.628 262.369C632.425 259.143 632.319 255.927 632.16 252.701L631.842 243.061C631.666 236.61 631.604 230.168 631.489 223.726C631.375 217.284 631.419 210.833 631.489 204.391C631.56 197.949 631.648 191.479 631.895 185.028Z" fill="black"/>
</g>
<path d="M558.669 546.056C558.669 546.056 567.776 572.464 560.125 576.21H552.474C552.474 576.21 548.83 565.647 543.729 576.21H497.1C497.1 576.21 494.187 567.913 505.474 564.139C516.761 560.366 535.716 546.029 535.716 546.029L558.669 546.056Z" fill="#51AF5B"/>
<path d="M560.125 537L558.669 546.056H535.716V537H560.125Z" fill="#B86A4B"/>
<path d="M601.468 546.056C601.468 546.056 592.361 572.464 600.012 576.21H607.663C607.663 576.21 611.308 565.647 616.408 576.21H663.038C663.038 576.21 665.95 567.913 654.654 564.139C643.359 560.366 624.421 546.029 624.421 546.029L601.468 546.056Z" fill="#51AF5B"/>
<path d="M600.012 537L601.468 546.056H624.421V537H600.012Z" fill="#B86A4B"/>
<g opacity="0.2">
<path d="M580.607 310.013C583.043 309.453 585.533 309.189 588.028 309.227C590.524 309.185 593.015 309.449 595.45 310.013C593.014 310.569 590.523 310.83 588.028 310.789C585.534 310.825 583.044 310.564 580.607 310.013Z" fill="black"/>
</g>
<path d="M538.531 221.935L543.005 226.504L543.243 242.951C543.243 242.951 529.856 250.517 525.55 238.383L538.531 221.935Z" fill="#8C4D3E"/>
<path d="M459.057 154.262H452.773V140.299H459.057V154.262ZM453.912 153.083H457.918V141.478H453.912V153.083Z" fill="#51AF5B"/>
<path d="M510.557 153.512H504.274V139.513H510.557V153.512ZM505.412 152.334H509.419V140.72H505.412V152.334Z" fill="#51AF5B"/>
<path d="M505.403 140.72V139.075H509.233C508.368 140.606 507.014 141.777 505.403 142.383V140.72Z" fill="#8C4D3E"/>
<path d="M457.997 143.333V140.263H454.388C455.204 141.695 456.483 142.782 457.997 143.333Z" fill="#8C4D3E"/>
<path d="M202.304 175.799L204.237 180.66C204.691 181.81 204.849 183.063 204.695 184.295C204.54 185.527 204.078 186.696 203.354 187.687C203.057 188.11 202.71 188.494 202.322 188.829C201.76 189.339 201.118 189.747 200.424 190.035L193.603 192.95C193.363 193.054 193.115 193.137 192.862 193.197C192.412 193.354 191.942 193.441 191.467 193.453C190.011 193.573 188.556 193.21 187.312 192.416C186.068 191.623 185.101 190.44 184.549 189.039L182.669 184.178C182.249 183.12 182.252 181.933 182.678 180.877C183.103 179.822 183.916 178.984 184.937 178.549L196.895 173.46C197.912 173.033 199.051 173.039 200.064 173.477C201.077 173.915 201.882 174.75 202.304 175.799Z" fill="#FED4C0"/>
<path d="M203.39 187.687C203.092 188.11 202.745 188.494 202.357 188.829L198.554 179.582C198.482 179.407 198.481 179.211 198.549 179.035C198.618 178.859 198.751 178.719 198.92 178.645C199.088 178.571 199.278 178.57 199.448 178.641C199.618 178.712 199.753 178.85 199.824 179.025L203.39 187.687Z" fill="#F9C0AA"/>
<path d="M200.054 190.218L198.774 190.757L194.848 181.263C194.795 181.092 194.807 180.906 194.88 180.743C194.953 180.58 195.082 180.451 195.242 180.381C195.402 180.312 195.582 180.306 195.745 180.366C195.909 180.426 196.045 180.547 196.127 180.706L200.054 190.218Z" fill="#F9C0AA"/>
<path d="M196.286 191.817L194.998 192.366L191.177 183.091C191.111 182.92 191.112 182.729 191.18 182.559C191.247 182.388 191.376 182.251 191.538 182.177C191.704 182.112 191.887 182.114 192.051 182.184C192.215 182.253 192.347 182.385 192.421 182.552L196.286 191.817Z" fill="#F9C0AA"/>
<path d="M192.897 193.197C192.447 193.354 191.977 193.441 191.503 193.453L187.576 183.913C187.512 183.743 187.513 183.554 187.579 183.384C187.644 183.215 187.769 183.077 187.929 182.999C188.095 182.93 188.281 182.931 188.446 183.003C188.612 183.075 188.743 183.212 188.811 183.383L192.897 193.197Z" fill="#F9C0AA"/>
<path d="M514.863 182.378L512.895 187.23C512.432 188.374 511.69 189.375 510.742 190.134C509.794 190.893 508.672 191.385 507.486 191.561C506.986 191.636 506.48 191.651 505.977 191.607C505.232 191.553 504.502 191.371 503.815 191.068L497.011 188.116C496.338 187.809 495.714 187.399 495.158 186.901C494.042 185.914 493.26 184.584 492.926 183.105C492.591 181.626 492.72 180.075 493.296 178.677L495.264 173.825C495.692 172.773 496.506 171.94 497.527 171.509C498.547 171.077 499.691 171.082 500.709 171.523L512.631 176.704C513.139 176.922 513.6 177.243 513.987 177.647C514.375 178.052 514.682 178.531 514.889 179.059C515.097 179.587 515.201 180.152 515.197 180.721C515.192 181.291 515.079 181.854 514.863 182.378Z" fill="#FED4C0"/>
<path d="M507.486 191.561C506.986 191.636 506.48 191.651 505.977 191.607L509.622 182.287C509.691 182.111 509.824 181.971 509.993 181.897C510.162 181.824 510.352 181.822 510.522 181.894C510.691 181.965 510.827 182.104 510.898 182.278C510.969 182.453 510.97 182.65 510.901 182.826L507.486 191.561Z" fill="#F9C0AA"/>
<path d="M503.409 190.894L502.121 190.337L505.853 180.761C505.924 180.591 506.055 180.456 506.22 180.384C506.384 180.312 506.569 180.31 506.736 180.377C506.819 180.41 506.896 180.46 506.96 180.525C507.025 180.589 507.076 180.666 507.112 180.751C507.147 180.836 507.166 180.928 507.166 181.02C507.167 181.113 507.15 181.205 507.115 181.291L503.409 190.894Z" fill="#F9C0AA"/>
<path d="M499.641 189.259L498.361 188.701L502.024 179.354C502.054 179.266 502.102 179.186 502.164 179.119C502.226 179.052 502.301 178.998 502.384 178.962C502.467 178.926 502.556 178.908 502.646 178.91C502.736 178.911 502.824 178.931 502.906 178.97C503.069 179.044 503.199 179.18 503.269 179.349C503.339 179.519 503.345 179.71 503.285 179.883L499.641 189.259Z" fill="#F9C0AA"/>
<path d="M496.314 187.751C495.893 187.524 495.504 187.238 495.158 186.901L498.917 177.27C498.986 177.098 499.116 176.961 499.281 176.886C499.445 176.811 499.631 176.804 499.8 176.868C499.967 176.937 500.101 177.072 500.172 177.244C500.244 177.415 500.246 177.609 500.179 177.782L496.314 187.751Z" fill="#F9C0AA"/>
<path d="M629.848 148.231L627.88 153.074C627.418 154.219 626.677 155.22 625.728 155.98C624.78 156.739 623.658 157.23 622.471 157.405C621.972 157.489 621.465 157.504 620.962 157.451C620.218 157.399 619.487 157.22 618.8 156.921L611.996 153.96C611.752 153.864 611.518 153.742 611.299 153.595C610.876 153.374 610.487 153.091 610.143 152.754C609.029 151.766 608.247 150.436 607.913 148.957C607.578 147.479 607.707 145.928 608.281 144.53L610.249 139.687C610.677 138.635 611.491 137.802 612.512 137.371C613.532 136.939 614.676 136.944 615.693 137.384L627.616 142.565C628.123 142.784 628.583 143.104 628.97 143.508C629.357 143.912 629.663 144.391 629.87 144.917C630.078 145.444 630.182 146.008 630.179 146.576C630.175 147.145 630.063 147.707 629.848 148.231Z" fill="#8C4D3E"/>
<path d="M622.471 157.405C621.972 157.489 621.465 157.504 620.962 157.451L624.606 148.13C624.675 147.959 624.806 147.822 624.971 147.75C625.137 147.678 625.323 147.677 625.489 147.746C625.656 147.816 625.791 147.95 625.863 148.121C625.936 148.292 625.941 148.486 625.877 148.66L622.471 157.405Z" fill="#874032"/>
<path d="M618.394 156.738L617.114 156.19L620.847 146.604C620.919 146.436 621.051 146.302 621.215 146.231C621.379 146.159 621.563 146.156 621.73 146.22C621.894 146.293 622.024 146.429 622.093 146.6C622.163 146.77 622.165 146.962 622.1 147.134L618.394 156.738Z" fill="#874032"/>
<path d="M614.626 155.111L613.355 154.554L617.008 145.206C617.04 145.12 617.089 145.041 617.151 144.974C617.213 144.907 617.287 144.854 617.37 144.817C617.452 144.78 617.54 144.761 617.63 144.761C617.719 144.76 617.808 144.778 617.891 144.813C618.057 144.884 618.189 145.02 618.26 145.19C618.331 145.361 618.335 145.554 618.27 145.727L614.626 155.111Z" fill="#874032"/>
<path d="M611.299 153.595C610.876 153.374 610.486 153.091 610.143 152.754L613.902 143.141C613.971 142.969 614.101 142.832 614.265 142.757C614.43 142.682 614.616 142.675 614.784 142.739C614.868 142.772 614.944 142.822 615.009 142.887C615.073 142.951 615.125 143.028 615.16 143.113C615.196 143.198 615.214 143.29 615.215 143.383C615.215 143.475 615.198 143.567 615.164 143.653L611.299 153.595Z" fill="#874032"/>
<path d="M457.892 169.96L459.718 174.867C460.151 176.023 460.287 177.276 460.112 178.503C459.938 179.73 459.458 180.889 458.721 181.866C458.414 182.282 458.058 182.656 457.662 182.981C457.091 183.478 456.444 183.874 455.747 184.151L448.855 186.892C448.615 186.99 448.367 187.067 448.114 187.121C447.659 187.264 447.186 187.341 446.711 187.349C445.253 187.434 443.807 187.037 442.581 186.216C441.355 185.395 440.412 184.192 439.889 182.78L438.063 177.873C437.866 177.345 437.773 176.782 437.787 176.217C437.801 175.651 437.922 175.094 438.144 174.577C438.366 174.061 438.685 173.594 439.081 173.205C439.477 172.815 439.944 172.511 440.454 172.308L452.517 167.493C453.027 167.289 453.57 167.192 454.115 167.206C454.661 167.22 455.199 167.345 455.698 167.574C456.197 167.803 456.648 168.132 457.024 168.541C457.4 168.95 457.695 169.433 457.892 169.96Z" fill="#B86A4B"/>
<path d="M458.721 181.903C458.414 182.318 458.058 182.693 457.662 183.018L454.053 173.688C453.989 173.515 453.992 173.322 454.063 173.151C454.134 172.981 454.267 172.845 454.432 172.774C454.6 172.71 454.785 172.715 454.949 172.788C455.114 172.862 455.244 172.997 455.315 173.167L458.721 181.903Z" fill="#B2593D"/>
<path d="M455.35 184.352L454.053 184.873L450.338 175.287C450.277 175.111 450.284 174.918 450.358 174.747C450.432 174.577 450.567 174.443 450.735 174.374C450.818 174.34 450.907 174.323 450.997 174.325C451.087 174.327 451.175 174.347 451.257 174.384C451.339 174.422 451.413 174.476 451.475 174.543C451.537 174.61 451.585 174.689 451.617 174.776L455.35 184.352Z" fill="#B2593D"/>
<path d="M451.529 185.869L450.232 186.389L446.614 177.023C446.58 176.938 446.562 176.846 446.563 176.753C446.564 176.66 446.582 176.569 446.618 176.484C446.653 176.399 446.704 176.322 446.769 176.257C446.833 176.193 446.91 176.143 446.993 176.11C447.161 176.045 447.346 176.05 447.51 176.124C447.675 176.197 447.805 176.332 447.876 176.503L451.529 185.869Z" fill="#B2593D"/>
<path d="M448.114 187.166C447.659 187.309 447.187 187.386 446.711 187.395L442.996 177.764C442.936 177.59 442.942 177.399 443.012 177.23C443.083 177.06 443.213 176.924 443.375 176.85C443.545 176.784 443.733 176.791 443.898 176.868C444.063 176.945 444.193 177.086 444.258 177.261L448.114 187.166Z" fill="#B2593D"/>
<defs>
<filter id="filter0_d_17_149" x="94.8613" y="158.158" width="584.284" height="426.076" filterUnits="userSpaceOnUse" color-interpolation-filters="sRGB">
<feFlood flood-opacity="0" result="BackgroundImageFix"/>
<feColorMatrix in="SourceAlpha" type="matrix" values="0 0 0 0 0 0 0 0 0 0 0 0 0 0 0 0 0 0 127 0" result="hardAlpha"/>
<feOffset dy="4"/>
<feGaussianBlur stdDeviation="2"/>
<feComposite in2="hardAlpha" operator="out"/>
<feColorMatrix type="matrix" values="0 0 0 0 0 0 0 0 0 0 0 0 0 0 0 0 0 0 0.25 0"/>
<feBlend mode="normal" in2="BackgroundImageFix" result="effect1_dropShadow_17_149"/>
<feBlend mode="normal" in="SourceGraphic" in2="effect1_dropShadow_17_149" result="shape"/>
</filter>
</defs>
</svg>
