<svg width="815" height="578" viewBox="0 0 815 578" fill="none" xmlns="http://www.w3.org/2000/svg">
<path d="M570.856 33.8222H166.622V271.645H570.856V33.8222Z" fill="#FF9F1C"/>
<path d="M566.252 37.9526H170.67V267.158H566.252V37.9526Z" fill="#2EC4B6"/>
<path opacity="0.29" d="M370.9 105.504H311.029V172.54H370.9V105.504Z" fill="#FF9F1C"/>
<path d="M356.054 118.31L365.759 118.505L360.167 123.431L356.054 122.432V118.31Z" fill="#FF9F1C"/>
<path opacity="0.29" d="M450.634 105.504H390.763V172.54H450.634V105.504Z" fill="#FF9F1C"/>
<path opacity="0.29" d="M528.909 105.377H469.038V172.412H528.909V105.377Z" fill="#FF9F1C"/>
<path d="M284.406 103.456H203.157V104.514H284.406V103.456Z" fill="#FF9F1C"/>
<path d="M284.406 108.923H203.157V109.982H284.406V108.923Z" fill="#FF9F1C"/>
<path d="M284.406 114.84H203.157V115.898H284.406V114.84Z" fill="#FF9F1C"/>
<path d="M284.406 120.308H203.157V121.366H284.406V120.308Z" fill="#FF9F1C"/>
<path d="M284.406 125.124H203.157V126.182H284.406V125.124Z" fill="#FF9F1C"/>
<path d="M356.054 122.432H320.65V165.497H356.054V122.432Z" fill="#FF9F1C"/>
<path d="M320.65 122.432L319.228 116.753H356.054V122.432H320.65Z" fill="#B3E55E"/>
<path d="M356.054 165.497H360.167V123.431L356.054 122.432V165.497Z" fill="#0071F2"/>
<path d="M356.054 165.497H360.167V123.431L356.054 122.432V165.497Z" fill="#FF9F1C"/>
<path opacity="0.3" d="M320.65 139.919V149.298L356.054 135.509V126.986L320.65 139.919Z" fill="white"/>
<path opacity="0.3" d="M320.65 156.264V151.998L356.054 138.142V142.416L320.65 156.264Z" fill="white"/>
<path opacity="0.3" d="M332.483 133.25C336.265 132.157 338.737 129.612 338.005 127.565C337.272 125.518 333.615 124.744 329.832 125.837C326.05 126.93 323.579 129.476 324.31 131.523C325.043 133.57 328.702 134.343 332.483 133.25Z" fill="#FF9F1C"/>
<path opacity="0.3" d="M331.155 158.684H322.824V163.644H331.155V158.684Z" fill="white"/>
<path opacity="0.3" d="M353.927 158.684H332.869V163.644H353.927V158.684Z" fill="white"/>
<path d="M432.089 134.18V161.164C432.089 161.902 431.762 162.611 431.181 163.133C430.601 163.656 429.812 163.948 428.991 163.948H413.93C413.523 163.948 413.121 163.876 412.746 163.736C412.37 163.596 412.029 163.391 411.743 163.133C411.456 162.874 411.229 162.567 411.073 162.229C410.919 161.891 410.841 161.529 410.843 161.164V134.079C410.841 133.417 411.032 132.766 411.398 132.191L414.503 127.274C415.107 126.343 415.433 125.287 415.445 124.21V114.764H427.899V124.074C427.893 125.054 428.149 126.02 428.643 126.893L431.562 132.047C431.919 132.712 432.1 133.442 432.089 134.18Z" fill="#FF9F1C"/>
<path opacity="0.3" d="M432.089 145.217V161.164C432.089 161.902 431.762 162.61 431.181 163.133C430.601 163.654 429.812 163.948 428.991 163.948H413.93C413.523 163.948 413.121 163.876 412.746 163.736C412.37 163.596 412.029 163.391 411.743 163.131C411.456 162.873 411.229 162.567 411.073 162.228C410.919 161.891 410.841 161.528 410.843 161.164V158.801C415.878 158.801 427.673 157.431 432.089 145.217Z" fill="white"/>
<path d="M360.102 169.534H322.824V179.107H360.102V169.534Z" fill="#4CA255"/>
<path d="M439.836 169.534H402.558V179.107H439.836V169.534Z" fill="#4C9D55"/>
<path d="M518.12 169.399H480.842V178.972H518.12V169.399Z" fill="#4BA255"/>
<path d="M427.344 111.793H415.558C414.549 111.793 413.733 112.528 413.733 113.435V114.256C413.733 115.163 414.549 115.898 415.558 115.898H427.344C428.352 115.898 429.17 115.163 429.17 114.256V113.435C429.17 112.528 428.352 111.793 427.344 111.793Z" fill="#41994A"/>
<path d="M519.155 130.558H515.39V126.326H482.537V130.558H478.77C478.023 130.558 477.304 130.825 476.773 131.302C476.244 131.778 475.946 132.424 475.946 133.097V160.605C475.946 161.278 476.244 161.925 476.773 162.4C477.304 162.877 478.023 163.145 478.77 163.145H519.128C519.877 163.145 520.595 162.877 521.124 162.4C521.654 161.925 521.952 161.278 521.952 160.605V133.097C521.952 132.428 521.658 131.786 521.135 131.31C520.611 130.835 519.9 130.564 519.155 130.558Z" fill="#FF9F1C"/>
<path d="M517.612 123.253H480.333V129.356H517.612V123.253Z" fill="#42974B"/>
<path opacity="0.3" d="M480.842 136.381V155.382C480.842 156.729 481.437 158.021 482.497 158.974C483.555 159.926 484.992 160.461 486.491 160.461H512.303C513.057 160.461 513.803 160.326 514.497 160.063C515.192 159.8 515.822 159.414 516.348 158.929C516.874 158.443 517.286 157.868 517.562 157.238C517.837 156.607 517.97 155.934 517.952 155.256L517.508 135.213C517.508 135.213 506.569 139.707 499.951 136.355C499.951 136.355 495.405 133.63 490.934 136.584C489.709 137.405 488.287 137.956 486.783 138.192C485.703 138.42 484.573 138.37 483.524 138.05C482.474 137.73 481.544 137.152 480.842 136.381Z" fill="#A8F8B1"/>
<path opacity="0.3" d="M498.973 153.784C508.3 153.784 515.861 150.807 515.861 147.139C515.861 143.469 508.3 140.494 498.973 140.494C489.645 140.494 482.084 143.469 482.084 147.139C482.084 150.807 489.645 153.784 498.973 153.784Z" fill="#B3E55E"/>
<path d="M636.564 546.946C636.564 546.946 639.04 557.348 633.484 557.804H558.561C557.061 557.81 555.579 557.501 554.234 556.901C552.89 556.3 551.72 555.427 550.818 554.348C549.916 553.269 549.305 552.017 549.036 550.688C548.769 549.361 548.848 547.995 549.27 546.7L549.345 546.48L636.564 546.946Z" fill="#E6E7E8"/>
<path d="M599.416 519.369C599.416 519.369 552.565 535.206 549.345 546.455C549.137 547.24 549.247 548.066 549.655 548.785C550.065 549.503 550.746 550.067 551.576 550.373C554.627 551.55 561.931 552.963 579.225 552.345H627.677C627.677 552.345 639.039 554.156 637.015 538.727L634.483 519.42L599.416 519.369Z" fill="#FF9F1C"/>
<path d="M604.34 268.174V259.972L619.967 247.335L626.877 252.347L628.139 263.84L604.34 268.174Z" fill="#F7A48B"/>
<path d="M598.429 272.982C593.41 274.743 581.164 280.693 577.719 297.527L566.281 330.698L523.195 332.637V347.77H597.224L600.594 343.14L602.279 377.783L679.415 369.464C679.415 369.464 683.453 347.457 685.476 342.911C685.476 342.911 676.392 284.468 650.364 269.207C648.026 267.874 645.416 266.971 642.688 266.549C639.958 266.128 637.163 266.196 634.465 266.752C628.76 267.87 618.14 269.791 601.77 272.17C600.629 272.336 599.508 272.608 598.429 272.982Z" fill="#FF9F1C"/>
<path opacity="0.2" d="M523.195 332.637V337.343C523.195 337.343 560.746 332.129 575.61 337.343C575.61 337.343 575.61 331.866 566.271 330.732L523.195 332.637Z" fill="black"/>
<path d="M450.163 533.234C450.163 533.234 445.033 550.644 463.342 553.149C464.721 553.321 466.111 553.402 467.503 553.387H483.157C486.19 553.394 489.206 553.015 492.119 552.26C500.178 550.145 513.309 544.729 501.826 533.36L450.163 533.234Z" fill="#2F2E41"/>
<path opacity="0.2" d="M450.163 533.234C450.163 533.234 445.033 550.644 463.342 553.149C464.721 553.321 466.111 553.402 467.503 553.387H483.157C486.19 553.394 489.206 553.015 492.119 552.26C500.178 550.145 513.309 544.729 501.826 533.36L450.163 533.234Z" fill="black"/>
<path d="M450.163 533.234C450.163 533.234 446.095 550.653 479.533 548.942C479.533 548.942 510.419 547.657 501.815 533.36L491.687 523.331L479.91 522.552L457.505 527.926C457.505 527.926 454.992 527.072 450.163 533.234Z" fill="#2F2E41"/>
<path d="M450.163 511.575V533.234C450.163 533.234 482.17 517.228 501.618 533.488C501.731 533.573 501.892 533.488 501.815 533.36C499.574 530.188 497.145 527.126 494.538 524.187C491.59 520.863 488.419 517.705 485.041 514.732L450.163 511.575Z" fill="#FF9F1C"/>
<path d="M388.305 519.42L368.735 525.192C368.735 525.192 376.03 528.451 378.525 538.735H436.796V525.769C436.799 523.258 436.04 520.794 434.601 518.641L432.334 515.257L430.583 511.591L388.305 519.42Z" fill="#FF9F1C"/>
<path d="M351.62 537.008C352.393 537.041 353.149 536.802 353.728 536.339C354.306 535.877 354.661 535.231 354.718 534.537L365.073 400.171L357.023 399.646L348.806 534.224C348.785 534.573 348.843 534.923 348.973 535.252C349.104 535.582 349.306 535.885 349.568 536.143C349.829 536.402 350.146 536.613 350.497 536.761C350.851 536.909 351.231 536.993 351.62 537.008Z" fill="#BCBEC0"/>
<path d="M525.227 541.173C524.455 541.209 523.696 540.968 523.117 540.506C522.539 540.044 522.184 539.396 522.131 538.702L511.776 404.336L519.825 403.818L528.042 538.397C528.062 538.745 528.004 539.094 527.872 539.423C527.741 539.751 527.539 540.053 527.277 540.311C527.016 540.568 526.699 540.778 526.348 540.926C525.996 541.073 525.615 541.158 525.227 541.173Z" fill="#BCBEC0"/>
<path d="M519.9 403.811H357.042V288.158C357.042 285.251 357.679 282.375 358.917 279.69C360.154 277.005 361.967 274.565 364.253 272.51C366.539 270.455 369.253 268.826 372.239 267.715C375.226 266.604 378.428 266.032 381.66 266.033H518.017L519.637 386.891L519.9 403.811Z" fill="#D1D3D4"/>
<path opacity="0.2" d="M519.635 386.892L511.737 388.703L379.946 355.633C365.825 343.014 386.865 266.033 386.865 266.033H517.997L519.635 386.892Z" fill="black"/>
<path d="M462.721 347.77H469.376L487.63 279.406V254.472C487.63 254.472 477.604 251.161 474.451 250.307L458.927 286.279L462.721 347.77Z" fill="#FF9F1C"/>
<path d="M340.117 540.437C340.117 540.437 328.971 551.17 306.087 545.109C303.169 544.35 300.48 543.009 298.217 541.191C294.668 538.32 289.744 533.022 286.44 524.194L282.241 541.385L276.592 541.697L272.998 515.46C272.716 513.3 272.234 511.165 271.557 509.077C270.164 504.804 268.224 495.747 275.322 491.845L287.56 501.621C287.56 501.621 289.49 502.89 290.713 511.405C290.713 511.405 289.669 527.97 302.998 530.331C305.37 530.632 307.787 530.448 310.069 529.793C312.35 529.137 314.439 528.029 316.177 526.548C320.905 529.488 326.318 531.415 332.002 532.185C334.323 532.446 336.563 533.12 338.592 534.164C341.124 535.586 343.289 537.745 340.117 540.437Z" fill="#FF9F1C"/>
<path d="M316.084 526.564C314.345 528.045 312.257 529.154 309.975 529.809C307.692 530.464 305.276 530.649 302.905 530.347C289.574 527.986 290.62 511.422 290.62 511.422C289.395 502.908 287.466 501.637 287.466 501.637L275.228 491.862C275.228 491.862 291.119 489.441 301.483 489.559C301.521 489.559 304.57 521.73 316.084 526.564Z" fill="#F9B499"/>
<path d="M302.773 498.26L301.521 489.551C292.72 489.767 283.946 490.538 275.267 491.862C275.267 491.862 295.073 494.884 302.773 498.26Z" fill="#F7A48B"/>
<path d="M219.98 496.838V506.445H216.515C216.515 506.445 210.782 544.905 190.279 528.256C190.279 528.256 199.336 513.2 198.45 497.829L219.98 496.838Z" fill="#F9B499"/>
<path d="M190.251 528.291C190.251 528.291 174.821 545.134 180.554 546.125C180.554 546.125 185.62 548.663 206.122 548.308C206.122 548.308 218.474 546.565 218.689 538.32L219.98 506.48H216.515C216.515 506.48 210.538 544.94 190.251 528.291Z" fill="#FF9F1C"/>
<path d="M304.59 489.533C292.568 489.365 272.536 492.15 264.158 493.402C263.12 493.556 262.055 493.343 261.187 492.808C260.32 492.273 259.714 491.459 259.497 490.533L242.327 416.896C232.613 379.984 227.99 337.334 227.99 337.334L226.776 369.709L227.087 381.06L230.137 494.579C230.147 495.064 229.948 495.533 229.581 495.888C229.214 496.243 228.708 496.457 228.169 496.483L189.751 498.252C189.482 498.267 189.211 498.233 188.956 498.154C188.701 498.074 188.465 497.949 188.263 497.787C188.063 497.625 187.9 497.428 187.783 497.209C187.667 496.989 187.6 496.752 187.586 496.508C187.52 495.459 187.427 494.131 187.314 492.547C185.543 468.764 177.947 388.694 177.947 388.694C173.335 342.607 178.701 299.923 178.701 299.923L187.418 287.608H260.063L264.43 299.923L278.551 368.608L306.66 487.257C306.727 487.533 306.723 487.82 306.649 488.095C306.576 488.37 306.435 488.625 306.235 488.845C306.036 489.064 305.786 489.239 305.5 489.358C305.215 489.478 304.903 489.538 304.59 489.533Z" fill="#2F2E41"/>
<path opacity="0.2" d="M217.672 287.617L217.484 291.501C217.484 291.501 229.064 294.227 245.086 292.348V287.582L217.672 287.617Z" fill="black"/>
<path d="M202.516 195.045L197.481 195.951C197.481 195.951 219.81 219.151 219.339 255.056L217.701 287.617H245.133V251.484C245.133 251.484 249.35 216.214 236.952 195.045L232.321 194.097L202.516 195.045Z" fill="#D1D3D4"/>
<path d="M197.481 195.951C197.481 195.951 184.302 195.104 174.887 201.309L191.757 218.922L202.498 214.91L197.462 223.163C197.462 223.163 215.056 240.556 219.282 252.381C219.339 252.381 220.281 221.826 197.481 195.951Z" fill="#FF9F1C"/>
<path opacity="0.2" d="M319.952 209.789C305.738 217.043 291.1 236.577 288.417 240.259C288.284 240.447 288.099 240.6 287.882 240.704C287.664 240.809 287.421 240.863 287.174 240.861C286.791 240.861 286.423 240.729 286.144 240.49C285.868 240.252 285.704 239.926 285.687 239.583C285.253 231.118 276.839 217.288 276.574 216.848C280.485 220.704 284.082 224.808 287.334 229.13C287.334 229.13 312.309 209.044 317.137 207.174L319.952 209.789Z" fill="black"/>
<path d="M319.953 209.789L331.249 198.946C331.249 198.946 337.161 194.062 342.47 193.522L354.709 192.303C354.946 192.279 355.186 192.3 355.412 192.366C355.64 192.431 355.849 192.538 356.027 192.682C356.204 192.825 356.346 193 356.444 193.195C356.54 193.391 356.591 193.603 356.591 193.817C356.592 194.157 356.467 194.487 356.235 194.756C356.002 195.025 355.676 195.215 355.311 195.299L343.072 198.083C343.072 198.083 349.108 207.622 346.451 213.911C346.451 213.911 341.143 220.962 340.805 216.086C340.805 216.086 335.156 221.402 332.228 221.164L319.953 209.789Z" fill="#F9B499"/>
<path d="M331.164 202.417C334.942 200.554 338.948 199.091 343.101 198.058L355.338 195.273C355.338 195.273 357.098 194.96 356.28 192.929C356.098 192.71 355.858 192.535 355.582 192.422C355.305 192.308 355.002 192.259 354.698 192.278C354.698 192.278 355.744 194.41 350.793 194.985C350.82 195.01 335.861 196.128 331.164 202.417Z" fill="#F7A48B"/>
<path d="M332.962 212.133C334.158 212.142 335.335 211.87 336.379 211.346C337.372 210.792 338.243 210.077 338.95 209.239C340.621 207.582 342.454 206.065 344.428 204.703C343.072 206.557 341.535 208.3 339.834 209.908C339.392 210.288 339.006 210.755 338.479 211.135C337.971 211.53 337.392 211.842 336.765 212.058C335.557 212.526 334.193 212.554 332.962 212.133Z" fill="#F7A48B"/>
<path d="M344.974 211.144C344.747 211.986 344.248 212.752 343.543 213.344C343.159 213.67 342.695 213.911 342.188 214.047C341.636 214.169 341.057 214.144 340.522 213.97C339.999 213.793 339.545 213.486 339.211 213.084C338.876 212.682 338.679 212.202 338.639 211.703C338.627 210.811 338.99 209.949 339.656 209.289C339.454 210.041 339.419 210.82 339.552 211.584C339.638 211.896 339.805 212.184 340.039 212.426C340.273 212.67 340.568 212.859 340.898 212.98C341.24 213.083 341.604 213.11 341.961 213.058C342.315 213.006 342.652 212.878 342.941 212.683C343.69 212.251 344.373 211.734 344.974 211.144Z" fill="#F7A48B"/>
<path d="M336.493 200.114C336.493 200.114 345.906 197.737 347.253 201.63C347.253 201.63 347.76 203.043 344.428 203.865C341.857 204.726 339.688 206.35 338.282 208.469" fill="#F9B499"/>
<path opacity="0.2" d="M217.672 287.617L219.339 252.372C219.339 252.372 237.959 247.818 245.142 253.497V287.617H217.672Z" fill="black"/>
<path opacity="0.2" d="M230.137 494.587C230.147 495.073 229.948 495.542 229.581 495.897C229.214 496.252 228.708 496.465 228.169 496.492L189.751 498.26C189.482 498.275 189.212 498.242 188.956 498.162C188.701 498.082 188.465 497.958 188.264 497.795C188.063 497.633 187.9 497.437 187.783 497.217C187.667 496.998 187.6 496.759 187.586 496.517C187.52 495.468 187.427 494.138 187.314 492.556C192.595 494.172 204.475 496.89 214.99 492.793C216.911 492.038 218.559 490.814 219.746 489.258C220.932 487.704 221.61 485.883 221.701 483.998L227.087 381.067L230.137 494.587Z" fill="black"/>
<path opacity="0.2" d="M304.59 489.533C292.568 489.364 272.536 492.15 264.158 493.402C263.12 493.556 262.055 493.342 261.187 492.808C260.32 492.273 259.714 491.459 259.497 490.533L242.327 416.896C232.613 379.984 227.99 337.334 227.99 337.334L264.704 466.681C265.675 470.193 267.748 473.382 270.681 475.862C273.612 478.343 277.276 480.013 281.235 480.672L306.651 487.266C306.715 487.541 306.711 487.825 306.637 488.098C306.564 488.371 306.423 488.625 306.224 488.844C306.027 489.061 305.778 489.236 305.495 489.357C305.211 489.475 304.902 489.536 304.59 489.533Z" fill="black"/>
<path opacity="0.4" d="M290.752 257.654C290.752 257.654 310.397 234.631 327.728 225.109C327.728 225.144 310.153 244.61 290.752 257.654Z" fill="white"/>
<path opacity="0.2" d="M255.327 274.158V278.348L265.974 279.728V275.208L255.327 274.158Z" fill="black"/>
<path d="M440.504 247.598C438.054 247.27 435.565 247.27 433.115 247.598L430.968 347.77H462.721L474.451 250.307C472.64 249.659 470.74 249.237 468.802 249.054L440.504 247.598Z" fill="#D1D3D4"/>
<path d="M398.397 343.124V347.77H430.968L431.213 336.149L398.397 343.124Z" fill="#3E8646"/>
<path d="M500.648 347.77H469.376L487.63 279.406V254.472C487.63 254.472 515.023 271.094 521.179 289.969C521.179 289.969 534.651 323.427 521.179 334.71L500.648 347.77Z" fill="#FF9F1C"/>
<path d="M514.552 407.205C513.959 410.335 513.3 413.383 512.623 416.218C510.562 424.878 508.406 431.411 508.406 431.411L487.112 514.9L478.15 514.054L444.524 511.032L458.899 403.04L430.611 392.832C423.23 389.253 414.804 394.618 414.804 394.618C401.56 397.936 408.743 414.017 408.743 414.017L430.611 511.54L410.843 515.206L388.249 519.387L371.55 472.293L355.282 415.508L352.242 404.885C351.652 403.018 351.383 401.078 351.441 399.138C351.753 387.492 363.247 376.455 371.794 369.835C374.697 367.572 377.746 365.467 380.925 363.529H503.011L513.198 377.268L514.374 378.85C517.472 385.113 516.501 396.582 514.552 407.205Z" fill="#2F2E41"/>
<path opacity="0.2" d="M513.196 377.242C507.294 378.807 503.557 376.853 501.674 375.287C499.745 373.652 497.587 372.253 495.254 371.122C486.781 367.17 480.41 366.84 477.058 367.069C474.432 367.254 471.795 367.254 469.169 367.069C423.419 363.783 419.823 367.609 419.823 367.609C404.215 371.627 387.796 372.389 371.813 369.835C374.715 367.572 377.764 365.467 380.944 363.529H503.011L513.196 377.242Z" fill="black"/>
<path opacity="0.2" d="M444.524 511.066L458.899 403.074L430.611 392.866C423.23 389.285 414.804 394.652 414.804 394.652C401.56 397.97 408.743 414.052 408.743 414.052L430.611 511.575L410.843 515.239C410.843 515.239 407.566 439.732 402.765 416.481L398.368 401.863C398.368 401.863 403.566 380.932 424.416 382.921C424.416 382.921 444.891 382.591 460.782 390.539C460.782 390.539 475.928 390.217 471.495 414.466C471.495 414.466 455.915 499.377 478.084 514.062L444.524 511.066Z" fill="black"/>
<path opacity="0.2" d="M514.552 407.205C513.959 410.335 513.3 413.383 512.623 416.218C502.474 410.624 483.714 405.215 483.714 405.215C502.193 401.229 514.543 407.239 514.543 407.239L514.552 407.205Z" fill="black"/>
<path opacity="0.2" d="M389.059 400.128C379.29 407.549 367.721 412.809 355.282 415.482L352.242 404.86C351.652 402.991 351.383 401.053 351.441 399.113C363.923 400.44 376.51 400.778 389.059 400.128Z" fill="black"/>
<path d="M430.611 511.575L432.361 515.239C432.361 515.239 422.006 524.237 408.479 515.68L430.611 511.575Z" fill="#F9B499"/>
<path d="M368.735 525.192C368.735 525.192 348.091 530.711 355.621 541.503C355.621 541.503 357.579 546.014 384.36 544.761L434.875 544.981C436.232 543.136 436.912 540.954 436.823 538.743H378.526C378.526 538.743 377.113 530.212 368.735 525.192Z" fill="#2F2E41"/>
<path d="M496.658 245.651L559.625 248.631L508.811 331.815L450.813 325.612L496.658 245.651Z" fill="#75D67F"/>
<path d="M561.423 255.342L559.625 248.631L508.811 331.815L450.813 325.612L458.117 330.444L513.198 336.292L561.423 255.342Z" fill="#FF9F1C"/>
<path opacity="0.41" d="M498.275 251.796L459.623 320.939L505.788 326.306L547.246 254.47L498.275 251.796Z" fill="white"/>
<path opacity="0.41" d="M489.211 287.777C489.211 287.777 490.219 283.383 495.265 284.594C499.152 285.526 508.612 287.473 512.763 288.318C513.01 288.369 513.239 288.468 513.436 288.608C513.635 288.747 513.796 288.924 513.907 289.128C514.019 289.33 514.078 289.553 514.083 289.779C514.088 290.004 514.036 290.229 513.932 290.435L502.841 312.585C502.841 312.585 500.676 315.971 489.211 313.364C489.211 313.364 477.434 311.561 481.04 304.129L489.211 287.777Z" fill="white"/>
<path d="M493.777 284.391C493.561 283.531 493.602 282.635 493.899 281.794C494.116 281.271 494.529 280.832 495.067 280.554C495.604 280.275 496.234 280.175 496.846 280.269C500.318 280.752 508.641 281.963 513.488 282.987C513.89 283.077 514.263 283.245 514.585 283.482C514.906 283.716 515.164 284.012 515.344 284.346C515.523 284.682 515.62 285.048 515.624 285.421C515.629 285.792 515.542 286.161 515.372 286.499C514.893 287.312 514.256 288.04 513.488 288.649L493.777 284.391Z" fill="#FF9F1C"/>
<path d="M512.577 275.483C521.505 273.935 527.941 268.944 526.953 264.335C525.964 259.727 517.924 257.247 508.996 258.795C500.067 260.344 493.632 265.336 494.619 269.944C495.609 274.551 503.649 277.033 512.577 275.483Z" fill="#FF9F1C"/>
<path d="M598.429 272.982C598.429 272.982 601.206 264.611 618.357 261.47C618.357 261.47 632.676 259.287 641.506 266.295C639.147 266.146 636.775 266.299 634.465 266.752C634.465 266.752 613.585 270.638 601.771 272.17C600.64 272.378 599.524 272.65 598.429 272.982Z" fill="#6BD976"/>
<path opacity="0.2" d="M609.358 319.271L600.594 343.14L602.279 377.783L679.415 369.464C679.415 369.464 682.653 350.047 685.478 342.911C684.063 333.663 681.86 324.525 678.887 315.581C678.887 315.581 682.21 339.163 679.263 351.13C678.851 352.733 677.965 354.208 676.702 355.399C675.439 356.59 673.843 357.454 672.081 357.901L618.998 371.715L609.358 319.271Z" fill="black"/>
<path d="M602.279 377.783C602.279 377.783 529.097 386.553 523.204 394.712C523.204 394.712 510.965 398.613 515.673 427.357L530.302 519.42L580.421 521.029L567.806 431.614L576.881 432.681L590.305 519.42H640.027L628.977 433.036C628.977 433.036 669.228 429.574 678.312 410.015C678.312 410.015 674.933 401 678.312 381.034L679.415 369.464L602.279 377.783Z" fill="#2F2E41"/>
<path opacity="0.2" d="M590.305 519.42L597.007 519.369L592.574 448.864C592.482 447.411 592.93 445.971 593.847 444.77C594.763 443.57 596.097 442.675 597.638 442.228C602.476 440.815 611.891 439.452 629.776 439.546L628.938 433.036L576.843 432.681L590.305 519.42Z" fill="black"/>
<path opacity="0.2" d="M556.246 520.249L580.439 521.029L567.806 431.614C567.806 431.614 562.017 429.482 558.006 431.614C558.006 431.614 569.783 491.608 556.246 520.249Z" fill="black"/>
<path d="M548.215 440.215C546.909 440.438 545.568 440.438 544.263 440.215C543.461 440.065 542.704 439.767 542.039 439.339C541.374 438.913 540.816 438.365 540.402 437.732C539.986 437.099 539.721 436.396 539.626 435.665C539.53 434.935 539.607 434.195 539.847 433.494C541.363 428.796 545.938 421.136 559.616 418.986L675.338 423.38C675.338 423.38 703.721 421.965 700.304 432.69C700.304 432.69 700.116 435.287 693.29 438.987C691.476 437.38 689.294 436.148 686.895 435.375C684.498 434.604 681.941 434.311 679.406 434.518L568.324 428.17C568.324 428.17 552.735 423.6 548.215 440.215Z" fill="#BCBEC0"/>
<path d="M678.313 410.014C678.313 410.014 679.406 427.586 704.512 438.683C705.628 439.176 706.913 439.271 708.104 438.949C709.295 438.625 710.306 437.906 710.931 436.938C711.263 436.423 711.475 435.852 711.555 435.261C711.633 434.669 711.579 434.069 711.393 433.497C711.208 432.925 710.894 432.393 710.474 431.932C710.053 431.472 709.533 431.093 708.945 430.82C701.48 427.273 687.745 418.123 687.106 398.258C687.106 398.258 689.761 334.668 711.637 309.555C711.637 309.555 720.053 300.076 732.159 299.398H736.668C738.242 299.398 739.75 298.836 740.863 297.836C741.974 296.836 742.6 295.48 742.6 294.065C742.598 293.316 742.421 292.575 742.08 291.89C741.739 291.207 741.24 290.594 740.62 290.095C739.997 289.596 739.266 289.218 738.471 288.99C737.678 288.761 736.838 288.685 736.009 288.767C733.89 288.963 731.786 289.279 729.713 289.715C721.986 291.374 714.79 294.611 708.682 299.174C702.573 303.738 697.715 309.505 694.486 316.029C690.294 324.644 687.258 333.677 685.44 342.937C685.44 342.937 678.426 364.58 678.276 381.025C678.313 381.034 674.764 402.955 678.313 410.014Z" fill="#D1D3D4"/>
<path d="M484.806 546.946C484.806 546.946 482.856 556.671 496.479 557.806H570.15C571.558 557.812 572.918 557.344 573.962 556.495C575.008 555.647 575.662 554.477 575.798 553.217C575.924 551.177 575.729 549.133 575.223 547.14L484.806 546.946Z" fill="#E6E7E8"/>
<path d="M202.516 195.045C202.516 195.045 210.857 191.837 211.177 181.181L214.547 179.286L229.214 189.941V194.097H232.292C232.292 194.097 235.342 203.035 226.87 207.174C226.87 207.174 217.871 205.303 202.516 195.045Z" fill="#F9B499"/>
<path d="M229.091 187.902L229.214 194.105C229.214 194.105 222.088 193.259 217.672 182.586L229.091 187.902Z" fill="#F7A48B"/>
<path d="M232.292 190.195C243.954 190.195 253.407 179.55 253.407 166.419C253.407 153.289 243.954 142.644 232.292 142.644C220.631 142.644 211.177 153.289 211.177 166.419C211.177 179.55 220.631 190.195 232.292 190.195Z" fill="#F9B499"/>
<path d="M253.407 162.51C253.407 162.51 251.948 166.293 239.287 157.711L230.636 151.599C230.636 151.599 221.175 167.333 214.726 168.528C214.1 167.887 213.331 167.372 212.47 167.015C211.609 166.659 210.675 166.467 209.727 166.454C206.395 166.454 203.562 168.824 202.545 172.125C202.545 172.125 201.858 172.675 201.03 169.95C201.218 171.125 203.571 187.927 188.179 190.263C188.179 190.263 182.786 191.11 183.407 185.37C183.407 185.37 178.268 189.18 173.551 187.394C173.035 187.214 172.574 186.93 172.199 186.565C171.826 186.198 171.549 185.761 171.393 185.284C171.237 184.807 171.203 184.305 171.298 183.816C171.392 183.326 171.607 182.862 171.931 182.459C172.476 181.843 173.135 181.315 173.881 180.902C173.881 180.902 180.3 177.22 176.366 166.513C176.366 166.513 167.988 139.767 186.89 137.913C186.89 137.913 197.019 136.982 202.545 139.394L205.369 139.953C205.369 139.953 221.11 130.287 238.515 137.735C238.486 137.642 264.393 146.428 253.407 162.51Z" fill="#2F2E41"/>
<path opacity="0.2" d="M188.143 190.187C188.143 190.187 182.748 191.083 183.369 185.294C183.369 185.294 178.23 189.112 173.514 187.317C173.005 187.129 172.548 186.843 172.176 186.479C171.803 186.115 171.523 185.681 171.358 185.21C171.74 185.106 172.118 184.985 172.486 184.846C177.26 183.132 181.263 180.04 183.866 176.057C186.468 172.072 187.523 167.422 186.861 162.84C185.826 155.391 186.467 141.764 198.722 142.644C198.722 142.644 198.554 162.577 200.991 169.957C201.245 171.617 203.336 187.902 188.143 190.187Z" fill="black"/>
<path d="M198.921 155.137C198.921 155.137 194.92 138.378 202.516 137.253C202.516 137.253 205.557 136.694 205.34 139.86C201.232 144.095 198.953 149.518 198.921 155.137Z" fill="#FF9F1C"/>
<path d="M217.287 174.774C217.287 179.395 213.898 183.144 209.7 183.144C205.501 183.144 202.103 179.395 202.103 174.774C202.099 173.867 202.239 172.963 202.518 172.091C203.533 168.789 206.368 166.419 209.7 166.419C210.648 166.433 211.582 166.624 212.443 166.981C213.304 167.338 214.071 167.853 214.698 168.494C216.408 170.22 217.333 172.462 217.287 174.774Z" fill="#F9B499"/>
<path d="M138.793 252.137L138.772 252.076L138.74 252.021C136.027 247.253 137.526 241.655 139.872 237.085C141.033 234.823 142.375 232.867 143.43 231.475C143.956 230.78 144.409 230.228 144.729 229.851C144.889 229.662 145.015 229.518 145.101 229.421C145.144 229.372 145.177 229.337 145.198 229.313L145.222 229.286L145.228 229.28L145.229 229.279L145.25 229.257L145.269 229.231C158.011 212.924 168.93 205.564 173.292 203.047L173.3 203.043C173.751 202.775 174.139 202.572 174.453 202.411C174.496 202.389 174.537 202.368 174.58 202.346C174.649 202.312 174.717 202.276 174.785 202.242L191.244 219.436L191.597 219.803L192.079 219.624L200.767 216.379L196.86 222.793L196.565 223.277L196.966 223.685C213.811 240.778 217.998 251.023 218.57 252.472L218.377 256.681L216.993 286.599L216.37 299.189H179.493C179.779 293.676 181.791 287.51 183.802 282.605C184.851 280.048 185.89 277.853 186.669 276.297C187.057 275.52 187.381 274.904 187.606 274.482C187.719 274.271 187.806 274.109 187.866 274L187.935 273.877L187.952 273.847L187.955 273.84L187.956 273.838L187.965 273.822C191.907 266.385 190.163 257.162 187.554 249.947C186.241 246.316 184.69 243.14 183.468 240.874C182.857 239.741 182.328 238.833 181.95 238.206C181.76 237.892 181.609 237.65 181.505 237.485C181.453 237.402 181.412 237.338 181.384 237.295L181.352 237.246L181.344 237.233L181.341 237.23V237.228C181.34 237.228 181.34 237.228 180.696 237.628L181.341 237.228L180.869 236.51L180.201 237.062L164.8 249.757L164.249 250.212L164.685 250.772L180.621 271.294C181.029 271.825 181.268 272.44 181.318 273.072C181.367 273.705 181.228 274.34 180.909 274.913C176.707 282.444 168.601 284.615 164.661 285.223C164.066 285.311 163.459 285.281 162.879 285.137C162.3 284.993 161.766 284.737 161.315 284.391L161.31 284.388C153.804 278.739 148.173 270.691 144.408 264.017C142.529 260.685 141.124 257.711 140.188 255.57C139.72 254.498 139.37 253.638 139.138 253.045C139.022 252.749 138.935 252.521 138.878 252.368C138.849 252.29 138.827 252.232 138.813 252.194L138.798 252.151L138.794 252.14L138.793 252.137Z" fill="#FF9F1C"/>
<path d="M181.341 237.228V237.23L181.344 237.233L181.352 237.246L181.384 237.295C181.412 237.338 181.453 237.402 181.505 237.485C181.609 237.65 181.76 237.892 181.95 238.206C182.328 238.833 182.857 239.741 183.468 240.874C184.69 243.14 186.241 246.316 187.554 249.947C190.163 257.162 191.907 266.385 187.965 273.822L187.956 273.838L187.955 273.84L187.952 273.847L187.935 273.877L187.866 274C187.806 274.109 187.719 274.271 187.606 274.482C187.381 274.904 187.057 275.52 186.669 276.297C185.89 277.853 184.851 280.048 183.802 282.605C181.791 287.51 179.779 293.676 179.493 299.189H216.37L216.993 286.599L218.377 256.681L218.57 252.472C217.998 251.023 213.811 240.778 196.966 223.685L196.565 223.277L196.86 222.793L200.767 216.379L192.079 219.624L191.597 219.803L191.244 219.436L174.785 202.242C174.717 202.276 174.649 202.312 174.58 202.346C174.537 202.368 174.496 202.389 174.453 202.411C174.139 202.572 173.751 202.775 173.3 203.043L173.292 203.047C168.93 205.564 158.011 212.924 145.269 229.231L145.25 229.256L145.229 229.279L145.228 229.28L145.222 229.286L145.198 229.313C145.177 229.337 145.144 229.372 145.101 229.421C145.015 229.518 144.889 229.662 144.729 229.851C144.409 230.228 143.956 230.78 143.43 231.475C142.375 232.867 141.033 234.823 139.872 237.085C137.526 241.655 136.027 247.253 138.74 252.021L138.772 252.076L138.793 252.137L138.794 252.14L138.798 252.151L138.813 252.194C138.827 252.232 138.849 252.29 138.878 252.368C138.935 252.521 139.022 252.749 139.138 253.045C139.37 253.638 139.72 254.498 140.188 255.57C141.124 257.711 142.529 260.685 144.408 264.017C148.173 270.691 153.804 278.739 161.31 284.388L161.315 284.391C161.766 284.737 162.3 284.993 162.879 285.137M181.341 237.228C181.34 237.228 181.34 237.228 180.696 237.628L181.341 237.228ZM181.341 237.228L180.869 236.51L180.201 237.062L164.8 249.757L164.249 250.212L164.685 250.772L180.621 271.294C181.029 271.825 181.268 272.44 181.318 273.072C181.367 273.705 181.228 274.34 180.909 274.913C176.707 282.444 168.601 284.615 164.661 285.223C164.066 285.311 163.459 285.281 162.879 285.137M162.879 285.137L162.69 285.856" stroke="#3F8647"/>
<path opacity="0.2" d="M165.323 250.332L157.699 245.533C157.699 245.533 168.769 246.76 180.724 237.628L165.323 250.332Z" fill="black"/>
<path d="M171.057 284.221C172.593 286.525 175.042 288.221 177.91 288.97C177.91 288.97 179.792 290.502 177.711 290.935C176.772 291.113 175.861 291.398 175 291.78C172.939 292.737 171.093 294.362 179.161 295.336C180.517 288.804 182.73 282.44 185.751 276.376H180.866C178.595 279.855 175.162 282.599 171.057 284.221Z" fill="#F9B499"/>
<path opacity="0.2" d="M191.465 272.999L188.623 278.348L207.233 276.401L209.7 272.067L191.465 272.999Z" fill="black"/>
<path d="M441.173 231.915L440.504 242.384C440.504 242.384 437.577 258.745 452.742 258.703C452.742 258.703 461.093 259.837 468.916 250.764L467.154 235.528C467.154 235.528 469.169 235.528 470.685 233.032L460.837 227.106L441.173 231.915Z" fill="#F9B499"/>
<path d="M440.947 235.554L440.505 242.409C440.3 244.134 440.3 245.874 440.505 247.598C440.505 247.598 448.036 245.677 454.314 238.415L445.927 233.878L440.947 235.554Z" fill="#F7A48B"/>
<path d="M471.316 223.539C476.969 211.59 473.252 198.728 463.013 194.813C452.775 190.897 439.892 197.412 434.241 209.361C428.588 221.312 432.305 234.173 442.543 238.088C452.782 242.002 465.665 235.49 471.316 223.539Z" fill="#F9B499"/>
<path d="M476.755 232.12C478.602 229.245 477.897 225.772 475.182 224.364C472.466 222.953 468.77 224.141 466.925 227.016C465.079 229.889 465.782 233.362 468.498 234.772C471.214 236.181 474.91 234.993 476.755 232.12Z" fill="#F9B499"/>
<path d="M484.806 219.497C482.774 222.331 480.339 224.915 477.566 227.184C477.566 227.184 475.513 222.359 469.405 224.644C469.405 224.644 472.134 215.24 464.386 212.642C464.386 212.642 460.622 212.642 459.68 208.469C459.68 208.469 449.946 216.594 445.842 208.071C445.842 208.071 435.854 211.229 432.531 205.972C431.589 204.499 431.185 202.374 431.675 199.319C431.675 199.319 431.458 184.202 458.663 187.783C458.663 187.783 466.853 186.785 474.374 196.738C474.328 196.78 495.528 203.848 484.806 219.497Z" fill="#2F2E41"/>
<path opacity="0.2" d="M484.806 219.497C482.774 222.331 480.339 224.915 477.565 227.184C477.565 227.184 475.513 222.359 469.405 224.644C469.405 224.644 472.134 215.24 464.386 212.642C464.386 212.642 460.622 212.642 459.68 208.469C459.68 208.469 449.946 216.594 445.842 208.071C445.842 208.071 435.854 211.229 432.531 205.972C432.531 205.972 441.409 191.168 457.12 195.544C457.12 195.544 455.134 189.975 461.544 191.964C461.544 191.964 475.975 197.128 469.432 203.492C469.432 203.492 463.53 208.673 467.738 211.059C467.738 211.059 472.802 215.833 474.469 212.845C474.469 212.845 472.388 203.695 478.582 208.071C482.202 211.028 484.426 215.116 484.806 219.497Z" fill="black"/>
<path d="M458.899 333.821L405.654 345.671C384.172 349.311 385.359 339.221 385.359 339.221C379.391 292.847 394.914 267.091 394.914 267.091C397.408 256.274 406.936 251.399 415.86 249.249C421.459 247.931 427.247 247.372 433.03 247.589H433.124L431.777 309.783L452.799 307.405L458.899 333.821Z" fill="#FF9F1C"/>
<path opacity="0.2" d="M433.03 247.591L431.777 309.784L424.04 311.291L420.792 282.08L426.167 277.146L418.994 273.489L415.83 249.207C421.442 247.901 427.239 247.356 433.03 247.591Z" fill="black"/>
<path opacity="0.2" d="M410.908 283.367L411.849 313.203C411.849 313.203 434.442 308.912 452.742 307.405L453.843 312.136C453.843 312.136 418.768 312.56 408.743 316.208L410.908 283.367Z" fill="black"/>
<path d="M453.193 309.233C453.193 309.233 464.49 298.102 476.983 292.737C478.579 292.05 480.121 291.264 481.595 290.383C483.723 289.097 486.933 287.617 487.827 289.655C487.827 289.655 490.509 291.874 477.208 299.813C477.208 299.813 484.183 302.242 480.691 314.202C480.691 314.202 481.284 322.912 476.926 319.441C476.926 319.441 475.871 315.581 472.945 317.959C472.324 318.49 471.813 319.114 471.437 319.805C470.148 322.056 465.535 329.056 457.807 329.259L453.193 309.233Z" fill="#F9B499"/>
<path d="M471.842 308.937C472.796 308.777 473.777 308.793 474.723 308.988C475.686 309.165 476.61 309.489 477.454 309.945C478.307 310.402 479.046 311.016 479.619 311.747C480.194 312.462 480.563 313.294 480.691 314.168C480.156 313.499 479.564 312.867 478.922 312.28C478.29 311.732 477.593 311.249 476.841 310.842C475.266 310.029 473.587 309.39 471.842 308.937Z" fill="#F7A48B"/>
<path d="M475.457 303.664C476.119 303.443 476.833 303.385 477.529 303.495C478.234 303.596 478.907 303.829 479.506 304.181C480.127 304.526 480.651 304.995 481.04 305.551C481.419 306.083 481.645 306.691 481.699 307.321C481.191 306.881 480.757 306.474 480.324 306.068C479.891 305.695 479.417 305.361 478.913 305.07C477.835 304.466 476.673 303.994 475.457 303.664Z" fill="#F7A48B"/>
<path d="M540.346 307.007C540.346 307.007 537.983 319.873 527.553 325.129C526.765 325.539 525.845 325.693 524.946 325.569C521.472 325.053 513.649 322.056 522.384 304.96C520.756 303.856 519.297 302.563 518.045 301.116C516.802 299.499 516.604 297.908 520.115 297.562C520.115 297.562 512.059 288.632 525.274 294.388C525.274 294.388 517.884 284.917 521.678 285.847C522.297 285.878 522.901 286.033 523.449 286.296C526.147 287.49 528.635 289.04 530.828 290.891C530.828 290.935 530.97 290.891 530.923 290.825C529.652 289.208 525.274 283.317 527.938 281.878C528.193 281.743 528.49 281.687 528.782 281.716C529.076 281.745 529.351 281.857 529.568 282.039L540.346 290.663C540.346 290.663 545.674 295.496 540.346 307.007Z" fill="#F9B499"/>
<path d="M527.525 325.129C526.736 325.539 525.817 325.693 524.917 325.569C521.444 325.053 513.621 322.056 522.357 304.958C520.728 303.856 519.268 302.563 518.017 301.116L525.548 304.747C525.548 304.747 519.297 320.787 527.525 325.129Z" fill="#F7A48B"/>
<path d="M530.932 290.825C529.661 289.208 525.284 283.317 527.949 281.878C528.203 281.743 528.499 281.687 528.793 281.716C529.085 281.745 529.36 281.857 529.577 282.039C529.577 282.039 528.164 284.857 530.932 290.825Z" fill="#F7A48B"/>
<path d="M531.949 297.562C529.125 298.187 525.247 294.388 525.247 294.388C525.247 294.388 517.857 284.915 521.651 285.847C522.27 285.878 522.874 286.031 523.42 286.296C523.288 288.835 528.597 293.305 528.597 293.305C533.992 297.088 531.949 297.562 531.949 297.562Z" fill="#F7A48B"/>
<path d="M624.082 239.576C627.244 224.933 620.677 211.468 609.414 209.502C598.149 207.535 586.454 217.811 583.291 232.454C580.129 247.097 586.696 260.562 597.959 262.528C609.224 264.495 620.918 254.219 624.082 239.576Z" fill="#F9B499"/>
<path d="M642.267 236.993C640.842 241.543 638.49 245.816 635.33 249.596C632.873 252.553 629.727 254.995 626.114 256.748C626.114 256.748 623.29 255.42 624.495 251.813L621.671 239.007C621.671 239.007 611.089 248.081 610.958 240.023C610.958 240.023 611.241 230.713 603.767 232.82C603.767 232.82 590.323 240.481 584.496 228.469C584.496 228.469 582.285 235.097 582.613 239.668C582.598 239.662 582.581 239.662 582.566 239.668C581.207 238.953 579.944 238.102 578.801 237.129C578.671 237.022 578.549 236.909 578.434 236.79C577.214 235.699 576.254 234.398 575.61 232.964C573.943 229.071 575.309 223.729 586.849 217.729C586.849 217.729 580.477 216.992 584.271 213.218C584.271 213.218 609.791 192.837 621.05 211.263C620.946 211.211 649.723 217.315 642.267 236.993Z" fill="#2F2E41"/>
<path opacity="0.2" d="M631.659 232.203C633.553 234.719 634.856 237.557 635.483 240.542C636.111 243.528 636.053 246.598 635.312 249.562C632.854 252.521 629.709 254.96 626.096 256.714C626.096 256.714 623.272 255.385 624.477 251.779L621.652 238.974C621.652 238.974 611.071 248.047 610.94 239.989C610.94 239.989 611.222 230.678 603.747 232.787C603.747 232.787 590.305 240.447 584.477 228.436C584.477 228.436 582.265 235.063 582.595 239.634C582.58 239.628 582.563 239.628 582.548 239.634C581.132 239.001 579.855 238.14 578.782 237.094C578.653 236.987 578.531 236.875 578.415 236.756C577.275 235.609 576.324 234.32 575.59 232.93C575.59 232.93 576.382 224.153 598.513 219.76C598.513 219.76 600.999 218.913 598.513 215.85C598.513 215.85 593.204 209.147 609.291 214.029C609.291 214.029 609.771 210.432 606.657 209.298C606.657 209.298 615.204 209.992 616.013 215.85C616.013 215.85 636.922 216.223 637.731 229.037C637.647 229.028 639.547 231.592 631.659 232.203Z" fill="black"/>
<path d="M624.486 251.797C628.084 251.797 630.999 248.776 630.999 245.051C630.999 241.325 628.084 238.305 624.486 238.305C620.888 238.305 617.972 241.325 617.972 245.051C617.972 248.776 620.888 251.797 624.486 251.797Z" fill="#F9B499"/>
<path d="M536.966 519.632C536.966 519.632 470.958 543.966 487.356 549.045C487.356 549.045 495.772 553.565 531.6 552.049L566.431 552.345C568.436 552.39 570.413 551.932 572.145 551.026C572.969 550.657 573.679 550.109 574.205 549.43C574.731 548.751 575.06 547.963 575.158 547.14L573.388 520.817L536.966 519.632Z" fill="#FF9F1C"/>
<path d="M537.239 561.165C537.619 561.251 538.013 561.265 538.398 561.201C538.782 561.138 539.148 561.002 539.467 560.8C539.788 560.598 540.056 560.336 540.253 560.033C540.45 559.728 540.571 559.391 540.609 559.04L553.986 439.782C553.986 439.782 554.495 432.105 563.07 432.656L681.014 439.325C681.014 439.325 690.429 437.513 694.138 450.828L727.273 559.084C727.504 559.831 728.047 560.471 728.789 560.868C729.53 561.265 730.414 561.39 731.255 561.216C731.699 561.122 732.115 560.95 732.48 560.708C732.845 560.465 733.153 560.159 733.382 559.806C733.613 559.453 733.76 559.064 733.816 558.659C733.873 558.253 733.838 557.841 733.712 557.449L698.496 447.222C698.496 447.222 695.672 434.204 679.396 434.527L568.315 428.178C568.315 428.178 549.082 423.328 547.397 445.267L535.16 558.601C535.109 559.18 535.293 559.757 535.674 560.228C536.056 560.697 536.611 561.03 537.239 561.165Z" fill="#D1D3D4"/>
<path d="M673.737 347.77H185.77V363.504H673.737V347.77Z" fill="#939598"/>
<path d="M676.081 555.494L638.455 363.497H657.274L682.117 555.494H676.081Z" fill="#A7A9AC"/>
<path d="M189.319 555.494L226.945 363.497H208.137L183.285 555.494H189.319Z" fill="#A7A9AC"/>
<path d="M334.459 223.248C334.459 223.248 293.331 271.034 280.999 264.925L264.364 253.261C264.364 253.261 265.852 285.89 268.026 299.966H245.047L245.104 287.649V251.484C245.104 251.484 249.463 217.356 236.914 195.045C236.914 195.045 246.648 194.486 250.573 196.848C260.164 202.465 268.901 209.18 276.565 216.823C280.476 220.679 284.073 224.783 287.325 229.105C287.325 229.105 312.299 209.019 317.128 207.148L319.952 209.772L334.459 223.248Z" fill="#FF9F1C"/>
<path d="M236.923 195.045C236.923 195.045 245.396 194.614 250.564 196.848L256.025 211.787H247.335L256.994 220.708C256.994 220.708 254.763 241.868 245.086 251.483C245.104 251.483 249.577 216.882 236.923 195.045Z" fill="#FF9F1C"/>
<path opacity="0.4" d="M245.104 251.484C245.104 251.484 258.199 242.842 260.976 218.338L256.994 213.573L261.974 212.438L254.265 199.083L250.546 196.848L256.005 211.787H247.317L256.994 220.708C256.994 220.708 253.973 244.019 245.104 251.484Z" fill="white"/>
</svg>
