<svg width="55" height="29" viewBox="0 0 55 29" fill="none" xmlns="http://www.w3.org/2000/svg">
<path d="M24.8 0.919999V29H17.96V17.44H7.32V29H0.48V0.919999H7.32V11.92H17.96V0.919999H24.8ZM40.2578 0.919999C43.2178 0.919999 45.8045 1.50667 48.0178 2.68C50.2311 3.85333 51.9378 5.50667 53.1378 7.64C54.3645 9.74667 54.9778 12.1867 54.9778 14.96C54.9778 17.7067 54.3645 20.1467 53.1378 22.28C51.9378 24.4133 50.2178 26.0667 47.9778 27.24C45.7645 28.4133 43.1911 29 40.2578 29H29.7378V0.919999H40.2578ZM39.8178 23.08C42.4045 23.08 44.4178 22.3733 45.8578 20.96C47.2978 19.5467 48.0178 17.5467 48.0178 14.96C48.0178 12.3733 47.2978 10.36 45.8578 8.92C44.4178 7.48 42.4045 6.76 39.8178 6.76H36.5778V23.08H39.8178Z" fill="#F03232"/>
</svg>
